# vtk DataFile Version 3.0
patient_0000_synth_001 anatomical LCA control points
ASCII
DATASET POLYDATA
POINTS 27 float
0.00000000 0.00000000 0.00000000
5.35844615 0.77619873 0.38545991
10.72329580 1.13415782 0.00000000
16.05599311 0.73803080 -0.38545991
21.41443926 0.00000000 -0.00000000
21.41443926 0.00000000 -0.00000000
25.03197641 -1.56878958 -7.83639716
28.53336220 -2.97198022 -16.30100275
31.68698059 -4.12983826 -25.88781862
34.29579172 -4.98565337 -36.73489749
36.26104725 -5.48472882 -48.56258073
37.60558610 -5.56870951 -60.75458354
38.44310062 -5.19268142 -72.56076777
38.91344177 -4.35511706 -83.35179828
39.12470057 -3.12008195 -92.83318365
39.13655832 -1.61465986 -101.14093612
38.99053812 -0.00000000 -108.78727914
21.41443926 0.00000000 -0.00000000
19.79265347 13.10394687 -3.43397842
15.42593551 25.72574442 -6.45376835
8.73576173 37.45045824 -8.69513858
0.41558918 47.89994711 -9.88774677
-8.66195921 56.74778104 -9.88774677
-17.56757982 63.73226978 -8.69513858
-25.42135021 68.66621504 -6.45376835
-31.46022431 71.44277209 -3.43397842
-35.08234042 72.03791551 -0.00000000
LINES 3 30
5 0 1 2 3 4
12 5 6 7 8 9 10 11 12 13 14 15 16
10 17 18 19 20 21 22 23 24 25 26
POINT_DATA 27
SCALARS branch_id int 1
LOOKUP_TABLE default
1
1
1
1
1
2
2
2
2
2
2
2
2
2
2
2
2
3
3
3
3
3
3
3
3
3
3
SCALARS point_index int 1
LOOKUP_TABLE default
0
1
2
3
4
0
1
2
3
4
5
6
7
8
9
10
11
0
1
2
3
4
5
6
7
8
9
