<?xml version="1.0" encoding="utf-8" standalone="no"?>
<!DOCTYPE svg PUBLIC "-//W3C//DTD SVG 1.1//EN"
  "http://www.w3.org/Graphics/SVG/1.1/DTD/svg11.dtd">
<svg xmlns:xlink="http://www.w3.org/1999/xlink" width="457.92pt" height="473.038125pt" viewBox="0 0 457.92 473.038125" xmlns="http://www.w3.org/2000/svg" version="1.1">
 <metadata>
  <rdf:RDF xmlns:dc="http://purl.org/dc/elements/1.1/" xmlns:cc="http://creativecommons.org/ns#" xmlns:rdf="http://www.w3.org/1999/02/22-rdf-syntax-ns#">
   <cc:Work>
    <dc:type rdf:resource="http://purl.org/dc/dcmitype/StillImage"/>
    <dc:date>2026-08-07T21:44:10.942586</dc:date>
    <dc:format>image/svg+xml</dc:format>
    <dc:creator>
     <cc:Agent>
      <dc:title>Matplotlib v3.11.0, https://matplotlib.org/</dc:title>
     </cc:Agent>
    </dc:creator>
   </cc:Work>
  </rdf:RDF>
 </metadata>
 <defs>
  <style type="text/css">*{stroke-linejoin: round; stroke-linecap: butt}</style>
 </defs>
 <g id="figure_1">
  <g id="patch_1">
   <path d="M 0 473.038125 
L 457.92 473.038125 
L 457.92 0 
L 0 0 
z
" style="fill: #ffffff"/>
  </g>
  <g id="patch_2">
   <path d="M 7.2 465.838125 
L 450.72 465.838125 
L 450.72 22.318125 
L 7.2 22.318125 
z
" style="fill: #ffffff"/>
  </g>
  <g id="pane3d_1">
   <g id="patch_3">
    <path d="M 56.892896 382.275758 
L 181.995179 296.212619 
L 180.098502 62.390741 
L 49.902894 129.362064 
" style="fill: #f2f2f2; opacity: 0.5; stroke: #f2f2f2; stroke-linejoin: miter"/>
   </g>
  </g>
  <g id="pane3d_2">
   <g id="patch_4">
    <path d="M 181.995179 296.212619 
L 405.288701 338.161421 
L 411.674441 94.978328 
L 180.098502 62.390741 
" style="fill: #e6e6e6; opacity: 0.5; stroke: #e6e6e6; stroke-linejoin: miter"/>
   </g>
  </g>
  <g id="pane3d_3">
   <g id="patch_5">
    <path d="M 56.892896 382.275758 
L 295.66961 432.550816 
L 405.288701 338.161421 
L 181.995179 296.212619 
" style="fill: #ececec; opacity: 0.5; stroke: #ececec; stroke-linejoin: miter"/>
   </g>
  </g>
  <g id="grid3d_1">
   <g id="Line3DCollection_1">
    <path d="M 76.567323 386.41826 
L 200.464475 299.682334 
L 199.224496 65.082169 
" style="fill: none; stroke: #b0b0b0; stroke-width: 0.8"/>
    <path d="M 120.534637 395.675692 
L 241.692639 307.427619 
L 241.937011 71.092715 
" style="fill: none; stroke: #b0b0b0; stroke-width: 0.8"/>
    <path d="M 165.306618 405.102549 
L 283.610162 315.302411 
L 285.389827 77.207437 
" style="fill: none; stroke: #b0b0b0; stroke-width: 0.8"/>
    <path d="M 210.905558 414.703525 
L 326.234481 323.309983 
L 329.602358 83.429066 
" style="fill: none; stroke: #b0b0b0; stroke-width: 0.8"/>
    <path d="M 257.354583 424.483488 
L 369.583622 331.453724 
L 374.594703 89.760432 
" style="fill: none; stroke: #b0b0b0; stroke-width: 0.8"/>
   </g>
  </g>
  <g id="grid3d_2">
   <g id="Line3DCollection_2">
    <path d="M 57.031672 125.695092 
L 63.721345 377.57818 
L 301.67661 427.378386 
" style="fill: none; stroke: #b0b0b0; stroke-width: 0.8"/>
    <path d="M 83.400684 112.131135 
L 89.000995 360.187242 
L 323.891307 408.250041 
" style="fill: none; stroke: #b0b0b0; stroke-width: 0.8"/>
    <path d="M 108.8452 99.042729 
L 113.426541 343.383879 
L 345.319829 389.798645 
" style="fill: none; stroke: #b0b0b0; stroke-width: 0.8"/>
    <path d="M 133.413003 86.405297 
L 137.040548 327.138806 
L 366.003183 371.988889 
" style="fill: none; stroke: #b0b0b0; stroke-width: 0.8"/>
    <path d="M 157.148636 74.195923 
L 159.882802 311.424656 
L 385.979576 354.787874 
" style="fill: none; stroke: #b0b0b0; stroke-width: 0.8"/>
    <path d="M 180.093677 62.393223 
L 181.990528 296.215819 
L 405.284643 338.164916 
" style="fill: none; stroke: #b0b0b0; stroke-width: 0.8"/>
   </g>
  </g>
  <g id="grid3d_3">
   <g id="Line3DCollection_3">
    <path d="M 406.410802 295.429364 
L 181.661452 255.07077 
L 55.666337 337.896148 
" style="fill: none; stroke: #b0b0b0; stroke-width: 0.8"/>
    <path d="M 407.603657 250.002799 
L 181.306888 211.360304 
L 54.361632 290.689043 
" style="fill: none; stroke: #b0b0b0; stroke-width: 0.8"/>
    <path d="M 408.813226 203.939725 
L 180.947576 167.064313 
L 53.037799 242.789833 
" style="fill: none; stroke: #b0b0b0; stroke-width: 0.8"/>
    <path d="M 410.039863 157.226672 
L 180.583417 122.170952 
L 51.694414 194.183184 
" style="fill: none; stroke: #b0b0b0; stroke-width: 0.8"/>
    <path d="M 411.283932 109.849783 
L 180.214314 76.668055 
L 50.33104 144.853307 
" style="fill: none; stroke: #b0b0b0; stroke-width: 0.8"/>
   </g>
  </g>
  <g id="axis3d_1">
   <g id="line2d_1">
    <path d="M 56.892896 382.275758 
L 295.66961 432.550816 
" style="fill: none; stroke: #000000; stroke-width: 0.8; stroke-linecap: square"/>
   </g>
   <g id="xtick_1">
    <g id="line2d_2">
     <path d="M 234.953514 238.084611 
" clip-path="url(#p6b462a4019)" style="fill: none; stroke: #b0b0b0; stroke-opacity: 0.15; stroke-width: 0.8; stroke-linecap: square"/>
    </g>
    <g id="line2d_3">
     <path d="M 77.649724 385.66051 
L 74.39769 387.937141 
" style="fill: none; stroke: #000000; stroke-width: 0.8; stroke-linecap: square"/>
    </g>
    <g id="text_1">
     <!-- −60 -->
     <g transform="translate(59.555654 410.937996) scale(0.1 -0.1)">
      <defs>
       <path id="DejaVuSans-c9c" d="M 678 2272 
L 4684 2272 
L 4684 1741 
L 678 1741 
L 678 2272 
z
" transform="scale(0.015625)"/>
       <path id="DejaVuSans-19" d="M 2113 2584 
Q 1688 2584 1439 2293 
Q 1191 2003 1191 1497 
Q 1191 994 1439 701 
Q 1688 409 2113 409 
Q 2538 409 2786 701 
Q 3034 994 3034 1497 
Q 3034 2003 2786 2293 
Q 2538 2584 2113 2584 
z
M 3366 4563 
L 3366 3988 
Q 3128 4100 2886 4159 
Q 2644 4219 2406 4219 
Q 1781 4219 1451 3797 
Q 1122 3375 1075 2522 
Q 1259 2794 1537 2939 
Q 1816 3084 2150 3084 
Q 2853 3084 3261 2657 
Q 3669 2231 3669 1497 
Q 3669 778 3244 343 
Q 2819 -91 2113 -91 
Q 1303 -91 875 529 
Q 447 1150 447 2328 
Q 447 3434 972 4092 
Q 1497 4750 2381 4750 
Q 2619 4750 2861 4703 
Q 3103 4656 3366 4563 
z
" transform="scale(0.015625)"/>
       <path id="DejaVuSans-13" d="M 2034 4250 
Q 1547 4250 1301 3770 
Q 1056 3291 1056 2328 
Q 1056 1369 1301 889 
Q 1547 409 2034 409 
Q 2525 409 2770 889 
Q 3016 1369 3016 2328 
Q 3016 3291 2770 3770 
Q 2525 4250 2034 4250 
z
M 2034 4750 
Q 2819 4750 3233 4129 
Q 3647 3509 3647 2328 
Q 3647 1150 3233 529 
Q 2819 -91 2034 -91 
Q 1250 -91 836 529 
Q 422 1150 422 2328 
Q 422 3509 836 4129 
Q 1250 4750 2034 4750 
z
" transform="scale(0.015625)"/>
      </defs>
      <use xlink:href="#DejaVuSans-c9c"/>
      <use xlink:href="#DejaVuSans-19" transform="translate(83.796875 0)"/>
      <use xlink:href="#DejaVuSans-13" transform="translate(147.421875 0)"/>
     </g>
    </g>
   </g>
   <g id="xtick_2">
    <g id="line2d_4">
     <path d="M 234.953514 238.084611 
" clip-path="url(#p6b462a4019)" style="fill: none; stroke: #b0b0b0; stroke-opacity: 0.15; stroke-width: 0.8; stroke-linecap: square"/>
    </g>
    <g id="line2d_5">
     <path d="M 121.593917 394.904143 
L 118.411308 397.222265 
" style="fill: none; stroke: #000000; stroke-width: 0.8; stroke-linecap: square"/>
    </g>
    <g id="text_2">
     <!-- −40 -->
     <g transform="translate(103.58587 420.374909) scale(0.1 -0.1)">
      <defs>
       <path id="DejaVuSans-17" d="M 2419 4116 
L 825 1625 
L 2419 1625 
L 2419 4116 
z
M 2253 4666 
L 3047 4666 
L 3047 1625 
L 3713 1625 
L 3713 1100 
L 3047 1100 
L 3047 0 
L 2419 0 
L 2419 1100 
L 313 1100 
L 313 1709 
L 2253 4666 
z
" transform="scale(0.015625)"/>
      </defs>
      <use xlink:href="#DejaVuSans-c9c"/>
      <use xlink:href="#DejaVuSans-17" transform="translate(83.796875 0)"/>
      <use xlink:href="#DejaVuSans-13" transform="translate(147.421875 0)"/>
     </g>
    </g>
   </g>
   <g id="xtick_3">
    <g id="line2d_6">
     <path d="M 234.953514 238.084611 
" clip-path="url(#p6b462a4019)" style="fill: none; stroke: #b0b0b0; stroke-opacity: 0.15; stroke-width: 0.8; stroke-linecap: square"/>
    </g>
    <g id="line2d_7">
     <path d="M 166.341744 404.31682 
L 163.23166 406.677578 
" style="fill: none; stroke: #000000; stroke-width: 0.8; stroke-linecap: square"/>
    </g>
    <g id="text_3">
     <!-- −20 -->
     <g transform="translate(148.424154 429.985014) scale(0.1 -0.1)">
      <defs>
       <path id="DejaVuSans-15" d="M 1228 531 
L 3431 531 
L 3431 0 
L 469 0 
L 469 531 
Q 828 903 1448 1529 
Q 2069 2156 2228 2338 
Q 2531 2678 2651 2914 
Q 2772 3150 2772 3378 
Q 2772 3750 2511 3984 
Q 2250 4219 1831 4219 
Q 1534 4219 1204 4116 
Q 875 4013 500 3803 
L 500 4441 
Q 881 4594 1212 4672 
Q 1544 4750 1819 4750 
Q 2544 4750 2975 4387 
Q 3406 4025 3406 3419 
Q 3406 3131 3298 2873 
Q 3191 2616 2906 2266 
Q 2828 2175 2409 1742 
Q 1991 1309 1228 531 
z
" transform="scale(0.015625)"/>
      </defs>
      <use xlink:href="#DejaVuSans-c9c"/>
      <use xlink:href="#DejaVuSans-15" transform="translate(83.796875 0)"/>
      <use xlink:href="#DejaVuSans-13" transform="translate(147.421875 0)"/>
     </g>
    </g>
   </g>
   <g id="xtick_4">
    <g id="line2d_8">
     <path d="M 234.953514 238.084611 
" clip-path="url(#p6b462a4019)" style="fill: none; stroke: #b0b0b0; stroke-opacity: 0.15; stroke-width: 0.8; stroke-linecap: square"/>
    </g>
    <g id="line2d_9">
     <path d="M 211.915455 413.903222 
L 208.881131 416.307802 
" style="fill: none; stroke: #000000; stroke-width: 0.8; stroke-linecap: square"/>
    </g>
    <g id="text_4">
     <!-- 0 -->
     <g transform="translate(201.46405 439.773122) scale(0.1 -0.1)">
      <use xlink:href="#DejaVuSans-13"/>
     </g>
    </g>
   </g>
   <g id="xtick_5">
    <g id="line2d_10">
     <path d="M 234.953514 238.084611 
" clip-path="url(#p6b462a4019)" style="fill: none; stroke: #b0b0b0; stroke-opacity: 0.15; stroke-width: 0.8; stroke-linecap: square"/>
    </g>
    <g id="line2d_11">
     <path d="M 258.338127 423.668201 
L 255.382942 426.117836 
" style="fill: none; stroke: #000000; stroke-width: 0.8; stroke-linecap: square"/>
    </g>
    <g id="text_5">
     <!-- 20 -->
     <g transform="translate(244.805411 449.744225) scale(0.1 -0.1)">
      <use xlink:href="#DejaVuSans-15"/>
      <use xlink:href="#DejaVuSans-13" transform="translate(63.625 0)"/>
     </g>
    </g>
   </g>
   <g id="text_6">
    <!-- Anatomical X: crown -->
    <g transform="translate(108.755716 436.523791) rotate(-348.1099) scale(0.1 -0.1)">
     <defs>
      <path id="DejaVuSans-24" d="M 2188 4044 
L 1331 1722 
L 3047 1722 
L 2188 4044 
z
M 1831 4666 
L 2547 4666 
L 4325 0 
L 3669 0 
L 3244 1197 
L 1141 1197 
L 716 0 
L 50 0 
L 1831 4666 
z
" transform="scale(0.015625)"/>
      <path id="DejaVuSans-51" d="M 3513 2113 
L 3513 0 
L 2938 0 
L 2938 2094 
Q 2938 2591 2744 2837 
Q 2550 3084 2163 3084 
Q 1697 3084 1428 2787 
Q 1159 2491 1159 1978 
L 1159 0 
L 581 0 
L 581 3500 
L 1159 3500 
L 1159 2956 
Q 1366 3272 1645 3428 
Q 1925 3584 2291 3584 
Q 2894 3584 3203 3211 
Q 3513 2838 3513 2113 
z
" transform="scale(0.015625)"/>
      <path id="DejaVuSans-44" d="M 2194 1759 
Q 1497 1759 1228 1600 
Q 959 1441 959 1056 
Q 959 750 1161 570 
Q 1363 391 1709 391 
Q 2188 391 2477 730 
Q 2766 1069 2766 1631 
L 2766 1759 
L 2194 1759 
z
M 3341 1997 
L 3341 0 
L 2766 0 
L 2766 531 
Q 2569 213 2275 61 
Q 1981 -91 1556 -91 
Q 1019 -91 701 211 
Q 384 513 384 1019 
Q 384 1609 779 1909 
Q 1175 2209 1959 2209 
L 2766 2209 
L 2766 2266 
Q 2766 2663 2505 2880 
Q 2244 3097 1772 3097 
Q 1472 3097 1187 3025 
Q 903 2953 641 2809 
L 641 3341 
Q 956 3463 1253 3523 
Q 1550 3584 1831 3584 
Q 2591 3584 2966 3190 
Q 3341 2797 3341 1997 
z
" transform="scale(0.015625)"/>
      <path id="DejaVuSans-57" d="M 1172 4494 
L 1172 3500 
L 2356 3500 
L 2356 3053 
L 1172 3053 
L 1172 1153 
Q 1172 725 1289 603 
Q 1406 481 1766 481 
L 2356 481 
L 2356 0 
L 1766 0 
Q 1100 0 847 248 
Q 594 497 594 1153 
L 594 3053 
L 172 3053 
L 172 3500 
L 594 3500 
L 594 4494 
L 1172 4494 
z
" transform="scale(0.015625)"/>
      <path id="DejaVuSans-52" d="M 1959 3097 
Q 1497 3097 1228 2736 
Q 959 2375 959 1747 
Q 959 1119 1226 758 
Q 1494 397 1959 397 
Q 2419 397 2687 759 
Q 2956 1122 2956 1747 
Q 2956 2369 2687 2733 
Q 2419 3097 1959 3097 
z
M 1959 3584 
Q 2709 3584 3137 3096 
Q 3566 2609 3566 1747 
Q 3566 888 3137 398 
Q 2709 -91 1959 -91 
Q 1206 -91 779 398 
Q 353 888 353 1747 
Q 353 2609 779 3096 
Q 1206 3584 1959 3584 
z
" transform="scale(0.015625)"/>
      <path id="DejaVuSans-50" d="M 3328 2828 
Q 3544 3216 3844 3400 
Q 4144 3584 4550 3584 
Q 5097 3584 5394 3201 
Q 5691 2819 5691 2113 
L 5691 0 
L 5113 0 
L 5113 2094 
Q 5113 2597 4934 2840 
Q 4756 3084 4391 3084 
Q 3944 3084 3684 2787 
Q 3425 2491 3425 1978 
L 3425 0 
L 2847 0 
L 2847 2094 
Q 2847 2600 2669 2842 
Q 2491 3084 2119 3084 
Q 1678 3084 1418 2786 
Q 1159 2488 1159 1978 
L 1159 0 
L 581 0 
L 581 3500 
L 1159 3500 
L 1159 2956 
Q 1356 3278 1631 3431 
Q 1906 3584 2284 3584 
Q 2666 3584 2933 3390 
Q 3200 3197 3328 2828 
z
" transform="scale(0.015625)"/>
      <path id="DejaVuSans-4c" d="M 603 3500 
L 1178 3500 
L 1178 0 
L 603 0 
L 603 3500 
z
M 603 4863 
L 1178 4863 
L 1178 4134 
L 603 4134 
L 603 4863 
z
" transform="scale(0.015625)"/>
      <path id="DejaVuSans-46" d="M 3122 3366 
L 3122 2828 
Q 2878 2963 2633 3030 
Q 2388 3097 2138 3097 
Q 1578 3097 1268 2742 
Q 959 2388 959 1747 
Q 959 1106 1268 751 
Q 1578 397 2138 397 
Q 2388 397 2633 464 
Q 2878 531 3122 666 
L 3122 134 
Q 2881 22 2623 -34 
Q 2366 -91 2075 -91 
Q 1284 -91 818 406 
Q 353 903 353 1747 
Q 353 2603 823 3093 
Q 1294 3584 2113 3584 
Q 2378 3584 2631 3529 
Q 2884 3475 3122 3366 
z
" transform="scale(0.015625)"/>
      <path id="DejaVuSans-4f" d="M 603 4863 
L 1178 4863 
L 1178 0 
L 603 0 
L 603 4863 
z
" transform="scale(0.015625)"/>
      <path id="DejaVuSans-3" transform="scale(0.015625)"/>
      <path id="DejaVuSans-3b" d="M 403 4666 
L 1081 4666 
L 2241 2931 
L 3406 4666 
L 4084 4666 
L 2584 2425 
L 4184 0 
L 3506 0 
L 2194 1984 
L 872 0 
L 191 0 
L 1856 2491 
L 403 4666 
z
" transform="scale(0.015625)"/>
      <path id="DejaVuSans-1d" d="M 750 794 
L 1409 794 
L 1409 0 
L 750 0 
L 750 794 
z
M 750 3309 
L 1409 3309 
L 1409 2516 
L 750 2516 
L 750 3309 
z
" transform="scale(0.015625)"/>
      <path id="DejaVuSans-55" d="M 2631 2963 
Q 2534 3019 2420 3045 
Q 2306 3072 2169 3072 
Q 1681 3072 1420 2755 
Q 1159 2438 1159 1844 
L 1159 0 
L 581 0 
L 581 3500 
L 1159 3500 
L 1159 2956 
Q 1341 3275 1631 3429 
Q 1922 3584 2338 3584 
Q 2397 3584 2469 3576 
Q 2541 3569 2628 3553 
L 2631 2963 
z
" transform="scale(0.015625)"/>
      <path id="DejaVuSans-5a" d="M 269 3500 
L 844 3500 
L 1563 769 
L 2278 3500 
L 2956 3500 
L 3675 769 
L 4391 3500 
L 4966 3500 
L 4050 0 
L 3372 0 
L 2619 2869 
L 1863 0 
L 1184 0 
L 269 3500 
z
" transform="scale(0.015625)"/>
     </defs>
     <use xlink:href="#DejaVuSans-24"/>
     <use xlink:href="#DejaVuSans-51" transform="translate(68.40625 0)"/>
     <use xlink:href="#DejaVuSans-44" transform="translate(131.78125 0)"/>
     <use xlink:href="#DejaVuSans-57" transform="translate(193.0625 0)"/>
     <use xlink:href="#DejaVuSans-52" transform="translate(232.265625 0)"/>
     <use xlink:href="#DejaVuSans-50" transform="translate(293.453125 0)"/>
     <use xlink:href="#DejaVuSans-4c" transform="translate(390.859375 0)"/>
     <use xlink:href="#DejaVuSans-46" transform="translate(418.640625 0)"/>
     <use xlink:href="#DejaVuSans-44" transform="translate(473.625 0)"/>
     <use xlink:href="#DejaVuSans-4f" transform="translate(534.90625 0)"/>
     <use xlink:href="#DejaVuSans-3" transform="translate(562.6875 0)"/>
     <use xlink:href="#DejaVuSans-3b" transform="translate(594.46875 0)"/>
     <use xlink:href="#DejaVuSans-1d" transform="translate(662.96875 0)"/>
     <use xlink:href="#DejaVuSans-3" transform="translate(696.65625 0)"/>
     <use xlink:href="#DejaVuSans-46" transform="translate(728.4375 0)"/>
     <use xlink:href="#DejaVuSans-55" transform="translate(783.421875 0)"/>
     <use xlink:href="#DejaVuSans-52" transform="translate(822.328125 0)"/>
     <use xlink:href="#DejaVuSans-5a" transform="translate(883.515625 0)"/>
     <use xlink:href="#DejaVuSans-51" transform="translate(965.296875 0)"/>
    </g>
   </g>
  </g>
  <g id="axis3d_2">
   <g id="line2d_12">
    <path d="M 405.288701 338.161421 
L 295.66961 432.550816 
" style="fill: none; stroke: #000000; stroke-width: 0.8; stroke-linecap: square"/>
   </g>
   <g id="xtick_6">
    <g id="line2d_13">
     <path d="M 234.953514 238.084611 
" clip-path="url(#p6b462a4019)" style="fill: none; stroke: #b0b0b0; stroke-opacity: 0.15; stroke-width: 0.8; stroke-linecap: square"/>
    </g>
    <g id="line2d_14">
     <path d="M 299.680083 426.960545 
L 305.674382 428.215056 
" style="fill: none; stroke: #000000; stroke-width: 0.8; stroke-linecap: square"/>
    </g>
    <g id="text_7">
     <!-- −40 -->
     <g transform="translate(303.428368 450.148815) scale(0.1 -0.1)">
      <use xlink:href="#DejaVuSans-c9c"/>
      <use xlink:href="#DejaVuSans-17" transform="translate(83.796875 0)"/>
      <use xlink:href="#DejaVuSans-13" transform="translate(147.421875 0)"/>
     </g>
    </g>
   </g>
   <g id="xtick_7">
    <g id="line2d_15">
     <path d="M 234.953514 238.084611 
" clip-path="url(#p6b462a4019)" style="fill: none; stroke: #b0b0b0; stroke-opacity: 0.15; stroke-width: 0.8; stroke-linecap: square"/>
    </g>
    <g id="line2d_16">
     <path d="M 321.922147 407.847115 
L 327.834197 409.056827 
" style="fill: none; stroke: #000000; stroke-width: 0.8; stroke-linecap: square"/>
    </g>
    <g id="text_8">
     <!-- −20 -->
     <g transform="translate(325.431918 430.737893) scale(0.1 -0.1)">
      <use xlink:href="#DejaVuSans-c9c"/>
      <use xlink:href="#DejaVuSans-15" transform="translate(83.796875 0)"/>
      <use xlink:href="#DejaVuSans-13" transform="translate(147.421875 0)"/>
     </g>
    </g>
   </g>
   <g id="xtick_8">
    <g id="line2d_17">
     <path d="M 234.953514 238.084611 
" clip-path="url(#p6b462a4019)" style="fill: none; stroke: #b0b0b0; stroke-opacity: 0.15; stroke-width: 0.8; stroke-linecap: square"/>
    </g>
    <g id="line2d_18">
     <path d="M 343.377366 389.40985 
L 349.209182 390.577122 
" style="fill: none; stroke: #000000; stroke-width: 0.8; stroke-linecap: square"/>
    </g>
    <g id="text_9">
     <!-- 0 -->
     <g transform="translate(354.027494 412.014244) scale(0.1 -0.1)">
      <use xlink:href="#DejaVuSans-13"/>
     </g>
    </g>
   </g>
   <g id="xtick_9">
    <g id="line2d_19">
     <path d="M 234.953514 238.084611 
" clip-path="url(#p6b462a4019)" style="fill: none; stroke: #b0b0b0; stroke-opacity: 0.15; stroke-width: 0.8; stroke-linecap: square"/>
    </g>
    <g id="line2d_20">
     <path d="M 364.086768 371.613494 
L 369.840307 372.740519 
" style="fill: none; stroke: #000000; stroke-width: 0.8; stroke-linecap: square"/>
    </g>
    <g id="text_10">
     <!-- 20 -->
     <g transform="translate(371.332314 393.942001) scale(0.1 -0.1)">
      <use xlink:href="#DejaVuSans-15"/>
      <use xlink:href="#DejaVuSans-13" transform="translate(63.625 0)"/>
     </g>
    </g>
   </g>
   <g id="xtick_10">
    <g id="line2d_21">
     <path d="M 234.953514 238.084611 
" clip-path="url(#p6b462a4019)" style="fill: none; stroke: #b0b0b0; stroke-opacity: 0.15; stroke-width: 0.8; stroke-linecap: square"/>
    </g>
    <g id="line2d_22">
     <path d="M 384.088577 354.425199 
L 389.765737 355.514024 
" style="fill: none; stroke: #000000; stroke-width: 0.8; stroke-linecap: square"/>
    </g>
    <g id="text_11">
     <!-- 40 -->
     <g transform="translate(391.117849 376.487751) scale(0.1 -0.1)">
      <use xlink:href="#DejaVuSans-17"/>
      <use xlink:href="#DejaVuSans-13" transform="translate(63.625 0)"/>
     </g>
    </g>
   </g>
   <g id="xtick_11">
    <g id="line2d_23">
     <path d="M 234.953514 238.084611 
" clip-path="url(#p6b462a4019)" style="fill: none; stroke: #b0b0b0; stroke-opacity: 0.15; stroke-width: 0.8; stroke-linecap: square"/>
    </g>
    <g id="line2d_24">
     <path d="M 403.418449 337.814324 
L 409.021072 338.866859 
" style="fill: none; stroke: #000000; stroke-width: 0.8; stroke-linecap: square"/>
    </g>
    <g id="text_12">
     <!-- 60 -->
     <g transform="translate(410.238176 359.620329) scale(0.1 -0.1)">
      <use xlink:href="#DejaVuSans-19"/>
      <use xlink:href="#DejaVuSans-13" transform="translate(63.625 0)"/>
     </g>
    </g>
   </g>
   <g id="text_13">
    <!-- Anatomical Y -->
    <g transform="translate(355.572591 438.111268) rotate(-40.730659) scale(0.1 -0.1)">
     <defs>
      <path id="DejaVuSans-3c" d="M -13 4666 
L 666 4666 
L 1959 2747 
L 3244 4666 
L 3922 4666 
L 2272 2222 
L 2272 0 
L 1638 0 
L 1638 2222 
L -13 4666 
z
" transform="scale(0.015625)"/>
     </defs>
     <use xlink:href="#DejaVuSans-24"/>
     <use xlink:href="#DejaVuSans-51" transform="translate(68.40625 0)"/>
     <use xlink:href="#DejaVuSans-44" transform="translate(131.78125 0)"/>
     <use xlink:href="#DejaVuSans-57" transform="translate(193.0625 0)"/>
     <use xlink:href="#DejaVuSans-52" transform="translate(232.265625 0)"/>
     <use xlink:href="#DejaVuSans-50" transform="translate(293.453125 0)"/>
     <use xlink:href="#DejaVuSans-4c" transform="translate(390.859375 0)"/>
     <use xlink:href="#DejaVuSans-46" transform="translate(418.640625 0)"/>
     <use xlink:href="#DejaVuSans-44" transform="translate(473.625 0)"/>
     <use xlink:href="#DejaVuSans-4f" transform="translate(534.90625 0)"/>
     <use xlink:href="#DejaVuSans-3" transform="translate(562.6875 0)"/>
     <use xlink:href="#DejaVuSans-3c" transform="translate(594.46875 0)"/>
    </g>
   </g>
  </g>
  <g id="axis3d_3">
   <g id="line2d_25">
    <path d="M 405.288701 338.161421 
L 411.674441 94.978328 
" style="fill: none; stroke: #000000; stroke-width: 0.8; stroke-linecap: square"/>
   </g>
   <g id="xtick_12">
    <g id="line2d_26">
     <path d="M 234.953514 238.084611 
" style="fill: none; stroke: #b0b0b0; stroke-opacity: 0.15; stroke-width: 0.8; stroke-linecap: square"/>
    </g>
    <g id="line2d_27">
     <path d="M 404.531916 295.09197 
L 410.172667 296.104888 
" style="fill: none; stroke: #000000; stroke-width: 0.8; stroke-linecap: square"/>
    </g>
    <g id="text_14">
     <!-- −80 -->
     <g transform="translate(412.52096 301.009589) scale(0.1 -0.1)">
      <defs>
       <path id="DejaVuSans-1b" d="M 2034 2216 
Q 1584 2216 1326 1975 
Q 1069 1734 1069 1313 
Q 1069 891 1326 650 
Q 1584 409 2034 409 
Q 2484 409 2743 651 
Q 3003 894 3003 1313 
Q 3003 1734 2745 1975 
Q 2488 2216 2034 2216 
z
M 1403 2484 
Q 997 2584 770 2862 
Q 544 3141 544 3541 
Q 544 4100 942 4425 
Q 1341 4750 2034 4750 
Q 2731 4750 3128 4425 
Q 3525 4100 3525 3541 
Q 3525 3141 3298 2862 
Q 3072 2584 2669 2484 
Q 3125 2378 3379 2068 
Q 3634 1759 3634 1313 
Q 3634 634 3220 271 
Q 2806 -91 2034 -91 
Q 1263 -91 848 271 
Q 434 634 434 1313 
Q 434 1759 690 2068 
Q 947 2378 1403 2484 
z
M 1172 3481 
Q 1172 3119 1398 2916 
Q 1625 2713 2034 2713 
Q 2441 2713 2670 2916 
Q 2900 3119 2900 3481 
Q 2900 3844 2670 4047 
Q 2441 4250 2034 4250 
Q 1625 4250 1398 4047 
Q 1172 3844 1172 3481 
z
" transform="scale(0.015625)"/>
      </defs>
      <use xlink:href="#DejaVuSans-c9c"/>
      <use xlink:href="#DejaVuSans-1b" transform="translate(83.796875 0)"/>
      <use xlink:href="#DejaVuSans-13" transform="translate(147.421875 0)"/>
     </g>
    </g>
   </g>
   <g id="xtick_13">
    <g id="line2d_28">
     <path d="M 234.953514 238.084611 
" style="fill: none; stroke: #b0b0b0; stroke-opacity: 0.15; stroke-width: 0.8; stroke-linecap: square"/>
    </g>
    <g id="line2d_29">
     <path d="M 405.711269 249.679654 
L 411.392586 250.649797 
" style="fill: none; stroke: #000000; stroke-width: 0.8; stroke-linecap: square"/>
    </g>
    <g id="text_15">
     <!-- −60 -->
     <g transform="translate(413.82688 255.668253) scale(0.1 -0.1)">
      <use xlink:href="#DejaVuSans-c9c"/>
      <use xlink:href="#DejaVuSans-19" transform="translate(83.796875 0)"/>
      <use xlink:href="#DejaVuSans-13" transform="translate(147.421875 0)"/>
     </g>
    </g>
   </g>
   <g id="xtick_14">
    <g id="line2d_30">
     <path d="M 234.953514 238.084611 
" style="fill: none; stroke: #b0b0b0; stroke-opacity: 0.15; stroke-width: 0.8; stroke-linecap: square"/>
    </g>
    <g id="line2d_31">
     <path d="M 406.90714 203.631264 
L 412.629611 204.557329 
" style="fill: none; stroke: #000000; stroke-width: 0.8; stroke-linecap: square"/>
    </g>
    <g id="text_16">
     <!-- −40 -->
     <g transform="translate(415.151057 209.693002) scale(0.1 -0.1)">
      <use xlink:href="#DejaVuSans-c9c"/>
      <use xlink:href="#DejaVuSans-17" transform="translate(83.796875 0)"/>
      <use xlink:href="#DejaVuSans-13" transform="translate(147.421875 0)"/>
     </g>
    </g>
   </g>
   <g id="xtick_15">
    <g id="line2d_32">
     <path d="M 234.953514 238.084611 
" style="fill: none; stroke: #b0b0b0; stroke-opacity: 0.15; stroke-width: 0.8; stroke-linecap: square"/>
    </g>
    <g id="line2d_33">
     <path d="M 408.11988 156.933342 
L 413.884104 157.813984 
" style="fill: none; stroke: #000000; stroke-width: 0.8; stroke-linecap: square"/>
    </g>
    <g id="text_17">
     <!-- −20 -->
     <g transform="translate(416.493879 163.070446) scale(0.1 -0.1)">
      <use xlink:href="#DejaVuSans-c9c"/>
      <use xlink:href="#DejaVuSans-15" transform="translate(83.796875 0)"/>
      <use xlink:href="#DejaVuSans-13" transform="translate(147.421875 0)"/>
     </g>
    </g>
   </g>
   <g id="xtick_16">
    <g id="line2d_34">
     <path d="M 234.953514 238.084611 
" style="fill: none; stroke: #b0b0b0; stroke-opacity: 0.15; stroke-width: 0.8; stroke-linecap: square"/>
    </g>
    <g id="line2d_35">
     <path d="M 409.349847 109.572048 
L 415.156437 110.405877 
" style="fill: none; stroke: #000000; stroke-width: 0.8; stroke-linecap: square"/>
    </g>
    <g id="text_18">
     <!-- 0 -->
     <g transform="translate(425.226834 115.78682) scale(0.1 -0.1)">
      <use xlink:href="#DejaVuSans-13"/>
     </g>
    </g>
   </g>
   <g id="text_19">
    <!-- Anatomical Z: superior (+) -->
    <g transform="translate(445.812683 281.47727) rotate(-88.495817) scale(0.1 -0.1)">
     <defs>
      <path id="DejaVuSans-3d" d="M 359 4666 
L 4025 4666 
L 4025 4184 
L 1075 531 
L 4097 531 
L 4097 0 
L 288 0 
L 288 481 
L 3238 4134 
L 359 4134 
L 359 4666 
z
" transform="scale(0.015625)"/>
      <path id="DejaVuSans-56" d="M 2834 3397 
L 2834 2853 
Q 2591 2978 2328 3040 
Q 2066 3103 1784 3103 
Q 1356 3103 1142 2972 
Q 928 2841 928 2578 
Q 928 2378 1081 2264 
Q 1234 2150 1697 2047 
L 1894 2003 
Q 2506 1872 2764 1633 
Q 3022 1394 3022 966 
Q 3022 478 2636 193 
Q 2250 -91 1575 -91 
Q 1294 -91 989 -36 
Q 684 19 347 128 
L 347 722 
Q 666 556 975 473 
Q 1284 391 1588 391 
Q 1994 391 2212 530 
Q 2431 669 2431 922 
Q 2431 1156 2273 1281 
Q 2116 1406 1581 1522 
L 1381 1569 
Q 847 1681 609 1914 
Q 372 2147 372 2553 
Q 372 3047 722 3315 
Q 1072 3584 1716 3584 
Q 2034 3584 2315 3537 
Q 2597 3491 2834 3397 
z
" transform="scale(0.015625)"/>
      <path id="DejaVuSans-58" d="M 544 1381 
L 544 3500 
L 1119 3500 
L 1119 1403 
Q 1119 906 1312 657 
Q 1506 409 1894 409 
Q 2359 409 2629 706 
Q 2900 1003 2900 1516 
L 2900 3500 
L 3475 3500 
L 3475 0 
L 2900 0 
L 2900 538 
Q 2691 219 2414 64 
Q 2138 -91 1772 -91 
Q 1169 -91 856 284 
Q 544 659 544 1381 
z
M 1991 3584 
L 1991 3584 
z
" transform="scale(0.015625)"/>
      <path id="DejaVuSans-53" d="M 1159 525 
L 1159 -1331 
L 581 -1331 
L 581 3500 
L 1159 3500 
L 1159 2969 
Q 1341 3281 1617 3432 
Q 1894 3584 2278 3584 
Q 2916 3584 3314 3078 
Q 3713 2572 3713 1747 
Q 3713 922 3314 415 
Q 2916 -91 2278 -91 
Q 1894 -91 1617 61 
Q 1341 213 1159 525 
z
M 3116 1747 
Q 3116 2381 2855 2742 
Q 2594 3103 2138 3103 
Q 1681 3103 1420 2742 
Q 1159 2381 1159 1747 
Q 1159 1113 1420 752 
Q 1681 391 2138 391 
Q 2594 391 2855 752 
Q 3116 1113 3116 1747 
z
" transform="scale(0.015625)"/>
      <path id="DejaVuSans-48" d="M 3597 1894 
L 3597 1613 
L 953 1613 
Q 991 1019 1311 708 
Q 1631 397 2203 397 
Q 2534 397 2845 478 
Q 3156 559 3463 722 
L 3463 178 
Q 3153 47 2828 -22 
Q 2503 -91 2169 -91 
Q 1331 -91 842 396 
Q 353 884 353 1716 
Q 353 2575 817 3079 
Q 1281 3584 2069 3584 
Q 2775 3584 3186 3129 
Q 3597 2675 3597 1894 
z
M 3022 2063 
Q 3016 2534 2758 2815 
Q 2500 3097 2075 3097 
Q 1594 3097 1305 2825 
Q 1016 2553 972 2059 
L 3022 2063 
z
" transform="scale(0.015625)"/>
      <path id="DejaVuSans-b" d="M 1984 4856 
Q 1566 4138 1362 3434 
Q 1159 2731 1159 2009 
Q 1159 1288 1364 580 
Q 1569 -128 1984 -844 
L 1484 -844 
Q 1016 -109 783 600 
Q 550 1309 550 2009 
Q 550 2706 781 3412 
Q 1013 4119 1484 4856 
L 1984 4856 
z
" transform="scale(0.015625)"/>
      <path id="DejaVuSans-e" d="M 2944 4013 
L 2944 2272 
L 4684 2272 
L 4684 1741 
L 2944 1741 
L 2944 0 
L 2419 0 
L 2419 1741 
L 678 1741 
L 678 2272 
L 2419 2272 
L 2419 4013 
L 2944 4013 
z
" transform="scale(0.015625)"/>
      <path id="DejaVuSans-c" d="M 513 4856 
L 1013 4856 
Q 1481 4119 1714 3412 
Q 1947 2706 1947 2009 
Q 1947 1309 1714 600 
Q 1481 -109 1013 -844 
L 513 -844 
Q 928 -128 1133 580 
Q 1338 1288 1338 2009 
Q 1338 2731 1133 3434 
Q 928 4138 513 4856 
z
" transform="scale(0.015625)"/>
     </defs>
     <use xlink:href="#DejaVuSans-24"/>
     <use xlink:href="#DejaVuSans-51" transform="translate(68.40625 0)"/>
     <use xlink:href="#DejaVuSans-44" transform="translate(131.78125 0)"/>
     <use xlink:href="#DejaVuSans-57" transform="translate(193.0625 0)"/>
     <use xlink:href="#DejaVuSans-52" transform="translate(232.265625 0)"/>
     <use xlink:href="#DejaVuSans-50" transform="translate(293.453125 0)"/>
     <use xlink:href="#DejaVuSans-4c" transform="translate(390.859375 0)"/>
     <use xlink:href="#DejaVuSans-46" transform="translate(418.640625 0)"/>
     <use xlink:href="#DejaVuSans-44" transform="translate(473.625 0)"/>
     <use xlink:href="#DejaVuSans-4f" transform="translate(534.90625 0)"/>
     <use xlink:href="#DejaVuSans-3" transform="translate(562.6875 0)"/>
     <use xlink:href="#DejaVuSans-3d" transform="translate(594.46875 0)"/>
     <use xlink:href="#DejaVuSans-1d" transform="translate(662.96875 0)"/>
     <use xlink:href="#DejaVuSans-3" transform="translate(696.65625 0)"/>
     <use xlink:href="#DejaVuSans-56" transform="translate(728.4375 0)"/>
     <use xlink:href="#DejaVuSans-58" transform="translate(780.53125 0)"/>
     <use xlink:href="#DejaVuSans-53" transform="translate(843.90625 0)"/>
     <use xlink:href="#DejaVuSans-48" transform="translate(907.390625 0)"/>
     <use xlink:href="#DejaVuSans-55" transform="translate(968.921875 0)"/>
     <use xlink:href="#DejaVuSans-4c" transform="translate(1010.03125 0)"/>
     <use xlink:href="#DejaVuSans-52" transform="translate(1037.8125 0)"/>
     <use xlink:href="#DejaVuSans-55" transform="translate(1099 0)"/>
     <use xlink:href="#DejaVuSans-3" transform="translate(1140.109375 0)"/>
     <use xlink:href="#DejaVuSans-b" transform="translate(1171.890625 0)"/>
     <use xlink:href="#DejaVuSans-e" transform="translate(1210.90625 0)"/>
     <use xlink:href="#DejaVuSans-c" transform="translate(1294.703125 0)"/>
    </g>
   </g>
  </g>
  <g id="axes_1">
   <g id="line2d_36">
    <path d="M 238.615255 134.6116 
L 239.732152 134.658991 
L 240.157345 134.943403 
L 241.274837 134.990849 
L 241.700589 135.275454 
L 242.818678 135.322957 
L 242.460293 134.703413 
L 243.57934 134.750886 
L 244.698645 134.798371 
L 245.818207 134.845866 
L 245.461454 134.22538 
L 246.581978 134.272846 
L 247.70276 134.320324 
L 248.8238 134.367812 
L 249.161642 133.508789 
L 249.590689 133.793839 
L 250.712952 133.841309 
L 251.142565 134.126553 
L 251.482006 133.26641 
L 251.912154 133.551726 
L 252.342527 133.837192 
L 253.4667 133.884734 
L 254.591133 133.932288 
L 255.022416 134.217993 
L 256.147451 134.265603 
L 256.579303 134.551502 
L 257.01138 134.837551 
L 257.443682 135.123749 
L 258.570009 135.171506 
L 258.220085 134.548303 
L 259.347384 134.596031 
L 259.780798 134.882499 
L 260.21444 135.169115 
L 261.430821 136.365927 
L 261.864944 136.652965 
L 262.299294 136.940153 
L 262.733871 137.227491 
L 263.168675 137.514979 
L 263.603707 137.802618 
L 263.256286 137.179635 
L 263.691746 137.467454 
L 264.127435 137.755424 
" clip-path="url(#p6b462a4019)" style="fill: none; stroke: #222222; stroke-width: 3; stroke-linecap: square"/>
   </g>
   <g id="line2d_37">
    <path d="M 264.127435 137.755424 
L 263.087221 139.870282 
L 262.3904 140.110825 
L 261.345488 142.233309 
L 260.647169 142.474627 
L 260.385082 143.006511 
L 260.821749 143.297159 
L 260.297151 144.362753 
L 260.123686 146.051519 
L 259.598007 147.120404 
L 259.424272 148.811209 
L 258.89751 149.883396 
L 258.723503 151.576243 
L 259.161115 151.870075 
L 258.89741 152.407866 
L 259.424938 153.858387 
L 259.250865 155.553212 
L 259.688977 155.848335 
L 259.425271 156.388205 
L 259.863725 156.683749 
L 259.689528 158.380832 
L 260.128232 158.677024 
L 260.656551 160.129721 
L 260.482399 161.82801 
L 261.36082 162.42262 
L 260.483605 164.368566 
L 260.309258 166.06913 
L 260.748733 166.367768 
L 260.574354 168.069329 
L 261.103482 169.524251 
L 260.92913 171.226528 
L 261.369015 171.526699 
L 262.427708 174.437744 
L 262.868108 174.738846 
L 262.519636 178.14775 
L 262.960306 178.450005 
L 262.786012 180.155708 
L 263.315874 181.612648 
L 263.141606 183.319071 
L 263.582689 183.622867 
L 263.408388 185.330292 
L 263.938548 186.788049 
L 264.380024 187.092891 
L 264.910324 188.551035 
L 264.387641 193.679129 
L 264.918177 195.13792 
L 264.569621 198.559609 
L 265.011709 198.867885 
L 264.662985 202.2926 
L 264.0464 203.69594 
L 263.697329 207.122695 
L 263.433613 207.687209 
L 263.258888 209.40214 
L 263.790272 210.863265 
L 263.173333 212.266634 
L 262.998565 213.982296 
L 262.292266 214.237081 
L 261.850364 213.924343 
L 260.702435 213.866404 
L 260.792258 215.01432 
L 260.262154 216.150455 
L 258.140721 216.91625 
L 256.907334 219.723478 
L 255.850434 220.811941 
L 255.491966 220.235098 
L 254.343697 220.17636 
L 254.167468 221.894673 
L 253.459252 222.150851 
L 252.403175 223.238898 
L 251.694864 223.495215 
L 251.518232 225.214124 
L 249.222693 225.095475 
L 248.607031 226.498172 
L 247.189156 227.011817 
L 246.573623 228.414537 
L 245.426503 228.354839 
L 244.373911 229.44009 
L 243.664681 229.697227 
L 243.049854 231.09897 
L 241.90369 231.038983 
L 241.289216 232.440237 
L 240.579675 232.697766 
L 238.2884 232.57744 
L 237.060701 235.378679 
L 236.350763 235.636559 
L 235.302458 236.718188 
L 234.158117 236.657587 
L 233.545043 238.057066 
L 232.834919 238.315221 
L 231.788456 239.395313 
L 231.175877 240.793976 
L 230.032696 240.73293 
L 229.853213 242.450955 
L 227.764357 244.606126 
L 226.622418 244.544677 
L 226.011042 245.941376 
L 224.968731 247.016959 
L 224.788721 248.733788 
L 224.177776 250.129501 
L 223.136534 251.203103 
L 221.915787 253.992226 
L 220.876053 255.063687 
L 220.26625 256.457098 
L 218.189876 258.596246 
L 217.580925 259.988014 
L 217.40018 261.703378 
L 217.073127 262.509858 
L 217.601973 263.96401 
L 216.993395 265.354454 
L 215.957494 266.419565 
L 216.058695 267.547771 
L 215.450762 268.936734 
L 215.653301 271.190359 
L 214.619248 272.25187 
L 214.720671 273.37708 
L 214.11368 274.763568 
L 214.641378 276.214566 
L 214.034467 277.60056 
L 214.237468 279.846443 
L 216.346899 285.646694 
L 216.773479 285.976026 
L 216.593145 287.690183 
L 217.447011 288.35037 
L 219.110402 289.868255 
L 220.394364 290.861166 
L 221.63091 292.049142 
L 221.351278 292.645618 
L 221.780085 292.977498 
L 222.917704 293.044426 
L 223.446379 294.498112 
L 223.875905 294.830609 
L 225.014204 294.89778 
L 225.543082 296.352022 
L 226.68171 296.419379 
L 228.349608 297.941335 
L 229.407613 300.850503 
L 230.644394 302.038508 
L 231.173318 303.492878 
L 231.270558 304.612005 
L 232.506556 305.798967 
L 233.035262 307.252738 
L 233.228626 309.48749 
L 232.893637 310.267646 
L 232.99028 311.38334 
L 231.9498 312.429341 
L 231.615879 313.207028 
L 231.712746 314.320638 
L 229.635988 316.407156 
L 229.206429 316.070119 
L 227.133703 318.153171 
L 226.705243 317.816019 
L 226.045167 319.360497 
L 225.01176 320.399009 
L 224.584584 320.061838 
L 223.650956 322.206077 
L 224.02625 322.707128 
L 223.698436 323.474886 
L 223.796815 324.57931 
L 223.469379 325.345481 
L 224.269627 326.181013 
L 225.317278 329.061715 
L 227.341106 331.067056 
L 231.440089 334.919624 
L 232.567702 334.990768 
L 233.091206 336.430236 
L 234.742707 337.9412 
L 235.266273 339.380835 
L 237.28359 341.37947 
L 237.648472 341.865971 
L 238.441245 342.693 
L 238.535443 343.788736 
L 239.262074 344.756572 
L 238.928086 345.508651 
L 238.073112 344.826446 
L 238.342178 344.21684 
L 238.009152 344.968111 
L 237.582413 344.627555 
L 237.250043 345.378025 
L 236.823834 345.037628 
L 236.160749 346.536189 
L 235.135314 347.552677 
L 234.804946 348.29998 
L 234.993952 350.473674 
L 236.032015 353.328012 
L 237.30755 354.353693 
L 237.826986 355.781974 
L 238.252742 356.124595 
L 238.585076 355.380975 
L 239.437868 356.066721 
L 240.559226 356.139852 
L 243.98203 358.890462 
L 246.057037 360.742605 
L 248.307331 360.890345 
L 251.094943 363.685439 
L 251.44909 364.155034 
L 251.109488 364.895352 
L 251.463206 365.363584 
L 251.03357 365.018203 
L 251.387011 365.485921 
L 250.265574 365.411789 
L 249.927343 366.149807 
L 248.64231 365.115204 
L 248.30536 365.852419 
L 247.450402 365.163554 
L 247.114419 365.899979 
L 246.687582 365.555802 
L 246.352255 366.291451 
L 245.235593 366.217504 
L 244.383873 365.529777 
L 244.050124 366.264594 
L 243.199898 365.577555 
L 242.867107 366.311587 
L 241.594332 365.282323 
L 241.2628 366.01556 
L 241.61991 366.478946 
L 241.884567 365.867408 
L 242.240889 366.3304 
L 242.332718 367.403886 
L 242.688418 367.865443 
L 243.375009 367.596758 
L 243.729738 368.057818 
L 244.41563 367.789321 
L 245.192235 368.591932 
L 245.877544 368.323505 
L 246.653142 369.125466 
L 248.022402 368.588827 
L 249.220077 369.732139 
L 250.327944 369.805875 
L 251.011931 369.537504 
L 251.360867 369.996276 
L 253.575821 370.143722 
L 253.922926 370.6019 
L 256.137513 370.749421 
L 256.907684 371.549039 
L 259.12257 371.69675 
L 259.891416 372.495852 
L 265.338342 370.351329 
L 266.103526 371.149737 
L 266.783138 370.882009 
L 267.035806 370.273245 
L 269.751089 369.203868 
L 270.002331 368.596361 
L 270.680363 368.3294 
L 270.9311 367.72257 
L 271.608633 367.455877 
L 271.775363 365.785252 
L 272.5359 366.583297 
L 272.785629 365.977816 
L 273.462167 365.711659 
L 273.628454 364.043085 
L 274.30468 363.777279 
L 275.546809 360.762727 
L 276.221326 360.497951 
L 276.468859 359.896664 
L 277.142883 359.632153 
L 277.142883 359.632153 
" clip-path="url(#p6b462a4019)" style="fill: none; stroke: #d62828; stroke-width: 3; stroke-linecap: square"/>
   </g>
   <g id="line2d_38">
    <path d="M 264.127435 137.755424 
L 264.910169 138.666438 
L 266.128237 139.865073 
L 267.259208 139.913535 
L 267.695754 140.202095 
L 273.003199 145.284553 
L 274.572694 149.600125 
L 273.355539 152.37735 
L 273.878583 153.81554 
L 273.270156 155.203503 
L 272.138947 155.153287 
L 271.44525 155.395434 
L 271.530863 156.540772 
L 270.22008 155.663508 
L 270.476642 155.129565 
L 269.604149 154.546003 
L 269.254261 155.397528 
L 270.023383 153.799645 
L 270.535091 152.736551 
L 270.875996 153.346183 
L 271.566182 153.105588 
L 272.330317 151.515017 
L 273.019355 151.275013 
L 273.357871 151.884296 
L 274.721636 148.921705 
L 280.215119 147.010266 
L 280.818537 145.634606 
L 281.504322 145.396158 
L 282.625909 145.444778 
L 283.311413 145.206364 
L 284.514608 146.392032 
L 285.199642 146.15355 
L 286.321297 146.202241 
L 287.086781 147.100189 
L 288.288737 148.2849 
L 289.410262 148.333815 
L 290.778087 147.85658 
L 293.021575 147.954306 
L 293.626027 146.579752 
L 295.870943 146.677218 
L 296.554218 146.438737 
L 297.598974 145.35064 
L 298.282156 145.112296 
L 299.405374 145.16087 
L 300.451557 144.071921 
L 301.575574 144.120399 
L 302.941221 143.643915 
L 308.564343 143.886131 
L 309.76468 145.072766 
L 310.890055 145.121372 
L 311.333825 145.408575 
L 312.459802 145.457238 
L 312.978285 146.882881 
L 315.231137 146.980568 
L 315.676302 147.268427 
L 316.876613 148.455564 
L 318.003747 148.5046 
L 317.841053 150.170345 
L 318.733303 150.748086 
L 320.380655 152.224835 
L 322.638007 152.323875 
L 322.475819 153.991855 
L 323.60503 154.041591 
L 324.805684 155.229221 
L 325.93513 155.279099 
L 326.616122 155.038652 
L 327.816131 156.22593 
L 330.075584 156.325909 
L 331.275196 157.513103 
L 332.405287 157.563239 
L 333.154269 158.459096 
L 334.28425 158.509327 
L 335.482871 159.695827 
L 336.613087 159.746198 
L 337.292257 159.505203 
L 339.236301 161.585401 
L 339.914621 161.344307 
L 340.141194 160.811885 
L 340.434557 161.413673 
L 340.886618 160.350338 
L 341.471108 161.551962 
L 342.146842 161.311677 
L 342.438019 161.91137 
L 343.11307 161.671227 
L 343.337419 161.140877 
L 345.268003 163.209309 
L 348.221024 166.757055 
L 348.893426 166.516863 
L 349.629824 167.40199 
L 350.429574 169.410397 
L 351.164577 170.293426 
L 351.835479 170.053113 
L 352.56952 170.935405 
L 353.690914 170.986578 
L 354.424002 171.868243 
L 356.33973 173.921385 
L 357.00897 173.680882 
L 357.739934 174.560512 
L 360.832915 177.780155 
L 361.109639 178.364525 
L 361.776937 178.12384 
L 363.958248 180.750344 
L 364.232373 181.331604 
L 365.682514 183.07751 
L 367.04196 185.964439 
L 369.204157 188.566142 
L 369.865488 188.325749 
L 370.584714 189.19158 
L 371.245494 188.951228 
L 371.963786 189.816346 
L 373.284058 189.335791 
L 373.550137 189.907264 
L 374.717484 191.063864 
L 375.827869 191.116689 
L 377.258311 192.842181 
L 377.784188 193.97816 
L 377.389496 194.785204 
L 377.501646 196.983959 
L 376.113696 199.930066 
L 376.320397 199.395625 
L 375.927445 200.197887 
L 376.190275 200.759033 
L 375.086244 200.705431 
L 375.086244 200.705431 
" clip-path="url(#p6b462a4019)" style="fill: none; stroke: #1976b9; stroke-width: 3; stroke-linecap: square"/>
   </g>
   <g id="line2d_39">
    <path d="M 142.045775 226.593511 
L 141.933364 225.53338 
L 141.52981 225.002426 
L 141.796994 224.233256 
L 141.684368 223.171091 
L 142.623365 222.163041 
L 142.510875 221.099725 
L 143.450732 220.090331 
L 144.010205 218.788751 
L 144.681847 218.551704 
L 145.038661 215.36685 
L 146.157737 212.763161 
L 145.664672 211.407386 
L 145.842959 209.815811 
L 146.24439 210.357123 
L 146.467363 212.487471 
L 149.208878 215.507792 
L 149.31941 216.569543 
L 150.09829 217.394767 
L 150.208534 218.455388 
L 150.986585 219.279372 
L 151.273277 218.753281 
L 151.764041 220.102726 
L 151.983434 222.219975 
L 153.154758 223.571585 
L 153.549191 224.101018 
L 155.871012 226.5575 
L 156.53559 226.321318 
L 156.819085 225.794534 
L 157.210325 226.321368 
L 159.903564 229.060593 
L 160.673218 229.875556 
L 160.954494 229.348622 
L 161.442287 230.6899 
L 162.210772 231.503624 
L 162.317242 232.552921 
L 164.618515 234.988602 
L 164.897692 234.460856 
L 165.663224 235.271411 
L 166.322948 235.035301 
L 174.324689 243.399323 
L 174.427603 244.439649 
L 175.186256 245.242963 
L 177.807639 244.297568 
L 179.320433 245.902226 
L 181.282523 245.193734 
L 182.790951 246.79586 
L 183.443933 246.559785 
L 184.479762 246.615989 
L 186.437444 245.908049 
L 187.473287 245.964166 
L 188.125427 245.72828 
L 188.876437 246.528473 
L 189.912123 246.584635 
L 190.563672 246.348761 
L 191.59951 246.404901 
L 192.901943 245.933277 
L 194.03563 247.024925 
L 194.686344 246.789093 
L 195.239456 245.517929 
L 196.372646 246.609455 
L 197.408632 246.665598 
L 197.962079 245.39432 
L 199.094993 246.48595 
L 199.744973 246.25021 
L 200.781263 246.306311 
L 201.430998 246.070602 
L 202.46744 246.126682 
L 203.599534 247.218007 
L 204.248785 246.982213 
L 207.359179 247.150757 
L 208.008045 246.914928 
L 211.120228 247.083482 
L 211.76871 246.847618 
L 212.806478 246.903794 
L 213.937422 247.995245 
L 216.013589 248.107851 
L 216.661446 247.871837 
L 219.777155 248.040739 
L 223.012774 246.861128 
L 224.051436 246.917289 
L 225.990509 246.210185 
L 226.244045 245.683103 
L 228.180725 244.977047 
L 228.573508 245.268267 
L 231.689348 245.436132 
L 232.816716 246.526779 
L 235.934501 246.69508 
L 236.329451 246.986933 
L 236.811986 248.313744 
L 237.852037 248.370056 
L 238.247588 248.662415 
L 240.328947 248.775163 
L 240.811754 250.102722 
L 241.604839 250.688687 
L 243.129585 252.073655 
L 244.171514 252.130434 
L 244.56905 252.424041 
L 246.654168 252.537726 
L 247.137533 253.866818 
L 249.223649 253.980837 
L 250.021893 254.569483 
L 251.065878 254.626601 
L 252.193967 255.719232 
L 254.282569 255.833725 
L 254.683088 256.128623 
L 255.166998 257.459215 
L 255.484708 256.718847 
L 256.530234 256.776249 
L 257.658617 257.869589 
L 258.704348 257.927113 
L 259.668161 256.948529 
L 260.152514 258.280338 
L 261.198991 258.337932 
L 262.164118 257.359044 
L 263.21129 257.416566 
L 264.177564 256.436907 
L 264.66236 257.769936 
L 265.066229 258.065915 
L 266.033725 257.085903 
L 267.082415 257.143456 
L 267.487154 257.43949 
L 269.585808 257.554725 
L 269.991341 257.850995 
L 271.041305 257.908677 
L 271.447335 258.205137 
L 272.497824 258.262877 
L 272.90435 258.559527 
L 273.8764 257.577863 
L 274.283503 257.874523 
L 275.335292 257.932282 
L 275.821451 259.269055 
L 276.22917 259.566231 
L 277.12504 257.543283 
L 277.769651 257.304154 
L 278.822669 257.361899 
L 280.77456 255.394063 
L 281.341809 254.112705 
L 284.275716 251.154082 
L 284.944544 249.655587 
L 285.925084 248.666497 
L 286.494306 247.381213 
L 287.475844 246.390865 
L 287.888238 246.686223 
L 288.224937 245.933631 
L 289.283836 245.990402 
L 289.621419 245.237019 
L 290.681103 245.293749 
L 291.665882 244.300886 
L 292.004953 243.545958 
L 293.065905 243.602559 
L 293.405866 242.846836 
L 294.39303 241.851674 
L 294.808457 242.146877 
L 295.79671 241.15087 
L 296.21273 241.446078 
L 295.907372 240.926877 
L 296.249518 240.168087 
L 296.666218 240.463456 
L 297.352098 238.943554 
L 297.769581 239.238985 
L 297.46441 238.717046 
L 297.882287 239.01268 
L 298.22638 238.250786 
L 297.921078 237.727509 
L 298.989477 237.783837 
L 299.334541 237.020397 
L 298.610416 236.199988 
L 298.304862 235.674569 
L 298.650108 234.908935 
L 298.344236 234.382108 
L 297.823729 226.931962 
L 298.139547 223.733819 
L 299.181504 221.366292 
L 299.181504 221.366292 
" clip-path="url(#p6b462a4019)" style="fill: none; stroke-dasharray: 7.4,3.2; stroke-dashoffset: 0; stroke: #77589a; stroke-width: 2"/>
   </g>
   <g id="Path3DCollection_1">
    <defs>
     <path id="md6b8508bf2" d="M 0 4.031129 
C 1.069068 4.031129 2.094493 3.606384 2.850439 2.850439 
C 3.606384 2.094493 4.031129 1.069068 4.031129 0 
C 4.031129 -1.069068 3.606384 -2.094493 2.850439 -2.850439 
C 2.094493 -3.606384 1.069068 -4.031129 0 -4.031129 
C -1.069068 -4.031129 -2.094493 -3.606384 -2.850439 -2.850439 
C -3.606384 -2.094493 -4.031129 -1.069068 -4.031129 0 
C -4.031129 1.069068 -3.606384 2.094493 -2.850439 2.850439 
C -2.094493 3.606384 -1.069068 4.031129 0 4.031129 
z
" style="stroke: #000000"/>
    </defs>
    <g clip-path="url(#p6b462a4019)">
     <use xlink:href="#md6b8508bf2" x="264.127435" y="137.755424" style="fill: #2ca02c; stroke: #000000"/>
    </g>
   </g>
   <g id="text_20">
    <!-- Source Centerlines Only — Exact Geometry -->
    <g transform="translate(83.59125 16.318125) scale(0.12 -0.12)">
     <defs>
      <path id="DejaVuSans-Bold-36" d="M 3834 4519 
L 3834 3531 
Q 3450 3703 3084 3790 
Q 2719 3878 2394 3878 
Q 1963 3878 1756 3759 
Q 1550 3641 1550 3391 
Q 1550 3203 1689 3098 
Q 1828 2994 2194 2919 
L 2706 2816 
Q 3484 2659 3812 2340 
Q 4141 2022 4141 1434 
Q 4141 663 3683 286 
Q 3225 -91 2284 -91 
Q 1841 -91 1394 -6 
Q 947 78 500 244 
L 500 1259 
Q 947 1022 1364 901 
Q 1781 781 2169 781 
Q 2563 781 2772 912 
Q 2981 1044 2981 1288 
Q 2981 1506 2839 1625 
Q 2697 1744 2272 1838 
L 1806 1941 
Q 1106 2091 782 2419 
Q 459 2747 459 3303 
Q 459 4000 909 4375 
Q 1359 4750 2203 4750 
Q 2588 4750 2994 4692 
Q 3400 4634 3834 4519 
z
" transform="scale(0.015625)"/>
      <path id="DejaVuSans-Bold-52" d="M 2203 2784 
Q 1831 2784 1636 2517 
Q 1441 2250 1441 1747 
Q 1441 1244 1636 976 
Q 1831 709 2203 709 
Q 2569 709 2762 976 
Q 2956 1244 2956 1747 
Q 2956 2250 2762 2517 
Q 2569 2784 2203 2784 
z
M 2203 3584 
Q 3106 3584 3614 3096 
Q 4122 2609 4122 1747 
Q 4122 884 3614 396 
Q 3106 -91 2203 -91 
Q 1297 -91 786 396 
Q 275 884 275 1747 
Q 275 2609 786 3096 
Q 1297 3584 2203 3584 
z
" transform="scale(0.015625)"/>
      <path id="DejaVuSans-Bold-58" d="M 500 1363 
L 500 3500 
L 1625 3500 
L 1625 3150 
Q 1625 2866 1622 2436 
Q 1619 2006 1619 1863 
Q 1619 1441 1641 1255 
Q 1663 1069 1716 984 
Q 1784 875 1895 815 
Q 2006 756 2150 756 
Q 2500 756 2700 1025 
Q 2900 1294 2900 1772 
L 2900 3500 
L 4019 3500 
L 4019 0 
L 2900 0 
L 2900 506 
Q 2647 200 2364 54 
Q 2081 -91 1741 -91 
Q 1134 -91 817 281 
Q 500 653 500 1363 
z
" transform="scale(0.015625)"/>
      <path id="DejaVuSans-Bold-55" d="M 3138 2547 
Q 2991 2616 2845 2648 
Q 2700 2681 2553 2681 
Q 2122 2681 1889 2404 
Q 1656 2128 1656 1613 
L 1656 0 
L 538 0 
L 538 3500 
L 1656 3500 
L 1656 2925 
Q 1872 3269 2151 3426 
Q 2431 3584 2822 3584 
Q 2878 3584 2943 3579 
Q 3009 3575 3134 3559 
L 3138 2547 
z
" transform="scale(0.015625)"/>
      <path id="DejaVuSans-Bold-46" d="M 3366 3391 
L 3366 2478 
Q 3138 2634 2908 2709 
Q 2678 2784 2431 2784 
Q 1963 2784 1702 2511 
Q 1441 2238 1441 1747 
Q 1441 1256 1702 982 
Q 1963 709 2431 709 
Q 2694 709 2930 787 
Q 3166 866 3366 1019 
L 3366 103 
Q 3103 6 2833 -42 
Q 2563 -91 2291 -91 
Q 1344 -91 809 395 
Q 275 881 275 1747 
Q 275 2613 809 3098 
Q 1344 3584 2291 3584 
Q 2566 3584 2833 3536 
Q 3100 3488 3366 3391 
z
" transform="scale(0.015625)"/>
      <path id="DejaVuSans-Bold-48" d="M 4031 1759 
L 4031 1441 
L 1416 1441 
Q 1456 1047 1700 850 
Q 1944 653 2381 653 
Q 2734 653 3104 758 
Q 3475 863 3866 1075 
L 3866 213 
Q 3469 63 3072 -14 
Q 2675 -91 2278 -91 
Q 1328 -91 801 392 
Q 275 875 275 1747 
Q 275 2603 792 3093 
Q 1309 3584 2216 3584 
Q 3041 3584 3536 3087 
Q 4031 2591 4031 1759 
z
M 2881 2131 
Q 2881 2450 2695 2645 
Q 2509 2841 2209 2841 
Q 1884 2841 1681 2658 
Q 1478 2475 1428 2131 
L 2881 2131 
z
" transform="scale(0.015625)"/>
      <path id="DejaVuSans-Bold-3" transform="scale(0.015625)"/>
      <path id="DejaVuSans-Bold-26" d="M 4288 256 
Q 3956 84 3597 -3 
Q 3238 -91 2847 -91 
Q 1681 -91 1000 561 
Q 319 1213 319 2328 
Q 319 3447 1000 4098 
Q 1681 4750 2847 4750 
Q 3238 4750 3597 4662 
Q 3956 4575 4288 4403 
L 4288 3438 
Q 3953 3666 3628 3772 
Q 3303 3878 2944 3878 
Q 2300 3878 1931 3465 
Q 1563 3053 1563 2328 
Q 1563 1606 1931 1193 
Q 2300 781 2944 781 
Q 3303 781 3628 887 
Q 3953 994 4288 1222 
L 4288 256 
z
" transform="scale(0.015625)"/>
      <path id="DejaVuSans-Bold-51" d="M 4056 2131 
L 4056 0 
L 2931 0 
L 2931 347 
L 2931 1631 
Q 2931 2084 2911 2256 
Q 2891 2428 2841 2509 
Q 2775 2619 2662 2680 
Q 2550 2741 2406 2741 
Q 2056 2741 1856 2470 
Q 1656 2200 1656 1722 
L 1656 0 
L 538 0 
L 538 3500 
L 1656 3500 
L 1656 2988 
Q 1909 3294 2193 3439 
Q 2478 3584 2822 3584 
Q 3428 3584 3742 3212 
Q 4056 2841 4056 2131 
z
" transform="scale(0.015625)"/>
      <path id="DejaVuSans-Bold-57" d="M 1759 4494 
L 1759 3500 
L 2913 3500 
L 2913 2700 
L 1759 2700 
L 1759 1216 
Q 1759 972 1856 886 
Q 1953 800 2241 800 
L 2816 800 
L 2816 0 
L 1856 0 
Q 1194 0 917 276 
Q 641 553 641 1216 
L 641 2700 
L 84 2700 
L 84 3500 
L 641 3500 
L 641 4494 
L 1759 4494 
z
" transform="scale(0.015625)"/>
      <path id="DejaVuSans-Bold-4f" d="M 538 4863 
L 1656 4863 
L 1656 0 
L 538 0 
L 538 4863 
z
" transform="scale(0.015625)"/>
      <path id="DejaVuSans-Bold-4c" d="M 538 3500 
L 1656 3500 
L 1656 0 
L 538 0 
L 538 3500 
z
M 538 4863 
L 1656 4863 
L 1656 3950 
L 538 3950 
L 538 4863 
z
" transform="scale(0.015625)"/>
      <path id="DejaVuSans-Bold-56" d="M 3272 3391 
L 3272 2541 
Q 2913 2691 2578 2766 
Q 2244 2841 1947 2841 
Q 1628 2841 1473 2761 
Q 1319 2681 1319 2516 
Q 1319 2381 1436 2309 
Q 1553 2238 1856 2203 
L 2053 2175 
Q 2913 2066 3209 1816 
Q 3506 1566 3506 1031 
Q 3506 472 3093 190 
Q 2681 -91 1863 -91 
Q 1516 -91 1145 -36 
Q 775 19 384 128 
L 384 978 
Q 719 816 1070 734 
Q 1422 653 1784 653 
Q 2113 653 2278 743 
Q 2444 834 2444 1013 
Q 2444 1163 2330 1236 
Q 2216 1309 1875 1350 
L 1678 1375 
Q 931 1469 631 1722 
Q 331 1975 331 2491 
Q 331 3047 712 3315 
Q 1094 3584 1881 3584 
Q 2191 3584 2531 3537 
Q 2872 3491 3272 3391 
z
" transform="scale(0.015625)"/>
      <path id="DejaVuSans-Bold-32" d="M 2719 3878 
Q 2169 3878 1866 3472 
Q 1563 3066 1563 2328 
Q 1563 1594 1866 1187 
Q 2169 781 2719 781 
Q 3272 781 3575 1187 
Q 3878 1594 3878 2328 
Q 3878 3066 3575 3472 
Q 3272 3878 2719 3878 
z
M 2719 4750 
Q 3844 4750 4481 4106 
Q 5119 3463 5119 2328 
Q 5119 1197 4481 553 
Q 3844 -91 2719 -91 
Q 1597 -91 958 553 
Q 319 1197 319 2328 
Q 319 3463 958 4106 
Q 1597 4750 2719 4750 
z
" transform="scale(0.015625)"/>
      <path id="DejaVuSans-Bold-5c" d="M 78 3500 
L 1197 3500 
L 2138 1125 
L 2938 3500 
L 4056 3500 
L 2584 -331 
Q 2363 -916 2067 -1148 
Q 1772 -1381 1288 -1381 
L 641 -1381 
L 641 -647 
L 991 -647 
Q 1275 -647 1404 -556 
Q 1534 -466 1606 -231 
L 1638 -134 
L 78 3500 
z
" transform="scale(0.015625)"/>
      <path id="DejaVuSans-Bold-af6" d="M 344 2156 
L 6056 2156 
L 6056 1350 
L 344 1350 
L 344 2156 
z
" transform="scale(0.015625)"/>
      <path id="DejaVuSans-Bold-28" d="M 588 4666 
L 3834 4666 
L 3834 3756 
L 1791 3756 
L 1791 2888 
L 3713 2888 
L 3713 1978 
L 1791 1978 
L 1791 909 
L 3903 909 
L 3903 0 
L 588 0 
L 588 4666 
z
" transform="scale(0.015625)"/>
      <path id="DejaVuSans-Bold-5b" d="M 1422 1791 
L 159 3500 
L 1344 3500 
L 2059 2463 
L 2784 3500 
L 3969 3500 
L 2706 1797 
L 4031 0 
L 2847 0 
L 2059 1106 
L 1281 0 
L 97 0 
L 1422 1791 
z
" transform="scale(0.015625)"/>
      <path id="DejaVuSans-Bold-44" d="M 2106 1575 
Q 1756 1575 1579 1456 
Q 1403 1338 1403 1106 
Q 1403 894 1545 773 
Q 1688 653 1941 653 
Q 2256 653 2472 879 
Q 2688 1106 2688 1447 
L 2688 1575 
L 2106 1575 
z
M 3816 1997 
L 3816 0 
L 2688 0 
L 2688 519 
Q 2463 200 2181 54 
Q 1900 -91 1497 -91 
Q 953 -91 614 226 
Q 275 544 275 1050 
Q 275 1666 698 1953 
Q 1122 2241 2028 2241 
L 2688 2241 
L 2688 2328 
Q 2688 2594 2478 2717 
Q 2269 2841 1825 2841 
Q 1466 2841 1156 2769 
Q 847 2697 581 2553 
L 581 3406 
Q 941 3494 1303 3539 
Q 1666 3584 2028 3584 
Q 2975 3584 3395 3211 
Q 3816 2838 3816 1997 
z
" transform="scale(0.015625)"/>
      <path id="DejaVuSans-Bold-2a" d="M 4781 347 
Q 4331 128 3847 18 
Q 3363 -91 2847 -91 
Q 1681 -91 1000 561 
Q 319 1213 319 2328 
Q 319 3456 1012 4103 
Q 1706 4750 2913 4750 
Q 3378 4750 3804 4662 
Q 4231 4575 4609 4403 
L 4609 3438 
Q 4219 3659 3833 3768 
Q 3447 3878 3059 3878 
Q 2341 3878 1952 3476 
Q 1563 3075 1563 2328 
Q 1563 1588 1938 1184 
Q 2313 781 3003 781 
Q 3191 781 3352 804 
Q 3513 828 3641 878 
L 3641 1784 
L 2906 1784 
L 2906 2591 
L 4781 2591 
L 4781 347 
z
" transform="scale(0.015625)"/>
      <path id="DejaVuSans-Bold-50" d="M 3781 2919 
Q 3994 3244 4286 3414 
Q 4578 3584 4928 3584 
Q 5531 3584 5847 3212 
Q 6163 2841 6163 2131 
L 6163 0 
L 5038 0 
L 5038 1825 
Q 5041 1866 5042 1909 
Q 5044 1953 5044 2034 
Q 5044 2406 4934 2573 
Q 4825 2741 4581 2741 
Q 4263 2741 4089 2478 
Q 3916 2216 3909 1719 
L 3909 0 
L 2784 0 
L 2784 1825 
Q 2784 2406 2684 2573 
Q 2584 2741 2328 2741 
Q 2006 2741 1831 2477 
Q 1656 2213 1656 1722 
L 1656 0 
L 531 0 
L 531 3500 
L 1656 3500 
L 1656 2988 
Q 1863 3284 2130 3434 
Q 2397 3584 2719 3584 
Q 3081 3584 3359 3409 
Q 3638 3234 3781 2919 
z
" transform="scale(0.015625)"/>
     </defs>
     <use xlink:href="#DejaVuSans-Bold-36"/>
     <use xlink:href="#DejaVuSans-Bold-52" transform="translate(72.015625 0)"/>
     <use xlink:href="#DejaVuSans-Bold-58" transform="translate(140.71875 0)"/>
     <use xlink:href="#DejaVuSans-Bold-55" transform="translate(211.90625 0)"/>
     <use xlink:href="#DejaVuSans-Bold-46" transform="translate(261.21875 0)"/>
     <use xlink:href="#DejaVuSans-Bold-48" transform="translate(320.5 0)"/>
     <use xlink:href="#DejaVuSans-Bold-3" transform="translate(388.328125 0)"/>
     <use xlink:href="#DejaVuSans-Bold-26" transform="translate(423.140625 0)"/>
     <use xlink:href="#DejaVuSans-Bold-48" transform="translate(496.53125 0)"/>
     <use xlink:href="#DejaVuSans-Bold-51" transform="translate(564.359375 0)"/>
     <use xlink:href="#DejaVuSans-Bold-57" transform="translate(635.546875 0)"/>
     <use xlink:href="#DejaVuSans-Bold-48" transform="translate(683.34375 0)"/>
     <use xlink:href="#DejaVuSans-Bold-55" transform="translate(751.171875 0)"/>
     <use xlink:href="#DejaVuSans-Bold-4f" transform="translate(800.484375 0)"/>
     <use xlink:href="#DejaVuSans-Bold-4c" transform="translate(834.765625 0)"/>
     <use xlink:href="#DejaVuSans-Bold-51" transform="translate(869.046875 0)"/>
     <use xlink:href="#DejaVuSans-Bold-48" transform="translate(940.234375 0)"/>
     <use xlink:href="#DejaVuSans-Bold-56" transform="translate(1008.0625 0)"/>
     <use xlink:href="#DejaVuSans-Bold-3" transform="translate(1067.578125 0)"/>
     <use xlink:href="#DejaVuSans-Bold-32" transform="translate(1102.390625 0)"/>
     <use xlink:href="#DejaVuSans-Bold-51" transform="translate(1187.40625 0)"/>
     <use xlink:href="#DejaVuSans-Bold-4f" transform="translate(1258.59375 0)"/>
     <use xlink:href="#DejaVuSans-Bold-5c" transform="translate(1292.875 0)"/>
     <use xlink:href="#DejaVuSans-Bold-3" transform="translate(1358.0625 0)"/>
     <use xlink:href="#DejaVuSans-Bold-af6" transform="translate(1392.875 0)"/>
     <use xlink:href="#DejaVuSans-Bold-3" transform="translate(1492.875 0)"/>
     <use xlink:href="#DejaVuSans-Bold-28" transform="translate(1527.6875 0)"/>
     <use xlink:href="#DejaVuSans-Bold-5b" transform="translate(1596 0)"/>
     <use xlink:href="#DejaVuSans-Bold-44" transform="translate(1660.5 0)"/>
     <use xlink:href="#DejaVuSans-Bold-46" transform="translate(1727.984375 0)"/>
     <use xlink:href="#DejaVuSans-Bold-57" transform="translate(1787.265625 0)"/>
     <use xlink:href="#DejaVuSans-Bold-3" transform="translate(1835.0625 0)"/>
     <use xlink:href="#DejaVuSans-Bold-2a" transform="translate(1869.875 0)"/>
     <use xlink:href="#DejaVuSans-Bold-48" transform="translate(1951.953125 0)"/>
     <use xlink:href="#DejaVuSans-Bold-52" transform="translate(2019.78125 0)"/>
     <use xlink:href="#DejaVuSans-Bold-50" transform="translate(2088.484375 0)"/>
     <use xlink:href="#DejaVuSans-Bold-48" transform="translate(2192.6875 0)"/>
     <use xlink:href="#DejaVuSans-Bold-57" transform="translate(2260.515625 0)"/>
     <use xlink:href="#DejaVuSans-Bold-55" transform="translate(2308.3125 0)"/>
     <use xlink:href="#DejaVuSans-Bold-5c" transform="translate(2357.625 0)"/>
    </g>
   </g>
   <g id="legend_1">
    <g id="patch_6">
     <path d="M 12.8 76.720625 
L 88.455 76.720625 
Q 90.055 76.720625 90.055 75.120625 
L 90.055 27.918125 
Q 90.055 26.318125 88.455 26.318125 
L 12.8 26.318125 
Q 11.2 26.318125 11.2 27.918125 
L 11.2 75.120625 
Q 11.2 76.720625 12.8 76.720625 
z
" style="fill: #ffffff; opacity: 0.8; stroke: #cccccc; stroke-linejoin: miter"/>
    </g>
    <g id="line2d_40">
     <path d="M 14.4 32.796875 
L 22.4 32.796875 
L 30.4 32.796875 
" style="fill: none; stroke: #222222; stroke-width: 3; stroke-linecap: square"/>
    </g>
    <g id="text_21">
     <!-- LMCA -->
     <g transform="translate(36.8 35.596875) scale(0.08 -0.08)">
      <defs>
       <path id="DejaVuSans-2f" d="M 628 4666 
L 1259 4666 
L 1259 531 
L 3531 531 
L 3531 0 
L 628 0 
L 628 4666 
z
" transform="scale(0.015625)"/>
       <path id="DejaVuSans-30" d="M 628 4666 
L 1569 4666 
L 2759 1491 
L 3956 4666 
L 4897 4666 
L 4897 0 
L 4281 0 
L 4281 4097 
L 3078 897 
L 2444 897 
L 1241 4097 
L 1241 0 
L 628 0 
L 628 4666 
z
" transform="scale(0.015625)"/>
       <path id="DejaVuSans-26" d="M 4122 4306 
L 4122 3641 
Q 3803 3938 3442 4084 
Q 3081 4231 2675 4231 
Q 1875 4231 1450 3742 
Q 1025 3253 1025 2328 
Q 1025 1406 1450 917 
Q 1875 428 2675 428 
Q 3081 428 3442 575 
Q 3803 722 4122 1019 
L 4122 359 
Q 3791 134 3420 21 
Q 3050 -91 2638 -91 
Q 1578 -91 968 557 
Q 359 1206 359 2328 
Q 359 3453 968 4101 
Q 1578 4750 2638 4750 
Q 3056 4750 3426 4639 
Q 3797 4528 4122 4306 
z
" transform="scale(0.015625)"/>
      </defs>
      <use xlink:href="#DejaVuSans-2f"/>
      <use xlink:href="#DejaVuSans-30" transform="translate(55.71875 0)"/>
      <use xlink:href="#DejaVuSans-26" transform="translate(142 0)"/>
      <use xlink:href="#DejaVuSans-24" transform="translate(211.828125 0)"/>
     </g>
    </g>
    <g id="line2d_41">
     <path d="M 14.4 44.7975 
L 22.4 44.7975 
L 30.4 44.7975 
" style="fill: none; stroke: #d62828; stroke-width: 3; stroke-linecap: square"/>
    </g>
    <g id="text_22">
     <!-- LAD -->
     <g transform="translate(36.8 47.5975) scale(0.08 -0.08)">
      <defs>
       <path id="DejaVuSans-27" d="M 1259 4147 
L 1259 519 
L 2022 519 
Q 2988 519 3436 956 
Q 3884 1394 3884 2338 
Q 3884 3275 3436 3711 
Q 2988 4147 2022 4147 
L 1259 4147 
z
M 628 4666 
L 1925 4666 
Q 3281 4666 3915 4102 
Q 4550 3538 4550 2338 
Q 4550 1131 3912 565 
Q 3275 0 1925 0 
L 628 0 
L 628 4666 
z
" transform="scale(0.015625)"/>
      </defs>
      <use xlink:href="#DejaVuSans-2f"/>
      <use xlink:href="#DejaVuSans-24" transform="translate(58.015625 0)"/>
      <use xlink:href="#DejaVuSans-27" transform="translate(126.421875 0)"/>
     </g>
    </g>
    <g id="line2d_42">
     <path d="M 14.4 56.798125 
L 22.4 56.798125 
L 30.4 56.798125 
" style="fill: none; stroke: #1976b9; stroke-width: 3; stroke-linecap: square"/>
    </g>
    <g id="text_23">
     <!-- LCX -->
     <g transform="translate(36.8 59.598125) scale(0.08 -0.08)">
      <use xlink:href="#DejaVuSans-2f"/>
      <use xlink:href="#DejaVuSans-26" transform="translate(55.71875 0)"/>
      <use xlink:href="#DejaVuSans-3b" transform="translate(125.546875 0)"/>
     </g>
    </g>
    <g id="line2d_43">
     <path d="M 14.4 68.79875 
L 22.4 68.79875 
L 30.4 68.79875 
" style="fill: none; stroke-dasharray: 7.4,3.2; stroke-dashoffset: 0; stroke: #77589a; stroke-width: 2"/>
    </g>
    <g id="text_24">
     <!-- inferred RCA -->
     <g transform="translate(36.8 71.59875) scale(0.08 -0.08)">
      <defs>
       <path id="DejaVuSans-49" d="M 2375 4863 
L 2375 4384 
L 1825 4384 
Q 1516 4384 1395 4259 
Q 1275 4134 1275 3809 
L 1275 3500 
L 2222 3500 
L 2222 3053 
L 1275 3053 
L 1275 0 
L 697 0 
L 697 3053 
L 147 3053 
L 147 3500 
L 697 3500 
L 697 3744 
Q 697 4328 969 4595 
Q 1241 4863 1831 4863 
L 2375 4863 
z
" transform="scale(0.015625)"/>
       <path id="DejaVuSans-47" d="M 2906 2969 
L 2906 4863 
L 3481 4863 
L 3481 0 
L 2906 0 
L 2906 525 
Q 2725 213 2448 61 
Q 2172 -91 1784 -91 
Q 1150 -91 751 415 
Q 353 922 353 1747 
Q 353 2572 751 3078 
Q 1150 3584 1784 3584 
Q 2172 3584 2448 3432 
Q 2725 3281 2906 2969 
z
M 947 1747 
Q 947 1113 1208 752 
Q 1469 391 1925 391 
Q 2381 391 2643 752 
Q 2906 1113 2906 1747 
Q 2906 2381 2643 2742 
Q 2381 3103 1925 3103 
Q 1469 3103 1208 2742 
Q 947 2381 947 1747 
z
" transform="scale(0.015625)"/>
       <path id="DejaVuSans-35" d="M 2841 2188 
Q 3044 2119 3236 1894 
Q 3428 1669 3622 1275 
L 4263 0 
L 3584 0 
L 2988 1197 
Q 2756 1666 2539 1819 
Q 2322 1972 1947 1972 
L 1259 1972 
L 1259 0 
L 628 0 
L 628 4666 
L 2053 4666 
Q 2853 4666 3247 4331 
Q 3641 3997 3641 3322 
Q 3641 2881 3436 2590 
Q 3231 2300 2841 2188 
z
M 1259 4147 
L 1259 2491 
L 2053 2491 
Q 2509 2491 2742 2702 
Q 2975 2913 2975 3322 
Q 2975 3731 2742 3939 
Q 2509 4147 2053 4147 
L 1259 4147 
z
" transform="scale(0.015625)"/>
      </defs>
      <use xlink:href="#DejaVuSans-4c"/>
      <use xlink:href="#DejaVuSans-51" transform="translate(27.78125 0)"/>
      <use xlink:href="#DejaVuSans-49" transform="translate(91.15625 0)"/>
      <use xlink:href="#DejaVuSans-48" transform="translate(126.359375 0)"/>
      <use xlink:href="#DejaVuSans-55" transform="translate(187.890625 0)"/>
      <use xlink:href="#DejaVuSans-55" transform="translate(227.25 0)"/>
      <use xlink:href="#DejaVuSans-48" transform="translate(266.15625 0)"/>
      <use xlink:href="#DejaVuSans-47" transform="translate(327.6875 0)"/>
      <use xlink:href="#DejaVuSans-3" transform="translate(391.171875 0)"/>
      <use xlink:href="#DejaVuSans-35" transform="translate(422.953125 0)"/>
      <use xlink:href="#DejaVuSans-26" transform="translate(487.453125 0)"/>
      <use xlink:href="#DejaVuSans-24" transform="translate(557.28125 0)"/>
     </g>
    </g>
   </g>
  </g>
 </g>
 <defs>
  <clipPath id="p6b462a4019">
   <rect x="7.2" y="22.318125" width="443.52" height="443.52"/>
  </clipPath>
 </defs>
</svg>
