# vtk DataFile Version 3.0
patient_0000_synth_000 anatomical pipeline centerlines
ASCII
DATASET POLYDATA
POINTS 700 float
0.00000000 0.00000000 0.00000000
0.21384106 0.03272421 0.01532472
0.42485202 0.06474452 0.03002818
0.63307181 0.09606766 0.04411881
0.83853936 0.12670038 0.05760507
1.04129360 0.15664938 0.07049542
1.24137347 0.18592142 0.08279831
1.43881789 0.21452323 0.09452219
1.63366579 0.24246152 0.10567551
1.82595611 0.26974305 0.11626673
2.01572777 0.29637453 0.12630430
2.20301970 0.32236271 0.13579667
2.38787083 0.34771430 0.14475229
2.57032010 0.37243606 0.15317962
2.75040643 0.39653470 0.16108711
2.92816876 0.42001695 0.16848321
3.10364600 0.44288957 0.17537638
3.27687710 0.46515926 0.18177507
3.44790099 0.48683277 0.18768772
3.61675659 0.50791683 0.19312280
3.78348283 0.52841817 0.19808876
3.94811864 0.54834352 0.20259404
4.11070296 0.56769962 0.20664710
4.27127472 0.58649319 0.21025640
4.42987284 0.60473097 0.21343039
4.58653625 0.62241970 0.21617751
4.74130389 0.63956609 0.21850623
4.89421468 0.65617689 0.22042499
5.04530755 0.67225883 0.22194224
5.19462144 0.68781864 0.22306645
5.34219528 0.70286305 0.22380606
5.48806799 0.71739879 0.22416953
5.63227850 0.73143260 0.22416530
5.77486575 0.74497120 0.22380184
5.91586867 0.75802134 0.22308758
6.05532618 0.77058973 0.22203100
6.19327721 0.78268313 0.22064053
6.32976071 0.79430824 0.21892463
6.46481558 0.80547182 0.21689176
6.59848078 0.81618059 0.21455037
6.73079521 0.82644128 0.21190890
6.86179783 0.83626062 0.20897582
6.99152755 0.84564535 0.20575957
7.12002330 0.85460220 0.20226861
7.24732403 0.86313790 0.19851139
7.37346864 0.87125919 0.19449636
7.49849609 0.87897279 0.19023198
7.62244529 0.88628544 0.18572670
7.74535518 0.89320386 0.18098897
7.86726468 0.89973480 0.17602724
7.98821273 0.90588499 0.17084997
8.10823826 0.91166115 0.16546561
8.22738020 0.91707001 0.15988260
8.34567747 0.92211832 0.15410942
8.46316901 0.92681280 0.14815450
8.57989374 0.93116019 0.14202630
8.69589061 0.93516721 0.13573327
8.81119853 0.93884060 0.12928387
8.92585644 0.94218709 0.12268655
9.03990326 0.94521341 0.11594976
9.15337794 0.94792630 0.10908195
9.26631939 0.95033249 0.10209157
9.37876655 0.95243870 0.09498709
9.49075835 0.95425168 0.08777694
9.60233371 0.95577815 0.08046960
9.71353158 0.95702485 0.07307349
9.82439087 0.95799850 0.06559709
9.93495052 0.95870585 0.05804884
10.04524946 0.95915361 0.05043719
10.15532661 0.95934854 0.04277060
10.26522092 0.95929734 0.03505753
10.37497131 0.95900677 0.02730641
10.48461670 0.95848354 0.01952571
10.59419603 0.95773440 0.01172388
10.70374823 0.95676608 0.00390937
10.81331220 0.95558507 -0.00390937
10.92292602 0.95419266 -0.01172388
11.03262698 0.95258490 -0.01952571
11.14245234 0.95075760 -0.02730641
11.25243934 0.94870659 -0.03505753
11.36262524 0.94642769 -0.04277060
11.47304728 0.94391672 -0.05043719
11.58374272 0.94116950 -0.05804884
11.69474881 0.93818186 -0.06559709
11.80610281 0.93494961 -0.07307349
11.91784196 0.93146858 -0.08046960
12.03000351 0.92773458 -0.08777694
12.14262472 0.92374345 -0.09498709
12.25574283 0.91949099 -0.10209157
12.36939511 0.91497304 -0.10908195
12.48361879 0.91018541 -0.11594976
12.59845114 0.90512392 -0.12268655
12.71392940 0.89978440 -0.12928387
12.83009083 0.89416267 -0.13573327
12.94697268 0.88825455 -0.14202630
13.06461219 0.88205586 -0.14815450
13.18304662 0.87556242 -0.15410942
13.30231322 0.86877005 -0.15988260
13.42244925 0.86167458 -0.16546561
13.54349195 0.85427183 -0.17084997
13.66547857 0.84655761 -0.17602724
13.78844637 0.83852775 -0.18098897
13.91243260 0.83017807 -0.18572670
14.03747451 0.82150439 -0.19023198
14.16360936 0.81250254 -0.19449636
14.29087438 0.80316833 -0.19851139
14.41930684 0.79349758 -0.20226861
14.54894398 0.78348613 -0.20575957
14.67982307 0.77312978 -0.20897582
14.81198134 0.76242436 -0.21190890
14.94545605 0.75136569 -0.21455037
15.08028445 0.73994960 -0.21689176
15.21650380 0.72817190 -0.21892463
15.35415134 0.71602841 -0.22064053
15.49326433 0.70351497 -0.22203100
15.63388001 0.69062738 -0.22308758
15.77603565 0.67736147 -0.22380184
15.91976848 0.66371306 -0.22416530
16.06511577 0.64967798 -0.22416953
16.21211476 0.63525204 -0.22380606
16.36080271 0.62043106 -0.22306645
16.51121686 0.60521088 -0.22194224
16.66339447 0.58958730 -0.22042499
16.81737280 0.57355615 -0.21850623
16.97318908 0.55711325 -0.21617751
17.13088057 0.54025442 -0.21343039
17.29048453 0.52297549 -0.21025640
17.45203821 0.50527227 -0.20664710
17.61557885 0.48714059 -0.20259404
17.78114371 0.46857627 -0.19808876
17.94877004 0.44957513 -0.19312280
18.11849509 0.43013299 -0.18768772
18.29035611 0.41024567 -0.18177507
18.46439036 0.38990899 -0.17537638
18.64063508 0.36911878 -0.16848321
18.81912754 0.34787086 -0.16108711
18.99990497 0.32616104 -0.15317962
19.18300463 0.30398516 -0.14475229
19.36846377 0.28133902 -0.13579667
19.55631965 0.25821846 -0.12630430
19.74660951 0.23461929 -0.11626673
19.93937061 0.21053733 -0.10567551
20.13464019 0.18596841 -0.09452219
20.33245552 0.16090835 -0.08279831
20.53285383 0.13535297 -0.07049542
20.73587239 0.10929809 -0.05760507
20.94154844 0.08273953 -0.04411881
21.14991923 0.05567312 -0.03002818
21.36102203 0.02809466 -0.01532472
21.57489407 0.00000000 -0.00000000
21.57489407 0.00000000 -0.00000000
21.89924737 -0.14204741 -0.71355819
22.21343508 -0.27946442 -1.40769115
22.51771391 -0.41236752 -2.08291178
22.81234060 -0.54087320 -2.73973300
23.09757185 -0.66509795 -3.37866773
23.37366438 -0.78515826 -4.00022888
23.64087490 -0.90117063 -4.60492938
23.89946013 -1.01325155 -5.19328213
24.14967679 -1.12151752 -5.76580005
24.39178160 -1.22608502 -6.32299606
24.62603126 -1.32707055 -6.86538307
24.85268250 -1.42459059 -7.39347401
25.07199204 -1.51876165 -7.90778178
25.28421658 -1.60970022 -8.40881930
25.48961285 -1.69752278 -8.89709949
25.68843756 -1.78234584 -9.37313526
25.88094743 -1.86428588 -9.83743954
26.06739918 -1.94345939 -10.29052523
26.24804951 -2.01998287 -10.73290525
26.42315515 -2.09397281 -11.16509252
26.59297282 -2.16554571 -11.58759996
26.75775922 -2.23481805 -12.00094047
26.91777109 -2.30190633 -12.40562698
27.07326512 -2.36692705 -12.80217240
27.22449804 -2.42999668 -13.19108965
27.37172657 -2.49123173 -13.57289165
27.51520742 -2.55074869 -13.94809130
27.65519731 -2.60866405 -14.31720153
27.79195295 -2.66509431 -14.68073525
27.92573106 -2.72015595 -15.03920538
28.05678836 -2.77396547 -15.39312484
28.18538156 -2.82663936 -15.74300653
28.31176739 -2.87829412 -16.08936338
28.43618584 -2.92903848 -16.43267759
28.55874427 -2.97891964 -16.77318743
28.67948675 -3.02795542 -17.11101486
28.79845698 -3.07616348 -17.44628111
28.91569866 -3.12356148 -17.77910743
29.03125546 -3.17016706 -18.10961505
29.14517108 -3.21599787 -18.43792522
29.25748922 -3.26107158 -18.76415916
29.36825356 -3.30540583 -19.08843812
29.47750779 -3.34901828 -19.41088334
29.58529561 -3.39192658 -19.73161605
29.69166071 -3.43414838 -20.05075749
29.79664678 -3.47570134 -20.36842891
29.90029750 -3.51660310 -20.68475153
30.00265658 -3.55687133 -20.99984660
30.10376769 -3.59652366 -21.31383536
30.20367454 -3.63557777 -21.62683904
30.30242081 -3.67405129 -21.93897889
30.40005020 -3.71196189 -22.25037613
30.49660639 -3.74932721 -22.56115202
30.59213308 -3.78616491 -22.87142778
30.68667396 -3.82249263 -23.18132466
30.78027272 -3.85832805 -23.49096389
30.87297305 -3.89368880 -23.80046672
30.96481864 -3.92859253 -24.10995437
31.05585318 -3.96305691 -24.41954810
31.14612036 -3.99709959 -24.72936913
31.23566388 -4.03073821 -25.03953871
31.32452743 -4.06399043 -25.35017807
31.41275469 -4.09687391 -25.66140845
31.50038936 -4.12940629 -25.97335110
31.58747513 -4.16160523 -26.28612724
31.67405569 -4.19348839 -26.59985812
31.76017343 -4.22507284 -26.91466127
31.84584731 -4.25636567 -27.23058783
31.93107604 -4.28736525 -27.54763146
32.01585765 -4.31806967 -27.86578394
32.10019020 -4.34847704 -28.18503705
32.18407170 -4.37858545 -28.50538257
32.26750021 -4.40839299 -28.82681229
32.35047377 -4.43789778 -29.14931798
32.43299040 -4.46709789 -29.47289142
32.51504815 -4.49599143 -29.79752440
32.59664507 -4.52457651 -30.12320869
32.67777917 -4.55285120 -30.44993607
32.75844852 -4.58081361 -30.77769832
32.83865114 -4.60846185 -31.10648723
32.91838507 -4.63579399 -31.43629457
32.99764835 -4.66280815 -31.76711213
33.07643903 -4.68950242 -32.09893167
33.15475513 -4.71587489 -32.43174499
33.23259470 -4.74192367 -32.76554387
33.30995578 -4.76764684 -33.10032007
33.38683641 -4.79304251 -33.43606539
33.46323461 -4.81810878 -33.77277161
33.53914844 -4.84284373 -34.11043050
33.61457594 -4.86724548 -34.44903384
33.68951513 -4.89131211 -34.78857341
33.76396406 -4.91504172 -35.12904100
33.83792077 -4.93843241 -35.47042838
33.91138329 -4.96148227 -35.81272734
33.98434967 -4.98418941 -36.15592965
34.05681794 -5.00655192 -36.50002709
34.12878615 -5.02856790 -36.84501144
34.20025232 -5.05023544 -37.19087450
34.27121451 -5.07155264 -37.53760802
34.34167075 -5.09251760 -37.88520375
34.41161972 -5.11312855 -38.23365028
34.48106102 -5.13338393 -38.58293141
34.54999436 -5.15328217 -38.93303048
34.61841944 -5.17282173 -39.28393086
34.68633594 -5.19200106 -39.63561590
34.75374358 -5.21081861 -39.98806897
34.82064204 -5.22927283 -40.34127342
34.88703103 -5.24736216 -40.69521261
34.95291024 -5.26508505 -41.04986991
35.01827938 -5.28243996 -41.40522867
35.08313813 -5.29942534 -41.76127225
35.14748620 -5.31603962 -42.11798402
35.21132329 -5.33228126 -42.47534732
35.27464908 -5.34814872 -42.83334553
35.33746329 -5.36364043 -43.19196200
35.39976561 -5.37875485 -43.55118009
35.46155574 -5.39349042 -43.91098315
35.52283337 -5.40784561 -44.27135456
35.58359820 -5.42181884 -44.63227766
35.64384994 -5.43540858 -44.99373582
35.70358827 -5.44861328 -45.35571240
35.76281290 -5.46143137 -45.71819076
35.82152352 -5.47386132 -46.08115425
35.87971984 -5.48590156 -46.44458624
35.93740154 -5.49755055 -46.80847009
35.99456834 -5.50880675 -47.17278914
36.05121992 -5.51966858 -47.53752678
36.10735599 -5.53013452 -47.90266635
36.16297623 -5.54020299 -48.26819121
36.21808036 -5.54987247 -48.63408472
36.27266806 -5.55914138 -49.00033025
36.32673904 -5.56800819 -49.36691115
36.38029300 -5.57647133 -49.73381078
36.43332995 -5.58452945 -50.10101179
36.48585085 -5.59218168 -50.46849481
36.53785682 -5.59942726 -50.83624008
36.58934897 -5.60626542 -51.20422786
36.64032844 -5.61269540 -51.57243841
36.69079633 -5.61871643 -51.94085199
36.74075377 -5.62432776 -52.30944884
36.79020188 -5.62952861 -52.67820922
36.83914177 -5.63431822 -53.04711340
36.88757456 -5.63869583 -53.41614161
36.93550139 -5.64266067 -53.78527413
36.98292335 -5.64621198 -54.15449120
37.02984158 -5.64934899 -54.52377308
37.07625720 -5.65207094 -54.89310003
37.12217132 -5.65437706 -55.26245230
37.16758506 -5.65626660 -55.63181014
37.21249954 -5.65773878 -56.00115382
37.25691589 -5.65879284 -56.37046358
37.30083522 -5.65942802 -56.73971968
37.34425865 -5.65964355 -57.10890238
37.38718730 -5.65943867 -57.47799193
37.42962229 -5.65881261 -57.84696859
37.47156474 -5.65776461 -58.21581262
37.51301576 -5.65629390 -58.58450426
37.55397649 -5.65439972 -58.95302377
37.59444804 -5.65208131 -59.32135142
37.63443152 -5.64933790 -59.68946744
37.67392807 -5.64616873 -60.05735211
37.71293879 -5.64257302 -60.42498567
37.75146480 -5.63855003 -60.79234839
37.78950723 -5.63409897 -61.15942051
37.82706720 -5.62921910 -61.52618229
37.86414583 -5.62390964 -61.89261398
37.90074434 -5.61816998 -62.25869623
37.93686464 -5.61200035 -62.62441177
37.97250884 -5.60540130 -62.98974411
38.00767906 -5.59837335 -63.35467672
38.04237742 -5.59091703 -63.71919310
38.07660604 -5.58303287 -64.08327673
38.11036703 -5.57472141 -64.44691111
38.14366252 -5.56598317 -64.81007972
38.17649462 -5.55681870 -65.17276604
38.20886545 -5.54722851 -65.53495358
38.24077714 -5.53721315 -65.89662581
38.27223179 -5.52677314 -66.25776622
38.30323154 -5.51590902 -66.61835831
38.33377849 -5.50462132 -66.97838556
38.36387477 -5.49291057 -67.33783146
38.39352249 -5.48077730 -67.69667950
38.42272378 -5.46822204 -68.05491317
38.45148075 -5.45524532 -68.41251595
38.47979552 -5.44184769 -68.76947133
38.50767021 -5.42802966 -69.12576281
38.53510694 -5.41379177 -69.48137386
38.56210782 -5.39913455 -69.83628799
38.58867498 -5.38405854 -70.19048867
38.61481054 -5.36856426 -70.54395940
38.64051661 -5.35265225 -70.89668366
38.66579531 -5.33632303 -71.24864494
38.69064877 -5.31957715 -71.59982674
38.71507909 -5.30241513 -71.95021253
38.73908840 -5.28483750 -72.29978582
38.76267882 -5.26684480 -72.64853007
38.78585247 -5.24843756 -72.99642880
38.80861146 -5.22961631 -73.34346547
38.83095791 -5.21038157 -73.68962359
38.85289397 -5.19073397 -74.03488706
38.87442213 -5.17067498 -74.37924469
38.89554505 -5.15020666 -74.72268844
38.91626544 -5.12933106 -75.06521033
38.93658600 -5.10805026 -75.40680239
38.95650940 -5.08636631 -75.74745663
38.97603835 -5.06428128 -76.08716508
38.99517553 -5.04179723 -76.42591974
39.01392364 -5.01891622 -76.76371265
39.03228537 -4.99564032 -77.10053582
39.05026341 -4.97197158 -77.43638126
39.06786045 -4.94791207 -77.77124101
39.08507919 -4.92346386 -78.10510707
39.10192232 -4.89862900 -78.43797147
39.11839253 -4.87340955 -78.76982623
39.13449251 -4.84780758 -79.10066337
39.15022495 -4.82182516 -79.43047490
39.16559255 -4.79546433 -79.75925285
39.18059800 -4.76872718 -80.08698923
39.19524399 -4.74161575 -80.41367606
39.20953321 -4.71413211 -80.73930537
39.22346835 -4.68627833 -81.06386917
39.23705211 -4.65805646 -81.38735948
39.25028718 -4.62946858 -81.70976833
39.26317625 -4.60051673 -82.03108772
39.27572201 -4.57120298 -82.35130969
39.28792716 -4.54152941 -82.67042624
39.29979438 -4.51149806 -82.98842941
39.31132637 -4.48111100 -83.30531120
39.32252582 -4.45037029 -83.62106364
39.33339543 -4.41927800 -83.93567874
39.34393788 -4.38783618 -84.24914853
39.35415586 -4.35604691 -84.56146503
39.36405206 -4.32391196 -84.87262212
39.37362872 -4.29142450 -85.18267013
39.38288757 -4.25856776 -85.49172469
39.39183033 -4.22532442 -85.79990506
39.40045871 -4.19167716 -86.10733050
39.40877441 -4.15760864 -86.41412025
39.41677915 -4.12310155 -86.72039357
39.42447464 -4.08813855 -87.02626973
39.43186259 -4.05270233 -87.33186797
39.43894470 -4.01677556 -87.63730756
39.44572270 -3.98034091 -87.94270774
39.45219829 -3.94338105 -88.24818778
39.45837318 -3.90587867 -88.55386693
39.46424909 -3.86781644 -88.85986445
39.46982772 -3.82917703 -89.16629959
39.47511078 -3.78994312 -89.47329161
39.48009998 -3.75009738 -89.78095976
39.48479704 -3.70962249 -90.08942331
39.48920367 -3.66850112 -90.39880150
39.49332157 -3.62671595 -90.70921360
39.49715246 -3.58424965 -91.02077886
39.50069805 -3.54108490 -91.33361653
39.50396004 -3.49720437 -91.64784587
39.50694016 -3.45259074 -91.96358615
39.50964010 -3.40722668 -92.28095660
39.51206159 -3.36109487 -92.60007650
39.51420632 -3.31417798 -92.92106509
39.51607602 -3.26645869 -93.24404164
39.51767239 -3.21791967 -93.56912539
39.51899714 -3.16854360 -93.89643561
39.52005199 -3.11831315 -94.22609155
39.52083864 -3.06721099 -94.55821246
39.52135880 -3.01521981 -94.89291761
39.52161415 -2.96232210 -95.23032695
39.52159968 -2.90847144 -95.57067344
39.52129641 -2.85356082 -95.91442707
39.52068358 -2.79747557 -96.26208765
39.51974045 -2.74010103 -96.61415502
39.51844627 -2.68132254 -96.97112898
39.51678029 -2.62102543 -97.33350937
39.51472175 -2.55909506 -97.70179600
39.51224991 -2.49541676 -98.07648870
39.50934402 -2.42987586 -98.45808728
39.50598333 -2.36235772 -98.84709157
39.50214709 -2.29274766 -99.24400139
39.49781455 -2.22093103 -99.64931656
39.49296496 -2.14679317 -100.06353690
39.48757757 -2.07021941 -100.48716224
39.48163164 -1.99109510 -100.92069239
39.47510640 -1.90930557 -101.36462717
39.46798112 -1.82473617 -101.81946642
39.46023505 -1.73727224 -102.28570994
39.45184742 -1.64679911 -102.76385756
39.44279751 -1.55320213 -103.25440911
39.43306454 -1.45636663 -103.75786440
39.42262778 -1.35617795 -104.27472325
39.41146648 -1.25252144 -104.80548549
39.39955989 -1.14528243 -105.35065094
39.38688725 -1.03434626 -105.91071941
39.37342782 -0.91959827 -106.48619074
39.35916084 -0.80092381 -107.07756473
39.34406558 -0.67820821 -107.68534122
39.32812127 -0.55133680 -108.31002003
39.31130718 -0.42019494 -108.95210097
39.29360254 -0.28466796 -109.61208387
39.27498662 -0.14464120 -110.29046855
39.25543865 -0.00000000 -110.98775482
21.57489407 0.00000000 -0.00000000
21.46949325 1.08029436 -0.28314391
21.36081026 2.12992022 -0.55743045
21.24893290 3.14960278 -0.82306389
21.13394901 4.14006722 -1.08024847
21.01594638 5.10203873 -1.32918843
20.89501285 6.03624251 -1.57008804
20.77123622 6.94340373 -1.80315153
20.64470432 7.82424759 -2.02858316
20.51550495 8.67949928 -2.24658717
20.38372594 9.50988398 -2.45736783
20.24945510 10.31612689 -2.66112936
20.11278025 11.09895318 -2.85807603
19.97378920 11.85908806 -3.04841209
19.83256977 12.59725671 -3.23234178
19.68920977 13.31418431 -3.41006936
19.54379703 14.01059606 -3.58179906
19.39641936 14.68721714 -3.74773515
19.24716457 15.34477275 -3.90808187
19.09612048 15.98398806 -4.06304348
18.94337491 16.60558828 -4.21282421
18.78901568 17.21029858 -4.35762832
18.63313059 17.79884416 -4.49766007
18.47580747 18.37195021 -4.63312369
18.31713413 18.93034190 -4.76422344
18.15719839 19.47474444 -4.89116357
17.99608806 20.00588301 -5.01414833
17.83389097 20.52448280 -5.13338196
17.67069492 21.03126900 -5.24906873
17.50658774 21.52696679 -5.36141286
17.34165723 22.01230137 -5.47061863
17.17599123 22.48799792 -5.57689026
17.00967753 22.95478163 -5.68043203
16.84280396 23.41337769 -5.78144816
16.67545834 23.86451129 -5.88014292
16.50772848 24.30890762 -5.97672055
16.33970064 24.74728404 -6.07138299
16.17140993 25.18009968 -6.16425548
16.00282975 25.60750240 -6.25537088
15.83392986 26.02962154 -6.34475655
15.66467999 26.44658646 -6.43243983
15.49504990 26.85852649 -6.51844808
15.32500933 27.26557097 -6.60280864
15.15452802 27.66784925 -6.68554889
14.98357572 28.06549067 -6.76669615
14.81212217 28.45862457 -6.84627780
14.64013712 28.84738030 -6.92432117
14.46759032 29.23188720 -7.00085362
14.29445152 29.61227461 -7.07590251
14.12069044 29.98867187 -7.14949519
13.94627685 30.36120833 -7.22165900
13.77118049 30.73001333 -7.29242131
13.59537110 31.09521621 -7.36180945
13.41881843 31.45694631 -7.42985080
13.24149222 31.81533298 -7.49657269
13.06336222 32.17050556 -7.56200248
12.88439818 32.52259340 -7.62616752
12.70456983 32.87172583 -7.68909517
12.52384693 33.21803220 -7.75081278
12.34219922 33.56164184 -7.81134769
12.15959645 33.90268412 -7.87072727
11.97600835 34.24128836 -7.92897886
11.79140469 34.57758390 -7.98612981
11.60575519 34.91170010 -8.04220749
11.41902962 35.24376630 -8.09723923
11.23119771 35.57391183 -8.15125240
11.04222920 35.90226604 -8.20427435
10.85209385 36.22895827 -8.25633242
10.66076140 36.55411787 -8.30745397
10.46820159 36.87787418 -8.35766635
10.27438417 37.20035653 -8.40699692
10.07927889 37.52169428 -8.45547303
9.88286044 37.84200209 -8.50311882
9.68513408 38.16130405 -8.54993867
9.48611668 38.47958971 -8.59592942
9.28582518 38.79684859 -8.64108791
9.08427649 39.11307018 -8.68541094
8.88148753 39.42824397 -8.72889535
8.67747521 39.74235948 -8.77153797
8.47225645 40.05540619 -8.81333562
8.26584817 40.36737361 -8.85428513
8.05826728 40.67825124 -8.89438332
7.84953070 40.98802858 -8.93362702
7.63965535 41.29669511 -8.97201305
7.42865814 41.60424035 -9.00953825
7.21655599 41.91065380 -9.04619943
7.00336583 42.21592495 -9.08199342
6.78910455 42.52004329 -9.11691705
6.57378909 42.82299834 -9.15096714
6.35743636 43.12477959 -9.18414052
6.14006328 43.42537654 -9.21643402
5.92168675 43.72477868 -9.24784446
5.70232371 44.02297553 -9.27836867
5.48199106 44.31995657 -9.30800347
5.26070573 44.61571130 -9.33674569
5.03848462 44.91022923 -9.36459215
4.81534467 45.20349986 -9.39153969
4.59130277 45.49551267 -9.41758512
4.36637586 45.78625718 -9.44272527
4.14058085 46.07572289 -9.46695697
3.91393464 46.36389928 -9.49027704
3.68645417 46.65077586 -9.51268232
3.45815635 46.93634213 -9.53416962
3.22905810 47.22058759 -9.55473577
2.99917632 47.50350174 -9.57437760
2.76852795 47.78507407 -9.59309193
2.53712989 48.06529409 -9.61087559
2.30499907 48.34415131 -9.62772542
2.07215359 48.62163687 -9.64363933
1.83861358 48.89774475 -9.65861713
1.60439937 49.17246922 -9.67265881
1.36953130 49.44580456 -9.68576439
1.13402971 49.71774503 -9.69793385
0.89791494 49.98828490 -9.70916719
0.66120733 50.25741845 -9.71946443
0.42392721 50.52513995 -9.72882555
0.18609493 50.79144368 -9.73725056
-0.05226918 51.05632389 -9.74473946
-0.29114478 51.31977487 -9.75129225
-0.53051154 51.58179089 -9.75690892
-0.77034910 51.84236621 -9.76158948
-1.01063714 52.10149511 -9.76533393
-1.25135531 52.35917187 -9.76814227
-1.49248329 52.61539074 -9.77001449
-1.73400072 52.87014601 -9.77095061
-1.97588727 53.12343195 -9.77095061
-2.21812261 53.37524283 -9.77001449
-2.46068638 53.62557291 -9.76814227
-2.70355827 53.87441647 -9.76533393
-2.94671792 54.12176779 -9.76158948
-3.19014500 54.36762113 -9.75690892
-3.43381918 54.61197077 -9.75129225
-3.67772010 54.85481098 -9.74473946
-3.92182744 55.09613602 -9.73725056
-4.16612085 55.33594018 -9.72882555
-4.41058001 55.57421772 -9.71946443
-4.65518456 55.81096291 -9.70916719
-4.89991417 56.04617003 -9.69793385
-5.14474850 56.27983335 -9.68576439
-5.38966722 56.51194713 -9.67265881
-5.63464998 56.74250566 -9.65861713
-5.87967645 56.97150320 -9.64363933
-6.12472629 57.19893402 -9.62772542
-6.36977909 57.42479267 -9.61087559
-6.61481383 57.64907627 -9.59309193
-6.85980912 57.87178346 -9.57437760
-7.10474356 58.09291285 -9.55473577
-7.34959576 58.31246309 -9.53416962
-7.59434434 58.53043281 -9.51268232
-7.83896789 58.74682065 -9.49027704
-8.08344502 58.96162523 -9.46695697
-8.32775435 59.17484519 -9.44272527
-8.57187447 59.38647917 -9.41758512
-8.81578400 59.59652580 -9.39153969
-9.05946155 59.80498371 -9.36459215
-9.30288572 60.01185154 -9.33674569
-9.54603512 60.21712793 -9.30800347
-9.78888836 60.42081150 -9.27836867
-10.03142405 60.62290089 -9.24784446
-10.27362078 60.82339473 -9.21643402
-10.51545718 61.02229166 -9.18414052
-10.75691185 61.21959031 -9.15096714
-10.99796339 61.41528932 -9.11691705
-11.23859041 61.60938732 -9.08199342
-11.47877153 61.80188295 -9.04619943
-11.71848534 61.99277483 -9.00953825
-11.95771046 62.18206160 -8.97201305
-12.19642550 62.36974190 -8.93362702
-12.43460905 62.55581436 -8.89438332
-12.67223973 62.74027762 -8.85428513
-12.90929615 62.92313030 -8.81333562
-13.14575692 63.10437105 -8.77153797
-13.38160063 63.28399849 -8.72889535
-13.61680590 63.46201126 -8.68541094
-13.85135135 63.63840800 -8.64108791
-14.08521556 63.81318733 -8.59592942
-14.31837716 63.98634790 -8.54993867
-14.55081474 64.15788834 -8.50311882
-14.78250696 64.32780729 -8.45547303
-15.01344934 64.49611175 -8.40699692
-15.24368174 64.66283063 -8.35766635
-15.47325121 64.82799637 -8.30745397
-15.70220478 64.99164143 -8.25633242
-15.93058950 65.15379824 -8.20427435
-16.15845240 65.31449926 -8.15125240
-16.38584054 65.47377694 -8.09723923
-16.61280095 65.63166373 -8.04220749
-16.83938067 65.78819207 -7.98612981
-17.06562674 65.94339441 -7.92897886
-17.29158621 66.09730320 -7.87072727
-17.51730611 66.24995090 -7.81134769
-17.74283350 66.40136994 -7.75081278
-17.96821540 66.55159278 -7.68909517
-18.19349887 66.70065187 -7.62616752
-18.41873094 66.84857965 -7.56200248
-18.64395865 66.99540858 -7.49657269
-18.86922905 67.14117109 -7.42985080
-19.09458917 67.28589965 -7.36180945
-19.32008607 67.42962670 -7.29242131
-19.54576677 67.57238469 -7.22165900
-19.77167832 67.71420606 -7.14949519
-19.99786777 67.85512327 -7.07590251
-20.22438216 67.99516876 -7.00085362
-20.45126851 68.13437499 -6.92432117
-20.67857389 68.27277440 -6.84627780
-20.90634533 68.41039943 -6.76669615
-21.13462986 68.54728255 -6.68554889
-21.36347454 68.68345619 -6.60280864
-21.59292640 68.81895281 -6.51844808
-21.82303248 68.95380485 -6.43243983
-22.05383983 69.08804477 -6.34475655
-22.28539549 69.22170501 -6.25537088
-22.51774650 69.35481802 -6.16425548
-22.75093990 69.48741625 -6.07138299
-22.98502276 69.61952880 -5.97672055
-23.22004266 69.75112863 -5.88014292
-23.45604759 69.88214210 -5.78144816
-23.69308556 70.01249416 -5.68043203
-23.93120458 70.14210975 -5.57689026
-24.17045266 70.27091382 -5.47061863
-24.41087780 70.39883133 -5.36141286
-24.65252801 70.52578723 -5.24906873
-24.89545130 70.65170645 -5.13338196
-25.13969568 70.77651396 -5.01414833
-25.38530915 70.90013470 -4.89116357
-25.63233973 71.02249361 -4.76422344
-25.88083541 71.14351566 -4.63312369
-26.13084421 71.26312579 -4.49766007
-26.38241414 71.38124894 -4.35762832
-26.63559320 71.49781007 -4.21282421
-26.89042940 71.61273413 -4.06304348
-27.14697075 71.72594606 -3.90808187
-27.40526525 71.83737081 -3.74773515
-27.66536092 71.94693334 -3.58179906
-27.92730576 72.05455859 -3.41006936
-28.19114777 72.16017151 -3.23234178
-28.45693498 72.26369706 -3.04841209
-28.72471537 72.36506017 -2.85807603
-28.99453697 72.46418581 -2.66112936
-29.26644778 72.56099891 -2.45736783
-29.54049580 72.65542443 -2.24658717
-29.81672905 72.74738731 -2.02858316
-30.09519553 72.83681251 -1.80315153
-30.37594325 72.92362498 -1.57008804
-30.65902022 73.00774966 -1.32918843
-30.94447444 73.08911151 -1.08024847
-31.23235393 73.16763547 -0.82306389
-31.52270669 73.24324649 -0.55743045
-31.81558072 73.31586952 -0.28314391
-32.11102404 73.38542951 -0.00000000
LINES 3 703
150 0 1 2 3 4 5 6 7 8 9 10 11 12 13 14 15 16 17 18 19 20 21 22 23 24 25 26 27 28 29 30 31 32 33 34 35 36 37 38 39 40 41 42 43 44 45 46 47 48 49 50 51 52 53 54 55 56 57 58 59 60 61 62 63 64 65 66 67 68 69 70 71 72 73 74 75 76 77 78 79 80 81 82 83 84 85 86 87 88 89 90 91 92 93 94 95 96 97 98 99 100 101 102 103 104 105 106 107 108 109 110 111 112 113 114 115 116 117 118 119 120 121 122 123 124 125 126 127 128 129 130 131 132 133 134 135 136 137 138 139 140 141 142 143 144 145 146 147 148 149
300 150 151 152 153 154 155 156 157 158 159 160 161 162 163 164 165 166 167 168 169 170 171 172 173 174 175 176 177 178 179 180 181 182 183 184 185 186 187 188 189 190 191 192 193 194 195 196 197 198 199 200 201 202 203 204 205 206 207 208 209 210 211 212 213 214 215 216 217 218 219 220 221 222 223 224 225 226 227 228 229 230 231 232 233 234 235 236 237 238 239 240 241 242 243 244 245 246 247 248 249 250 251 252 253 254 255 256 257 258 259 260 261 262 263 264 265 266 267 268 269 270 271 272 273 274 275 276 277 278 279 280 281 282 283 284 285 286 287 288 289 290 291 292 293 294 295 296 297 298 299 300 301 302 303 304 305 306 307 308 309 310 311 312 313 314 315 316 317 318 319 320 321 322 323 324 325 326 327 328 329 330 331 332 333 334 335 336 337 338 339 340 341 342 343 344 345 346 347 348 349 350 351 352 353 354 355 356 357 358 359 360 361 362 363 364 365 366 367 368 369 370 371 372 373 374 375 376 377 378 379 380 381 382 383 384 385 386 387 388 389 390 391 392 393 394 395 396 397 398 399 400 401 402 403 404 405 406 407 408 409 410 411 412 413 414 415 416 417 418 419 420 421 422 423 424 425 426 427 428 429 430 431 432 433 434 435 436 437 438 439 440 441 442 443 444 445 446 447 448 449
250 450 451 452 453 454 455 456 457 458 459 460 461 462 463 464 465 466 467 468 469 470 471 472 473 474 475 476 477 478 479 480 481 482 483 484 485 486 487 488 489 490 491 492 493 494 495 496 497 498 499 500 501 502 503 504 505 506 507 508 509 510 511 512 513 514 515 516 517 518 519 520 521 522 523 524 525 526 527 528 529 530 531 532 533 534 535 536 537 538 539 540 541 542 543 544 545 546 547 548 549 550 551 552 553 554 555 556 557 558 559 560 561 562 563 564 565 566 567 568 569 570 571 572 573 574 575 576 577 578 579 580 581 582 583 584 585 586 587 588 589 590 591 592 593 594 595 596 597 598 599 600 601 602 603 604 605 606 607 608 609 610 611 612 613 614 615 616 617 618 619 620 621 622 623 624 625 626 627 628 629 630 631 632 633 634 635 636 637 638 639 640 641 642 643 644 645 646 647 648 649 650 651 652 653 654 655 656 657 658 659 660 661 662 663 664 665 666 667 668 669 670 671 672 673 674 675 676 677 678 679 680 681 682 683 684 685 686 687 688 689 690 691 692 693 694 695 696 697 698 699
POINT_DATA 700
SCALARS branch_id int 1
LOOKUP_TABLE default
1
1
1
1
1
1
1
1
1
1
1
1
1
1
1
1
1
1
1
1
1
1
1
1
1
1
1
1
1
1
1
1
1
1
1
1
1
1
1
1
1
1
1
1
1
1
1
1
1
1
1
1
1
1
1
1
1
1
1
1
1
1
1
1
1
1
1
1
1
1
1
1
1
1
1
1
1
1
1
1
1
1
1
1
1
1
1
1
1
1
1
1
1
1
1
1
1
1
1
1
1
1
1
1
1
1
1
1
1
1
1
1
1
1
1
1
1
1
1
1
1
1
1
1
1
1
1
1
1
1
1
1
1
1
1
1
1
1
1
1
1
1
1
1
1
1
1
1
1
1
2
2
2
2
2
2
2
2
2
2
2
2
2
2
2
2
2
2
2
2
2
2
2
2
2
2
2
2
2
2
2
2
2
2
2
2
2
2
2
2
2
2
2
2
2
2
2
2
2
2
2
2
2
2
2
2
2
2
2
2
2
2
2
2
2
2
2
2
2
2
2
2
2
2
2
2
2
2
2
2
2
2
2
2
2
2
2
2
2
2
2
2
2
2
2
2
2
2
2
2
2
2
2
2
2
2
2
2
2
2
2
2
2
2
2
2
2
2
2
2
2
2
2
2
2
2
2
2
2
2
2
2
2
2
2
2
2
2
2
2
2
2
2
2
2
2
2
2
2
2
2
2
2
2
2
2
2
2
2
2
2
2
2
2
2
2
2
2
2
2
2
2
2
2
2
2
2
2
2
2
2
2
2
2
2
2
2
2
2
2
2
2
2
2
2
2
2
2
2
2
2
2
2
2
2
2
2
2
2
2
2
2
2
2
2
2
2
2
2
2
2
2
2
2
2
2
2
2
2
2
2
2
2
2
2
2
2
2
2
2
2
2
2
2
2
2
2
2
2
2
2
2
2
2
2
2
2
2
2
2
2
2
2
2
2
2
2
2
2
2
2
2
2
2
2
2
2
2
2
2
2
2
2
2
2
2
2
2
2
2
2
2
2
2
2
2
2
2
2
2
3
3
3
3
3
3
3
3
3
3
3
3
3
3
3
3
3
3
3
3
3
3
3
3
3
3
3
3
3
3
3
3
3
3
3
3
3
3
3
3
3
3
3
3
3
3
3
3
3
3
3
3
3
3
3
3
3
3
3
3
3
3
3
3
3
3
3
3
3
3
3
3
3
3
3
3
3
3
3
3
3
3
3
3
3
3
3
3
3
3
3
3
3
3
3
3
3
3
3
3
3
3
3
3
3
3
3
3
3
3
3
3
3
3
3
3
3
3
3
3
3
3
3
3
3
3
3
3
3
3
3
3
3
3
3
3
3
3
3
3
3
3
3
3
3
3
3
3
3
3
3
3
3
3
3
3
3
3
3
3
3
3
3
3
3
3
3
3
3
3
3
3
3
3
3
3
3
3
3
3
3
3
3
3
3
3
3
3
3
3
3
3
3
3
3
3
3
3
3
3
3
3
3
3
3
3
3
3
3
3
3
3
3
3
3
3
3
3
3
3
3
3
3
3
3
3
3
3
3
3
3
3
3
3
3
3
3
3
3
3
3
3
3
3
3
3
3
3
3
3
SCALARS point_index int 1
LOOKUP_TABLE default
0
1
2
3
4
5
6
7
8
9
10
11
12
13
14
15
16
17
18
19
20
21
22
23
24
25
26
27
28
29
30
31
32
33
34
35
36
37
38
39
40
41
42
43
44
45
46
47
48
49
50
51
52
53
54
55
56
57
58
59
60
61
62
63
64
65
66
67
68
69
70
71
72
73
74
75
76
77
78
79
80
81
82
83
84
85
86
87
88
89
90
91
92
93
94
95
96
97
98
99
100
101
102
103
104
105
106
107
108
109
110
111
112
113
114
115
116
117
118
119
120
121
122
123
124
125
126
127
128
129
130
131
132
133
134
135
136
137
138
139
140
141
142
143
144
145
146
147
148
149
0
1
2
3
4
5
6
7
8
9
10
11
12
13
14
15
16
17
18
19
20
21
22
23
24
25
26
27
28
29
30
31
32
33
34
35
36
37
38
39
40
41
42
43
44
45
46
47
48
49
50
51
52
53
54
55
56
57
58
59
60
61
62
63
64
65
66
67
68
69
70
71
72
73
74
75
76
77
78
79
80
81
82
83
84
85
86
87
88
89
90
91
92
93
94
95
96
97
98
99
100
101
102
103
104
105
106
107
108
109
110
111
112
113
114
115
116
117
118
119
120
121
122
123
124
125
126
127
128
129
130
131
132
133
134
135
136
137
138
139
140
141
142
143
144
145
146
147
148
149
150
151
152
153
154
155
156
157
158
159
160
161
162
163
164
165
166
167
168
169
170
171
172
173
174
175
176
177
178
179
180
181
182
183
184
185
186
187
188
189
190
191
192
193
194
195
196
197
198
199
200
201
202
203
204
205
206
207
208
209
210
211
212
213
214
215
216
217
218
219
220
221
222
223
224
225
226
227
228
229
230
231
232
233
234
235
236
237
238
239
240
241
242
243
244
245
246
247
248
249
250
251
252
253
254
255
256
257
258
259
260
261
262
263
264
265
266
267
268
269
270
271
272
273
274
275
276
277
278
279
280
281
282
283
284
285
286
287
288
289
290
291
292
293
294
295
296
297
298
299
0
1
2
3
4
5
6
7
8
9
10
11
12
13
14
15
16
17
18
19
20
21
22
23
24
25
26
27
28
29
30
31
32
33
34
35
36
37
38
39
40
41
42
43
44
45
46
47
48
49
50
51
52
53
54
55
56
57
58
59
60
61
62
63
64
65
66
67
68
69
70
71
72
73
74
75
76
77
78
79
80
81
82
83
84
85
86
87
88
89
90
91
92
93
94
95
96
97
98
99
100
101
102
103
104
105
106
107
108
109
110
111
112
113
114
115
116
117
118
119
120
121
122
123
124
125
126
127
128
129
130
131
132
133
134
135
136
137
138
139
140
141
142
143
144
145
146
147
148
149
150
151
152
153
154
155
156
157
158
159
160
161
162
163
164
165
166
167
168
169
170
171
172
173
174
175
176
177
178
179
180
181
182
183
184
185
186
187
188
189
190
191
192
193
194
195
196
197
198
199
200
201
202
203
204
205
206
207
208
209
210
211
212
213
214
215
216
217
218
219
220
221
222
223
224
225
226
227
228
229
230
231
232
233
234
235
236
237
238
239
240
241
242
243
244
245
246
247
248
249
