# vtk DataFile Version 3.0
patient_0003 anatomical LCA centerlines
ASCII
DATASET POLYDATA
POINTS 700 float
0.00000000 0.00000000 0.00000000
0.03610938 0.00508645 0.00256490
0.07173736 0.01006456 0.00502582
0.10689049 0.01493541 0.00738417
0.14157532 0.01970008 0.00964137
0.17579840 0.02435967 0.01179882
0.20956628 0.02891525 0.01385796
0.24288550 0.03336792 0.01582019
0.27576263 0.03771875 0.01768692
0.30820420 0.04196883 0.01945957
0.34021676 0.04611925 0.02113956
0.37180688 0.05017109 0.02272830
0.40298109 0.05412544 0.02422720
0.43374595 0.05798338 0.02563768
0.46410800 0.06174600 0.02696116
0.49407380 0.06541438 0.02819905
0.52364989 0.06898961 0.02935276
0.55284283 0.07247278 0.03042371
0.58165916 0.07586496 0.03141331
0.61010543 0.07916724 0.03232298
0.63818820 0.08238072 0.03315413
0.66591402 0.08550647 0.03390818
0.69328942 0.08854558 0.03458654
0.72032097 0.09149913 0.03519063
0.74701521 0.09436821 0.03572186
0.77337870 0.09715391 0.03618165
0.79941797 0.09985730 0.03657140
0.82513959 0.10247949 0.03689255
0.85055010 0.10502154 0.03714649
0.87565604 0.10748455 0.03733465
0.90046398 0.10986959 0.03745844
0.92498046 0.11217777 0.03751927
0.94921203 0.11441015 0.03751856
0.97316524 0.11656784 0.03745773
0.99684663 0.11865190 0.03733819
1.02026277 0.12066343 0.03716134
1.04342019 0.12260351 0.03692862
1.06632545 0.12447323 0.03664143
1.08898510 0.12627367 0.03630119
1.11140569 0.12800592 0.03590931
1.13359376 0.12967106 0.03546721
1.15555587 0.13127018 0.03497630
1.17729857 0.13280436 0.03443799
1.19882840 0.13427469 0.03385371
1.22015192 0.13568225 0.03322487
1.24127567 0.13702813 0.03255287
1.26220621 0.13831342 0.03183914
1.28295009 0.13953919 0.03108509
1.30351384 0.14070654 0.03029214
1.32390403 0.14181654 0.02946169
1.34412721 0.14287029 0.02859517
1.36418992 0.14386887 0.02769399
1.38409871 0.14481337 0.02675956
1.40386013 0.14570487 0.02579330
1.42348074 0.14654445 0.02479663
1.44296708 0.14733320 0.02377095
1.46232569 0.14807220 0.02271769
1.48156315 0.14876255 0.02163825
1.50068598 0.14940532 0.02053406
1.51970074 0.15000161 0.01940652
1.53861398 0.15055249 0.01825705
1.55743225 0.15105905 0.01708707
1.57616210 0.15152238 0.01589800
1.59481009 0.15194356 0.01469123
1.61338275 0.15232367 0.01346820
1.63188663 0.15266381 0.01223032
1.65032830 0.15296506 0.01097899
1.66871430 0.15322850 0.00971564
1.68705117 0.15345521 0.00844168
1.70534547 0.15364629 0.00715852
1.72360374 0.15380282 0.00586758
1.74183254 0.15392588 0.00457028
1.76003842 0.15401656 0.00326802
1.77822793 0.15407594 0.00196223
1.79640761 0.15410511 0.00065431
1.81458401 0.15410511 -0.00065431
1.83276369 0.15407594 -0.00196223
1.85095320 0.15401656 -0.00326802
1.86915908 0.15392588 -0.00457028
1.88738788 0.15380282 -0.00586758
1.90564616 0.15364629 -0.00715852
1.92394045 0.15345521 -0.00844168
1.94227733 0.15322850 -0.00971564
1.96066332 0.15296506 -0.01097899
1.97910499 0.15266381 -0.01223032
1.99760888 0.15232367 -0.01346820
2.01618154 0.15194356 -0.01469123
2.03482952 0.15152238 -0.01589800
2.05355937 0.15105905 -0.01708707
2.07237764 0.15055249 -0.01825705
2.09129088 0.15000161 -0.01940652
2.11030564 0.14940532 -0.02053406
2.12942848 0.14876255 -0.02163825
2.14866593 0.14807220 -0.02271769
2.16802455 0.14733320 -0.02377095
2.18751088 0.14654445 -0.02479663
2.20713149 0.14570487 -0.02579330
2.22689291 0.14481337 -0.02675956
2.24680170 0.14386887 -0.02769399
2.26686441 0.14287029 -0.02859517
2.28708759 0.14181654 -0.02946169
2.30747778 0.14070654 -0.03029214
2.32804154 0.13953919 -0.03108509
2.34878541 0.13831342 -0.03183914
2.36971595 0.13702813 -0.03255287
2.39083970 0.13568225 -0.03322487
2.41216322 0.13427469 -0.03385371
2.43369305 0.13280436 -0.03443799
2.45543575 0.13127018 -0.03497630
2.47739786 0.12967106 -0.03546721
2.49958593 0.12800592 -0.03590931
2.52200652 0.12627367 -0.03630119
2.54466617 0.12447323 -0.03664143
2.56757143 0.12260351 -0.03692862
2.59072885 0.12066343 -0.03716134
2.61414499 0.11865190 -0.03733819
2.63782638 0.11656784 -0.03745773
2.66177959 0.11441015 -0.03751856
2.68601116 0.11217777 -0.03751927
2.71052764 0.10986959 -0.03745844
2.73533558 0.10748455 -0.03733465
2.76044152 0.10502154 -0.03714649
2.78585203 0.10247949 -0.03689255
2.81157365 0.09985730 -0.03657140
2.83761292 0.09715391 -0.03618165
2.86397641 0.09436821 -0.03572186
2.89067065 0.09149913 -0.03519063
2.91770220 0.08854558 -0.03458654
2.94507760 0.08550647 -0.03390818
2.97280342 0.08238072 -0.03315413
3.00088619 0.07916724 -0.03232298
3.02933246 0.07586496 -0.03141331
3.05814880 0.07247278 -0.03042371
3.08734173 0.06898961 -0.02935276
3.11691783 0.06541438 -0.02819905
3.14688362 0.06174600 -0.02696116
3.17724568 0.05798338 -0.02563768
3.20801053 0.05412544 -0.02422720
3.23918474 0.05017109 -0.02272830
3.27077486 0.04611925 -0.02113956
3.30278742 0.04196883 -0.01945957
3.33522900 0.03771875 -0.01768692
3.36810612 0.03336792 -0.01582019
3.40142534 0.02891525 -0.01385796
3.43519322 0.02435967 -0.01179882
3.46941630 0.01970008 -0.00964137
3.50410113 0.01493541 -0.00738417
3.53925426 0.01006456 -0.00502582
3.57488224 0.00508645 -0.00256490
3.61099162 0.00000000 -0.00000000
3.61099162 0.00000000 -0.00000000
3.90404733 -0.11758417 -0.57200068
4.18802358 -0.23137438 -1.12849048
4.46315067 -0.34146550 -1.66987925
4.72965889 -0.44795239 -2.19657685
4.98777854 -0.55092989 -2.70899313
5.23773993 -0.65049287 -3.20753796
5.47977334 -0.74673619 -3.69262118
5.71410908 -0.83975471 -4.16465265
5.94097744 -0.92964328 -4.62404223
6.16060872 -1.01649676 -5.07119977
6.37323322 -1.10041001 -5.50653514
6.57908123 -1.18147789 -5.93045818
6.77838306 -1.25979525 -6.34337875
6.97136900 -1.33545696 -6.74570671
7.15826935 -1.40855788 -7.13785191
7.33931441 -1.47919285 -7.52022421
7.51473447 -1.54745674 -7.89323347
7.68475984 -1.61344442 -8.25728954
7.84962080 -1.67725072 -8.61280227
8.00954766 -1.73897053 -8.96018153
8.16477072 -1.79869868 -9.29983716
8.31552027 -1.85653005 -9.63217903
8.46202661 -1.91255948 -9.95761699
8.60452004 -1.96688184 -10.27656090
8.74323086 -2.01959199 -10.58942061
8.87838936 -2.07078478 -10.89660597
9.01022584 -2.12055507 -11.19852685
9.13897060 -2.16899772 -11.49559310
9.26485394 -2.21620759 -11.78821457
9.38810615 -2.26227954 -12.07680113
9.50895753 -2.30730842 -12.36176262
9.62763839 -2.35138909 -12.64350890
9.74437901 -2.39461641 -12.92244984
9.85939482 -2.43707893 -13.19897079
9.97278303 -2.47881506 -13.47326262
10.08458452 -2.51983929 -13.74542344
10.19483979 -2.56016598 -14.01555082
10.30358937 -2.59980947 -14.28374229
10.41087377 -2.63878413 -14.55009540
10.51673350 -2.67710430 -14.81470770
10.62120909 -2.71478433 -15.07767673
10.72434105 -2.75183858 -15.33910004
10.82616990 -2.78828141 -15.59907518
10.92673615 -2.82412715 -15.85769969
11.02608032 -2.85939018 -16.11507113
11.12424292 -2.89408482 -16.37128703
11.22126448 -2.92822545 -16.62644494
11.31718550 -2.96182641 -16.88064242
11.41204651 -2.99490206 -17.13397700
11.50588802 -3.02746674 -17.38654624
11.59875054 -3.05953481 -17.63844768
11.69067460 -3.09112063 -17.88977886
11.78170071 -3.12223853 -18.14063735
11.87186939 -3.15290289 -18.39112067
11.96122115 -3.18312804 -18.64132638
12.04979650 -3.21292834 -18.89135202
12.13763598 -3.24231815 -19.14129515
12.22478008 -3.27131181 -19.39125330
12.31126933 -3.29992368 -19.64132403
12.39714425 -3.32816810 -19.89160488
12.48244535 -3.35605945 -20.14219340
12.56721315 -3.38361205 -20.39318713
12.65148815 -3.41084027 -20.64468363
12.73531089 -3.43775847 -20.89678043
12.81872188 -3.46438098 -21.14957509
12.90176163 -3.49072217 -21.40316515
12.98446944 -3.51679593 -21.65764518
13.06686286 -3.54260797 -21.91305629
13.14894058 -3.56815694 -22.16939333
13.23070069 -3.59344123 -22.42664964
13.31214127 -3.61845924 -22.68481856
13.39326040 -3.64320939 -22.94389342
13.47405618 -3.66769006 -23.20386756
13.55452667 -3.69189967 -23.46473431
13.63466998 -3.71583662 -23.72648700
13.71448417 -3.73949931 -23.98911898
13.79396733 -3.76288615 -24.25262358
13.87311755 -3.78599553 -24.51699413
13.95193291 -3.80882586 -24.78222397
14.03041149 -3.83137554 -25.04830643
14.10855137 -3.85364297 -25.31523485
14.18635065 -3.87562657 -25.58300257
14.26380740 -3.89732472 -25.85160291
14.34091970 -3.91873584 -26.12102922
14.41768565 -3.93985833 -26.39127483
14.49410331 -3.96069058 -26.66233308
14.57017079 -3.98123100 -26.93419730
14.64588615 -4.00147800 -27.20686082
14.72124748 -4.02142998 -27.48031699
14.79625288 -4.04108534 -27.75455913
14.87090041 -4.06044248 -28.02958059
14.94518817 -4.07949981 -28.30537469
15.01911423 -4.09825573 -28.58193477
15.09267668 -4.11670864 -28.85925418
15.16587361 -4.13485694 -29.13732623
15.23870309 -4.15269904 -29.41614428
15.31116322 -4.17023334 -29.69570165
15.38325207 -4.18745825 -29.97599168
15.45496772 -4.20437216 -30.25700770
15.52630827 -4.22097348 -30.53874301
15.59727215 -4.23726091 -30.82118838
15.66785831 -4.25323357 -31.10433063
15.73806575 -4.26889064 -31.38815628
15.80789348 -4.28423127 -31.67265183
15.87734049 -4.29925465 -31.95780377
15.94640578 -4.31395992 -32.24359863
16.01508837 -4.32834628 -32.53002289
16.08338724 -4.34241287 -32.81706306
16.15130140 -4.35615887 -33.10470565
16.21882985 -4.36958344 -33.39293716
16.28597160 -4.38268576 -33.68174409
16.35272564 -4.39546499 -33.97111294
16.41909098 -4.40792030 -34.26103023
16.48506661 -4.42005086 -34.55148244
16.55065154 -4.43185583 -34.84245609
16.61584476 -4.44333439 -35.13393768
16.68064529 -4.45448569 -35.42591371
16.74505212 -4.46530891 -35.71837069
16.80906425 -4.47580322 -36.01129512
16.87268069 -4.48596778 -36.30467350
16.93590043 -4.49580176 -36.59849233
16.99872247 -4.50530433 -36.89273813
17.06114583 -4.51447466 -37.18739739
17.12316949 -4.52331191 -37.48245661
17.18479246 -4.53181525 -37.77790230
17.24601375 -4.53998385 -38.07372097
17.30683235 -4.54781688 -38.36989911
17.36724726 -4.55531350 -38.66642323
17.42725748 -4.56247289 -38.96327983
17.48686202 -4.56929421 -39.26045542
17.54605988 -4.57577662 -39.55793650
17.60485006 -4.58191930 -39.85570958
17.66323156 -4.58772141 -40.15376114
17.72120360 -4.59318231 -40.45207713
17.77876608 -4.59830191 -40.75064179
17.83591900 -4.60308020 -41.04943909
17.89266234 -4.60751719 -41.34845296
17.94899612 -4.61161287 -41.64766739
18.00492032 -4.61536724 -41.94706631
18.06043496 -4.61878030 -42.24663368
18.11554004 -4.62185206 -42.54635347
18.17023554 -4.62458251 -42.84620963
18.22452148 -4.62697166 -43.14618612
18.27839785 -4.62901950 -43.44626688
18.33186465 -4.63072603 -43.74643589
18.38492188 -4.63209125 -44.04667709
18.43756955 -4.63311517 -44.34697445
18.48980765 -4.63379779 -44.64731191
18.54163618 -4.63413909 -44.94767344
18.59305514 -4.63413909 -45.24804299
18.64406454 -4.63379779 -45.54840452
18.69466436 -4.63311517 -45.84874198
18.74485462 -4.63209125 -46.14903933
18.79463532 -4.63072603 -46.44928053
18.84400644 -4.62901950 -46.74944954
18.89296799 -4.62697166 -47.04953031
18.94151998 -4.62458251 -47.34950679
18.98966240 -4.62185206 -47.64936295
19.03739526 -4.61878030 -47.94908274
19.08471854 -4.61536724 -48.24865012
19.13163226 -4.61161287 -48.54804904
19.17813641 -4.60751719 -48.84726346
19.22423099 -4.60308020 -49.14627734
19.26991600 -4.59830191 -49.44507463
19.31519145 -4.59318231 -49.74363929
19.36005733 -4.58772141 -50.04195528
19.40451375 -4.58191930 -50.34000685
19.44856150 -4.57577662 -50.63777992
19.49220157 -4.56929421 -50.93526100
19.53543495 -4.56247289 -51.23243659
19.57826265 -4.55531350 -51.52929320
19.62068567 -4.54781688 -51.82581732
19.66270500 -4.53998385 -52.12199546
19.70432164 -4.53181525 -52.41781413
19.74553659 -4.52331191 -52.71325982
19.78635085 -4.51447466 -53.00831904
19.82676542 -4.50530433 -53.30297830
19.86678130 -4.49580176 -53.59722409
19.90639949 -4.48596778 -53.89104293
19.94562098 -4.47580322 -54.18442131
19.98444677 -4.46530891 -54.47734573
20.02287787 -4.45448569 -54.76980271
20.06091526 -4.44333439 -55.06177874
20.09855996 -4.43185583 -55.35326033
20.13581296 -4.42005086 -55.64423398
20.17267525 -4.40792030 -55.93468620
20.20914784 -4.39546499 -56.22460348
20.24523173 -4.38268576 -56.51397234
20.28092791 -4.36958344 -56.80277927
20.31623738 -4.35615887 -57.09101077
20.35116114 -4.34241287 -57.37865336
20.38570019 -4.32834628 -57.66569354
20.41985554 -4.31395992 -57.95211780
20.45362816 -4.29925465 -58.23791265
20.48701908 -4.28423127 -58.52306460
20.52002928 -4.26889064 -58.80756015
20.55265977 -4.25323357 -59.09138580
20.58491153 -4.23726091 -59.37452805
20.61678558 -4.22097348 -59.65697341
20.64828295 -4.20437216 -59.93870872
20.67940522 -4.18745825 -60.21972475
20.71015430 -4.17023334 -60.50001478
20.74053210 -4.15269904 -60.77957215
20.77054054 -4.13485694 -61.05839019
20.80018154 -4.11670864 -61.33646225
20.82945701 -4.09825573 -61.61378165
20.85836888 -4.07949981 -61.89034174
20.88691905 -4.06044248 -62.16613584
20.91510944 -4.04108534 -62.44115730
20.94294197 -4.02142998 -62.71539944
20.97041856 -4.00147800 -62.98885560
20.99754112 -3.98123100 -63.26151913
21.02431157 -3.96069058 -63.53338335
21.05073183 -3.93985833 -63.80444159
21.07680381 -3.91873584 -64.07468720
21.10252944 -3.89732472 -64.34411351
21.12791061 -3.87562657 -64.61271386
21.15294926 -3.85364297 -64.88048157
21.17764730 -3.83137554 -65.14741000
21.20200665 -3.80882586 -65.41349246
21.22602921 -3.78599553 -65.67872230
21.24971692 -3.76288615 -65.94309285
21.27307168 -3.73949931 -66.20659744
21.29609542 -3.71583662 -66.46922942
21.31879004 -3.69189967 -66.73098212
21.34115747 -3.66769006 -66.99184887
21.36319962 -3.64320939 -67.25182300
21.38491841 -3.61845924 -67.51089786
21.40631576 -3.59344123 -67.76906678
21.42739357 -3.56815694 -68.02632309
21.44815378 -3.54260797 -68.28266014
21.46859829 -3.51679593 -68.53807124
21.48872908 -3.49072217 -68.79255127
21.50854997 -3.46438098 -69.04614134
21.52806693 -3.43775847 -69.29893599
21.54728600 -3.41084027 -69.55103280
21.56621328 -3.38361205 -69.80252929
21.58485482 -3.35605945 -70.05352303
21.60321670 -3.32816810 -70.30411155
21.62130498 -3.29992368 -70.55439240
21.63912575 -3.27131181 -70.80446312
21.65668507 -3.24231815 -71.05442128
21.67398901 -3.21292834 -71.30436440
21.69104364 -3.18312804 -71.55439005
21.70785504 -3.15290289 -71.80459576
21.72442927 -3.12223853 -72.05507908
21.74077240 -3.09112063 -72.30593756
21.75689051 -3.05953481 -72.55726875
21.77278966 -3.02746674 -72.80917019
21.78847593 -2.99490206 -73.06173942
21.80395539 -2.96182641 -73.31507401
21.81923411 -2.92822545 -73.56927148
21.83431816 -2.89408482 -73.82442940
21.84921360 -2.85939018 -74.08064530
21.86392652 -2.82412715 -74.33801673
21.87846297 -2.78828141 -74.59664124
21.89282904 -2.75183858 -74.85661638
21.90703080 -2.71478433 -75.11803969
21.92107430 -2.67710430 -75.38100873
21.93496563 -2.63878413 -75.64562102
21.94871086 -2.59980947 -75.91197413
21.96231605 -2.56016598 -76.18016560
21.97578728 -2.51983929 -76.45029298
21.98913061 -2.47881506 -76.72245381
22.00235212 -2.43707893 -76.99674564
22.01545788 -2.39461641 -77.27326659
22.02845292 -2.35138909 -77.55220752
22.04134016 -2.30730842 -77.83395381
22.05412223 -2.26227954 -78.11891530
22.06680178 -2.21620759 -78.40750185
22.07938143 -2.16899772 -78.70012333
22.09186382 -2.12055507 -78.99718957
22.10425161 -2.07078478 -79.29911045
22.11654741 -2.01959199 -79.60629582
22.12875387 -1.96688184 -79.91915553
22.14087364 -1.91255948 -80.23809943
22.15290934 -1.85653005 -80.56353739
22.16486361 -1.79869868 -80.89587926
22.17673910 -1.73897053 -81.23553490
22.18853844 -1.67725072 -81.58291415
22.20026426 -1.61344442 -81.93842689
22.21191921 -1.54745674 -82.30248295
22.22350593 -1.47919285 -82.67549221
22.23502705 -1.40855788 -83.05786451
22.24648520 -1.33545696 -83.45000972
22.25788304 -1.25979525 -83.85233767
22.26922319 -1.18147789 -84.26525825
22.28050830 -1.10041001 -84.68918129
22.29174099 -1.01649676 -85.12451665
22.30292392 -0.92964328 -85.57167420
22.31405972 -0.83975471 -86.03106378
22.32515102 -0.74673619 -86.50309525
22.33620046 -0.65049287 -86.98817847
22.34721069 -0.55092989 -87.48672330
22.35818434 -0.44795239 -87.99913958
22.36912404 -0.34146550 -88.52583718
22.38003244 -0.23137438 -89.06722595
22.39091217 -0.11758417 -89.62371575
22.40176588 -0.00000000 -90.19571643
3.61099162 0.00000000 -0.00000000
3.50176089 0.97128971 -0.25373037
3.38987966 1.91460989 -0.49952350
3.27542013 2.83062295 -0.73756242
3.15845450 3.71999131 -0.96803016
3.03905498 4.58337738 -1.19110976
2.91729378 5.42144359 -1.40698424
2.79324310 6.23485234 -1.61583665
2.66697514 7.02426605 -1.81785000
2.53856212 7.79034714 -2.01320734
2.40807624 8.53375803 -2.20209168
2.27558971 9.25516113 -2.38468608
2.14117472 9.95521886 -2.56117355
2.00490349 10.63459363 -2.73173712
1.86684821 11.29394785 -2.89655984
1.72708111 11.93394396 -3.05582473
1.58567438 12.55524435 -3.20971482
1.44270022 13.15851145 -3.35841315
1.29823085 13.74440767 -3.50210274
1.15233847 14.31359543 -3.64096663
1.00509528 14.86673715 -3.77518785
0.85657349 15.40449523 -3.90494943
0.70684531 15.92753211 -4.03043441
0.55598294 16.43651018 -4.15182581
0.40405858 16.93209188 -4.26930666
0.25114445 17.41493960 -4.38306000
0.09731275 17.88571578 -4.49326886
-0.05736432 18.34508283 -4.60011628
-0.21281455 18.79370316 -4.70378527
-0.36896574 19.23223919 -4.80445888
-0.52574567 19.66135333 -4.90232014
-0.68308215 20.08170800 -4.99755207
-0.84090297 20.49396562 -5.09033772
-0.99913592 20.89878860 -5.18086010
-1.15770879 21.29683936 -5.26930226
-1.31654939 21.68878032 -5.35584722
-1.47558682 22.07526674 -5.44067593
-1.63479367 22.45671784 -5.52390065
-1.79419492 22.83326834 -5.60555081
-1.95381868 23.20503604 -5.68565091
-2.11369304 23.57213873 -5.76422549
-2.27384612 23.93469419 -5.84129903
-2.43430601 24.29282023 -5.91689606
-2.59510081 24.64663462 -5.99104109
-2.75625864 24.99625516 -6.06375862
-2.91780758 25.34179963 -6.13507316
-3.07977575 25.68338584 -6.20500924
-3.24219125 26.02113157 -6.27359136
-3.40508218 26.35515460 -6.34084402
-3.56847663 26.68557274 -6.40679174
-3.73240273 27.01250377 -6.47145904
-3.89688856 27.33606547 -6.53487042
-4.06196224 27.65637565 -6.59705039
-4.22765185 27.97355210 -6.65802347
-4.39398552 28.28771259 -6.71781416
-4.56099133 28.59897493 -6.77644698
-4.72869740 28.90745690 -6.83394643
-4.89713182 29.21327629 -6.89033703
-5.06632269 29.51655090 -6.94564329
-5.23629813 29.81739851 -6.99988972
-5.40708623 30.11593692 -7.05310084
-5.57871510 30.41228391 -7.10530114
-5.75121283 30.70655727 -7.15651514
-5.92460754 30.99887481 -7.20676736
-6.09892732 31.28935430 -7.25608230
-6.27420028 31.57811353 -7.30448447
-6.45045452 31.86527031 -7.35199840
-6.62771813 32.15094241 -7.39864857
-6.80601924 32.43524763 -7.44445952
-6.98538593 32.71830375 -7.48945574
-7.16584631 33.00022858 -7.53366176
-7.34742849 33.28113989 -7.57710207
-7.53015589 33.56114242 -7.61979832
-7.71402313 33.84026026 -7.66175444
-7.89901384 34.11848676 -7.70296758
-8.08511164 34.39581524 -7.74343491
-8.27230011 34.67223900 -7.78315359
-8.46056289 34.94775134 -7.82212075
-8.64988357 35.22234556 -7.86033358
-8.84024577 35.49601497 -7.89778920
-9.03163310 35.76875287 -7.93448480
-9.22402915 36.04055257 -7.97041751
-9.41741755 36.31140736 -8.00558450
-9.61178190 36.58131056 -8.03998291
-9.80710581 36.85025546 -8.07360992
-10.00337288 37.11823538 -8.10646266
-10.20056674 37.38524360 -8.13853831
-10.39867098 37.65127344 -8.16983400
-10.59766922 37.91631820 -8.20034690
-10.79754507 38.18037118 -8.23007417
-10.99828212 38.44342569 -8.25901296
-11.19986401 38.70547503 -8.28716042
-11.40227432 38.96651250 -8.31451371
-11.60549667 39.22653141 -8.34106999
-11.80951468 39.48552507 -8.36682641
-12.01431194 39.74348676 -8.39178013
-12.21987207 40.00040980 -8.41592830
-12.42617868 40.25628750 -8.43926809
-12.63321537 40.51111315 -8.46179663
-12.84096576 40.76488005 -8.48351109
-13.04941345 41.01758152 -8.50440863
-13.25854205 41.26921085 -8.52448641
-13.46833518 41.51976136 -8.54374156
-13.67877644 41.76922633 -8.56217126
-13.88984943 42.01759908 -8.57977266
-14.10153778 42.26487291 -8.59654291
-14.31382508 42.51104112 -8.61247917
-14.52669495 42.75609703 -8.62757861
-14.74013042 43.00003435 -8.64183935
-14.95411356 43.24284756 -8.65526122
-15.16862635 43.48453121 -8.66784423
-15.38365075 43.72507983 -8.67958837
-15.59916873 43.96448797 -8.69049364
-15.81516225 44.20275018 -8.70056005
-16.03161330 44.43986101 -8.70978759
-16.24850382 44.67581498 -8.71817626
-16.46581580 44.91060666 -8.72572606
-16.68353119 45.14423058 -8.73243700
-16.90163197 45.37668128 -8.73830907
-17.12010011 45.60795332 -8.74334227
-17.33891757 45.83804124 -8.74753661
-17.55806633 46.06693958 -8.75089208
-17.77752834 46.29464288 -8.75340868
-17.99728559 46.52114570 -8.75508641
-18.21732002 46.74644257 -8.75592528
-18.43761363 46.97052804 -8.75592528
-18.65814836 47.19339665 -8.75508641
-18.87890619 47.41504295 -8.75340868
-19.09986910 47.63546148 -8.75089208
-19.32101904 47.85464678 -8.74753661
-19.54233798 48.07259341 -8.74334227
-19.76380790 48.28929591 -8.73830907
-19.98541076 48.50474881 -8.73243700
-20.20712852 48.71894666 -8.72572606
-20.42894317 48.93188402 -8.71817626
-20.65083666 49.14355542 -8.70978759
-20.87279096 49.35395540 -8.70056005
-21.09478804 49.56307852 -8.69049364
-21.31680987 49.77091931 -8.67958837
-21.53883842 49.97747233 -8.66784423
-21.76085565 50.18273210 -8.65526122
-21.98284354 50.38669319 -8.64183935
-22.20478405 50.58935013 -8.62757861
-22.42665916 50.79069756 -8.61247917
-22.64845098 50.99073097 -8.59654291
-22.87014166 51.18944637 -8.57977266
-23.09171340 51.38683975 -8.56217126
-23.31314834 51.58290712 -8.54374156
-23.53442868 51.77764447 -8.52448641
-23.75553657 51.97104781 -8.50440863
-23.97645419 52.16311314 -8.48351109
-24.19716371 52.35383646 -8.46179663
-24.41764729 52.54321376 -8.43926809
-24.63788712 52.73124106 -8.41592830
-24.85786536 52.91791434 -8.39178013
-25.07756419 53.10322962 -8.36682641
-25.29696576 53.28718289 -8.34106999
-25.51605226 53.46977016 -8.31451371
-25.73480586 53.65098741 -8.28716042
-25.95320872 53.83083067 -8.25901296
-26.17124302 54.00929592 -8.23007417
-26.38889092 54.18637916 -8.20034690
-26.60613461 54.36207640 -8.16983400
-26.82295625 54.53638364 -8.13853831
-27.03933800 54.70929689 -8.10646266
-27.25526205 54.88081213 -8.07360992
-27.47071056 55.05092537 -8.03998291
-27.68566570 55.21963261 -8.00558450
-27.90010965 55.38692985 -7.97041751
-28.11402458 55.55281310 -7.93448480
-28.32739265 55.71727836 -7.89778920
-28.54019603 55.88032161 -7.86033358
-28.75241691 56.04193888 -7.82212075
-28.96403744 56.20212615 -7.78315359
-29.17503980 56.36087942 -7.74343491
-29.38540617 56.51819471 -7.70296758
-29.59511870 56.67406800 -7.66175444
-29.80415958 56.82849531 -7.61979832
-30.01251100 56.98147264 -7.57710207
-30.22017035 57.13300342 -7.53366176
-30.42717483 57.28311052 -7.48945574
-30.63356812 57.43181998 -7.44445952
-30.83939388 57.57915780 -7.39864857
-31.04469578 57.72515002 -7.35199840
-31.24951750 57.86982265 -7.30448447
-31.45390268 58.01320173 -7.25608230
-31.65789502 58.15531327 -7.20676736
-31.86153816 58.29618329 -7.15651514
-32.06487579 58.43583783 -7.10530114
-32.26795156 58.57430291 -7.05310084
-32.47080915 58.71160454 -6.99988972
-32.67349223 58.84776875 -6.94564329
-32.87604445 58.98282156 -6.89033703
-33.07850950 59.11678901 -6.83394643
-33.28093103 59.24969710 -6.77644698
-33.48335272 59.38157187 -6.71781416
-33.68581823 59.51243934 -6.65802347
-33.88837123 59.64232553 -6.59705039
-34.09105540 59.77125647 -6.53487042
-34.29391438 59.89925817 -6.47145904
-34.49699187 60.02635666 -6.40679174
-34.70033151 60.15257797 -6.34084402
-34.90397699 60.27794812 -6.27359136
-35.10797197 60.40249313 -6.20500924
-35.31236011 60.52623903 -6.13507316
-35.51718508 60.64921183 -6.06375862
-35.72249056 60.77143757 -5.99104109
-35.92832021 60.89294226 -5.91689606
-36.13471769 61.01375193 -5.84129903
-36.34172668 61.13389260 -5.76422549
-36.54939084 61.25339029 -5.68565091
-36.75775385 61.37227104 -5.60555081
-36.96685936 61.49056086 -5.52390065
-37.17675105 61.60828577 -5.44067593
-37.38747267 61.72546856 -5.35584722
-37.59906934 61.84207755 -5.26930226
-37.81158734 61.95803587 -5.18086010
-38.02507297 62.07326529 -5.09033772
-38.23957254 62.18768757 -4.99755207
-38.45513235 62.30122448 -4.90232014
-38.67179870 62.41379778 -4.80445888
-38.88961792 62.52532923 -4.70378527
-39.10863629 62.63574061 -4.60011628
-39.32890014 62.74495368 -4.49326886
-39.55045575 62.85289020 -4.38306000
-39.77334944 62.95947194 -4.26930666
-39.99762752 63.06462066 -4.15182581
-40.22333628 63.16825814 -4.03043441
-40.45052204 63.27030612 -3.90494943
-40.67923110 63.37068639 -3.77518785
-40.90950977 63.46932070 -3.64096663
-41.14140436 63.56613082 -3.50210274
-41.37496116 63.66103851 -3.35841315
-41.61022648 63.75396555 -3.20971482
-41.84724664 63.84483369 -3.05582473
-42.08606793 63.93356470 -2.89655984
-42.32673666 64.02008035 -2.73173712
-42.56929915 64.10430240 -2.56117355
-42.81380168 64.18615261 -2.38468608
-43.06029057 64.26555276 -2.20209168
-43.30881213 64.34242460 -2.01320734
-43.55941266 64.41668991 -1.81785000
-43.81213847 64.48827044 -1.61583665
-44.06703586 64.55708796 -1.40698424
-44.32415114 64.62306425 -1.19110976
-44.58353061 64.68612105 -0.96803016
-44.84522058 64.74618014 -0.73756242
-45.10926736 64.80316329 -0.49952350
-45.37571725 64.85699226 -0.25373037
-45.64461656 64.90758881 -0.00000000
LINES 3 703
150 0 1 2 3 4 5 6 7 8 9 10 11 12 13 14 15 16 17 18 19 20 21 22 23 24 25 26 27 28 29 30 31 32 33 34 35 36 37 38 39 40 41 42 43 44 45 46 47 48 49 50 51 52 53 54 55 56 57 58 59 60 61 62 63 64 65 66 67 68 69 70 71 72 73 74 75 76 77 78 79 80 81 82 83 84 85 86 87 88 89 90 91 92 93 94 95 96 97 98 99 100 101 102 103 104 105 106 107 108 109 110 111 112 113 114 115 116 117 118 119 120 121 122 123 124 125 126 127 128 129 130 131 132 133 134 135 136 137 138 139 140 141 142 143 144 145 146 147 148 149
300 150 151 152 153 154 155 156 157 158 159 160 161 162 163 164 165 166 167 168 169 170 171 172 173 174 175 176 177 178 179 180 181 182 183 184 185 186 187 188 189 190 191 192 193 194 195 196 197 198 199 200 201 202 203 204 205 206 207 208 209 210 211 212 213 214 215 216 217 218 219 220 221 222 223 224 225 226 227 228 229 230 231 232 233 234 235 236 237 238 239 240 241 242 243 244 245 246 247 248 249 250 251 252 253 254 255 256 257 258 259 260 261 262 263 264 265 266 267 268 269 270 271 272 273 274 275 276 277 278 279 280 281 282 283 284 285 286 287 288 289 290 291 292 293 294 295 296 297 298 299 300 301 302 303 304 305 306 307 308 309 310 311 312 313 314 315 316 317 318 319 320 321 322 323 324 325 326 327 328 329 330 331 332 333 334 335 336 337 338 339 340 341 342 343 344 345 346 347 348 349 350 351 352 353 354 355 356 357 358 359 360 361 362 363 364 365 366 367 368 369 370 371 372 373 374 375 376 377 378 379 380 381 382 383 384 385 386 387 388 389 390 391 392 393 394 395 396 397 398 399 400 401 402 403 404 405 406 407 408 409 410 411 412 413 414 415 416 417 418 419 420 421 422 423 424 425 426 427 428 429 430 431 432 433 434 435 436 437 438 439 440 441 442 443 444 445 446 447 448 449
250 450 451 452 453 454 455 456 457 458 459 460 461 462 463 464 465 466 467 468 469 470 471 472 473 474 475 476 477 478 479 480 481 482 483 484 485 486 487 488 489 490 491 492 493 494 495 496 497 498 499 500 501 502 503 504 505 506 507 508 509 510 511 512 513 514 515 516 517 518 519 520 521 522 523 524 525 526 527 528 529 530 531 532 533 534 535 536 537 538 539 540 541 542 543 544 545 546 547 548 549 550 551 552 553 554 555 556 557 558 559 560 561 562 563 564 565 566 567 568 569 570 571 572 573 574 575 576 577 578 579 580 581 582 583 584 585 586 587 588 589 590 591 592 593 594 595 596 597 598 599 600 601 602 603 604 605 606 607 608 609 610 611 612 613 614 615 616 617 618 619 620 621 622 623 624 625 626 627 628 629 630 631 632 633 634 635 636 637 638 639 640 641 642 643 644 645 646 647 648 649 650 651 652 653 654 655 656 657 658 659 660 661 662 663 664 665 666 667 668 669 670 671 672 673 674 675 676 677 678 679 680 681 682 683 684 685 686 687 688 689 690 691 692 693 694 695 696 697 698 699
POINT_DATA 700
SCALARS branch_id int 1
LOOKUP_TABLE default
1
1
1
1
1
1
1
1
1
1
1
1
1
1
1
1
1
1
1
1
1
1
1
1
1
1
1
1
1
1
1
1
1
1
1
1
1
1
1
1
1
1
1
1
1
1
1
1
1
1
1
1
1
1
1
1
1
1
1
1
1
1
1
1
1
1
1
1
1
1
1
1
1
1
1
1
1
1
1
1
1
1
1
1
1
1
1
1
1
1
1
1
1
1
1
1
1
1
1
1
1
1
1
1
1
1
1
1
1
1
1
1
1
1
1
1
1
1
1
1
1
1
1
1
1
1
1
1
1
1
1
1
1
1
1
1
1
1
1
1
1
1
1
1
1
1
1
1
1
1
2
2
2
2
2
2
2
2
2
2
2
2
2
2
2
2
2
2
2
2
2
2
2
2
2
2
2
2
2
2
2
2
2
2
2
2
2
2
2
2
2
2
2
2
2
2
2
2
2
2
2
2
2
2
2
2
2
2
2
2
2
2
2
2
2
2
2
2
2
2
2
2
2
2
2
2
2
2
2
2
2
2
2
2
2
2
2
2
2
2
2
2
2
2
2
2
2
2
2
2
2
2
2
2
2
2
2
2
2
2
2
2
2
2
2
2
2
2
2
2
2
2
2
2
2
2
2
2
2
2
2
2
2
2
2
2
2
2
2
2
2
2
2
2
2
2
2
2
2
2
2
2
2
2
2
2
2
2
2
2
2
2
2
2
2
2
2
2
2
2
2
2
2
2
2
2
2
2
2
2
2
2
2
2
2
2
2
2
2
2
2
2
2
2
2
2
2
2
2
2
2
2
2
2
2
2
2
2
2
2
2
2
2
2
2
2
2
2
2
2
2
2
2
2
2
2
2
2
2
2
2
2
2
2
2
2
2
2
2
2
2
2
2
2
2
2
2
2
2
2
2
2
2
2
2
2
2
2
2
2
2
2
2
2
2
2
2
2
2
2
2
2
2
2
2
2
2
2
2
2
2
2
2
2
2
2
2
2
2
2
2
2
2
2
2
2
2
2
2
2
3
3
3
3
3
3
3
3
3
3
3
3
3
3
3
3
3
3
3
3
3
3
3
3
3
3
3
3
3
3
3
3
3
3
3
3
3
3
3
3
3
3
3
3
3
3
3
3
3
3
3
3
3
3
3
3
3
3
3
3
3
3
3
3
3
3
3
3
3
3
3
3
3
3
3
3
3
3
3
3
3
3
3
3
3
3
3
3
3
3
3
3
3
3
3
3
3
3
3
3
3
3
3
3
3
3
3
3
3
3
3
3
3
3
3
3
3
3
3
3
3
3
3
3
3
3
3
3
3
3
3
3
3
3
3
3
3
3
3
3
3
3
3
3
3
3
3
3
3
3
3
3
3
3
3
3
3
3
3
3
3
3
3
3
3
3
3
3
3
3
3
3
3
3
3
3
3
3
3
3
3
3
3
3
3
3
3
3
3
3
3
3
3
3
3
3
3
3
3
3
3
3
3
3
3
3
3
3
3
3
3
3
3
3
3
3
3
3
3
3
3
3
3
3
3
3
3
3
3
3
3
3
3
3
3
3
3
3
3
3
3
3
3
3
3
3
3
3
3
3
SCALARS point_index int 1
LOOKUP_TABLE default
0
1
2
3
4
5
6
7
8
9
10
11
12
13
14
15
16
17
18
19
20
21
22
23
24
25
26
27
28
29
30
31
32
33
34
35
36
37
38
39
40
41
42
43
44
45
46
47
48
49
50
51
52
53
54
55
56
57
58
59
60
61
62
63
64
65
66
67
68
69
70
71
72
73
74
75
76
77
78
79
80
81
82
83
84
85
86
87
88
89
90
91
92
93
94
95
96
97
98
99
100
101
102
103
104
105
106
107
108
109
110
111
112
113
114
115
116
117
118
119
120
121
122
123
124
125
126
127
128
129
130
131
132
133
134
135
136
137
138
139
140
141
142
143
144
145
146
147
148
149
0
1
2
3
4
5
6
7
8
9
10
11
12
13
14
15
16
17
18
19
20
21
22
23
24
25
26
27
28
29
30
31
32
33
34
35
36
37
38
39
40
41
42
43
44
45
46
47
48
49
50
51
52
53
54
55
56
57
58
59
60
61
62
63
64
65
66
67
68
69
70
71
72
73
74
75
76
77
78
79
80
81
82
83
84
85
86
87
88
89
90
91
92
93
94
95
96
97
98
99
100
101
102
103
104
105
106
107
108
109
110
111
112
113
114
115
116
117
118
119
120
121
122
123
124
125
126
127
128
129
130
131
132
133
134
135
136
137
138
139
140
141
142
143
144
145
146
147
148
149
150
151
152
153
154
155
156
157
158
159
160
161
162
163
164
165
166
167
168
169
170
171
172
173
174
175
176
177
178
179
180
181
182
183
184
185
186
187
188
189
190
191
192
193
194
195
196
197
198
199
200
201
202
203
204
205
206
207
208
209
210
211
212
213
214
215
216
217
218
219
220
221
222
223
224
225
226
227
228
229
230
231
232
233
234
235
236
237
238
239
240
241
242
243
244
245
246
247
248
249
250
251
252
253
254
255
256
257
258
259
260
261
262
263
264
265
266
267
268
269
270
271
272
273
274
275
276
277
278
279
280
281
282
283
284
285
286
287
288
289
290
291
292
293
294
295
296
297
298
299
0
1
2
3
4
5
6
7
8
9
10
11
12
13
14
15
16
17
18
19
20
21
22
23
24
25
26
27
28
29
30
31
32
33
34
35
36
37
38
39
40
41
42
43
44
45
46
47
48
49
50
51
52
53
54
55
56
57
58
59
60
61
62
63
64
65
66
67
68
69
70
71
72
73
74
75
76
77
78
79
80
81
82
83
84
85
86
87
88
89
90
91
92
93
94
95
96
97
98
99
100
101
102
103
104
105
106
107
108
109
110
111
112
113
114
115
116
117
118
119
120
121
122
123
124
125
126
127
128
129
130
131
132
133
134
135
136
137
138
139
140
141
142
143
144
145
146
147
148
149
150
151
152
153
154
155
156
157
158
159
160
161
162
163
164
165
166
167
168
169
170
171
172
173
174
175
176
177
178
179
180
181
182
183
184
185
186
187
188
189
190
191
192
193
194
195
196
197
198
199
200
201
202
203
204
205
206
207
208
209
210
211
212
213
214
215
216
217
218
219
220
221
222
223
224
225
226
227
228
229
230
231
232
233
234
235
236
237
238
239
240
241
242
243
244
245
246
247
248
249
