# vtk DataFile Version 3.0
patient_0000_synth_000 anatomical LCA control points
ASCII
DATASET POLYDATA
POINTS 27 float
0.00000000 0.00000000 0.00000000
5.34584888 0.82144698 0.38834809
10.72960562 1.14961595 0.00000000
16.22904519 0.70412841 -0.38834809
21.57489407 0.00000000 -0.00000000
21.57489407 0.00000000 -0.00000000
25.22404136 -1.59911233 -8.01144792
28.68791495 -3.05092790 -16.69898954
31.79371073 -4.26096149 -26.53179162
34.41155336 -5.15059773 -37.61163737
36.46952586 -5.65005878 -49.63711834
37.95655181 -5.70247293 -61.99806285
38.91368296 -5.27980837 -73.97047456
39.41860886 -4.40156281 -84.94890816
39.57004147 -3.14336136 -94.64073032
39.47715159 -1.62774096 -103.15945106
39.25543865 -0.00000000 -110.98775482
21.57489407 0.00000000 -0.00000000
20.34494719 12.99389108 -3.41059652
16.46367356 25.74058711 -6.40982476
10.33018649 37.77772383 -8.63593354
2.52337938 48.55360026 -9.82042128
-6.19532836 57.59558004 -9.82042128
-14.91051777 64.64583375 -8.63593354
-22.65932752 69.64287974 -6.40982476
-28.59248845 72.57910283 -3.41059652
-32.11102404 73.38542951 -0.00000000
LINES 3 30
5 0 1 2 3 4
12 5 6 7 8 9 10 11 12 13 14 15 16
10 17 18 19 20 21 22 23 24 25 26
POINT_DATA 27
SCALARS branch_id int 1
LOOKUP_TABLE default
1
1
1
1
1
2
2
2
2
2
2
2
2
2
2
2
2
3
3
3
3
3
3
3
3
3
3
SCALARS point_index int 1
LOOKUP_TABLE default
0
1
2
3
4
0
1
2
3
4
5
6
7
8
9
10
11
0
1
2
3
4
5
6
7
8
9
