# vtk DataFile Version 3.0
patient_0004_synth_002 anatomical LCA control points
ASCII
DATASET POLYDATA
POINTS 27 float
0.00000000 0.00000000 0.00000000
4.46083097 0.64143178 0.32152821
8.93321315 0.88930317 0.00000000
13.40184730 0.62165031 -0.32152821
17.86267828 0.00000000 -0.00000000
17.86267828 0.00000000 -0.00000000
20.46491781 -1.11240790 -5.50130765
22.94336614 -2.13223308 -11.47717461
25.18825610 -2.98068411 -18.24382793
27.11476880 -3.59190989 -25.86539932
28.67032129 -3.91634279 -34.13441816
29.83726309 -3.92474869 -42.63725206
30.63125879 -3.61263199 -50.88376779
31.09640931 -3.00323298 -58.46108219
31.29859406 -2.14705705 -65.16390367
31.31852100 -1.11699920 -71.06076702
31.24557743 -0.00000000 -76.47470001
17.86267828 0.00000000 -0.00000000
17.22501844 7.19614200 -1.86505373
15.09097069 14.20649361 -3.50515445
11.82291047 20.72972720 -4.72248181
7.78844531 26.53603129 -5.37020817
3.30287887 31.48646977 -5.37020817
-1.29370636 35.48462895 -4.72248181
-5.54221323 38.41692971 -3.50515445
-8.89198643 40.14818433 -1.86505373
-10.86678034 40.58225718 -0.00000000
LINES 3 30
5 0 1 2 3 4
12 5 6 7 8 9 10 11 12 13 14 15 16
10 17 18 19 20 21 22 23 24 25 26
POINT_DATA 27
SCALARS branch_id int 1
LOOKUP_TABLE default
1
1
1
1
1
2
2
2
2
2
2
2
2
2
2
2
2
3
3
3
3
3
3
3
3
3
3
SCALARS point_index int 1
LOOKUP_TABLE default
0
1
2
3
4
0
1
2
3
4
5
6
7
8
9
10
11
0
1
2
3
4
5
6
7
8
9
