# vtk DataFile Version 3.0
patient_0004_synth_001 anatomical pipeline centerlines
ASCII
DATASET POLYDATA
POINTS 700 float
0.00000000 0.00000000 0.00000000
0.17995031 0.02252528 0.01273293
0.35749539 0.04457336 0.02494966
0.53266780 0.06614948 0.03665721
0.70550008 0.08725889 0.04786261
0.87602478 0.10790682 0.05857288
1.04427447 0.12809853 0.06879504
1.21028168 0.14783926 0.07853612
1.37407896 0.16713426 0.08780314
1.53569888 0.18598877 0.09660312
1.69517397 0.20440802 0.10494308
1.85253680 0.22239728 0.11283005
2.00781990 0.23996178 0.12027106
2.16105584 0.25710677 0.12727311
2.31227715 0.27383750 0.13384325
2.46151640 0.29015919 0.13998849
2.60880613 0.30607712 0.14571585
2.75417890 0.32159650 0.15103235
2.89766725 0.33672260 0.15594503
3.03930374 0.35146066 0.16046090
3.17912091 0.36581592 0.16458699
3.31715132 0.37979362 0.16833032
3.45342751 0.39339901 0.17169791
3.58798204 0.40663734 0.17469678
3.72084747 0.41951384 0.17733397
3.85205633 0.43203377 0.17961648
3.98164118 0.44420237 0.18155135
4.10963457 0.45602488 0.18314560
4.23606905 0.46750655 0.18440626
4.36097718 0.47865263 0.18534033
4.48439150 0.48946835 0.18595486
4.60634456 0.49995896 0.18625685
4.72686891 0.51012971 0.18625334
4.84599711 0.51998584 0.18595134
4.96376171 0.52953260 0.18535789
5.08019525 0.53877523 0.18448000
5.19533029 0.54771897 0.18332469
5.30919938 0.55636908 0.18189900
5.42183506 0.56473079 0.18020994
5.53326989 0.57280934 0.17826453
5.64353643 0.58061000 0.17606980
5.75266721 0.58813799 0.17363278
5.86069480 0.59539857 0.17096048
5.96765173 0.60239697 0.16805993
6.07357057 0.60913845 0.16493815
6.17848386 0.61562824 0.16160216
6.28242416 0.62187160 0.15805899
6.38542401 0.62787376 0.15431567
6.48751596 0.63363998 0.15037920
6.58873257 0.63917549 0.14625663
6.68910639 0.64448554 0.14195496
6.78866997 0.64957538 0.13748123
6.88745585 0.65445025 0.13284245
6.98549659 0.65911539 0.12804566
7.08282474 0.66357606 0.12309787
7.17947285 0.66783748 0.11800610
7.27547347 0.67190492 0.11277738
7.37085916 0.67578361 0.10741873
7.46566245 0.67947880 0.10193718
7.55991591 0.68299573 0.09633975
7.65365208 0.68633965 0.09063346
7.74690352 0.68951581 0.08482533
7.83970277 0.69252944 0.07892239
7.93208238 0.69538579 0.07293167
8.02407491 0.69809011 0.06686017
8.11571291 0.70064764 0.06071494
8.20702893 0.70306362 0.05450298
8.29805551 0.70534331 0.04823133
8.38882522 0.70749194 0.04190700
8.47937059 0.70951476 0.03553702
8.56972418 0.71141701 0.02912842
8.65991855 0.71320395 0.02268821
8.74998624 0.71488081 0.01622342
8.83995979 0.71645283 0.00974108
8.92987178 0.71792527 0.00324820
9.01975475 0.71930309 -0.00324820
9.10964160 0.72058480 -0.00974108
9.19956555 0.72176245 -0.01622342
9.28955984 0.72282782 -0.02268821
9.37965770 0.72377269 -0.02912842
9.46989238 0.72458883 -0.03553702
9.56029709 0.72526802 -0.04190700
9.65090508 0.72580204 -0.04823133
9.74174959 0.72618265 -0.05450298
9.83286385 0.72640165 -0.06071494
9.92428109 0.72645080 -0.06686017
10.01603455 0.72632189 -0.07293167
10.10815746 0.72600668 -0.07892239
10.20068307 0.72549695 -0.08482533
10.29364460 0.72478449 -0.09063346
10.38707529 0.72386106 -0.09633975
10.48100838 0.72271844 -0.10193718
10.57547710 0.72134841 -0.10741873
10.67051469 0.71974275 -0.11277738
10.76615438 0.71789322 -0.11800610
10.86242941 0.71579162 -0.12309787
10.95937301 0.71342970 -0.12804566
11.05701842 0.71079926 -0.13284245
11.15539887 0.70789206 -0.13748123
11.25454760 0.70469989 -0.14195496
11.35449784 0.70121451 -0.14625663
11.45528284 0.69742771 -0.15037920
11.55693581 0.69333126 -0.15431567
11.65949001 0.68891694 -0.15805899
11.76297866 0.68417652 -0.16160216
11.86743501 0.67910178 -0.16493815
11.97289228 0.67368450 -0.16805993
12.07938371 0.66791645 -0.17096048
12.18694254 0.66178941 -0.17363278
12.29560199 0.65529515 -0.17606980
12.40539532 0.64842546 -0.17826453
12.51635575 0.64117210 -0.18020994
12.62851651 0.63352686 -0.18189900
12.74191085 0.62548150 -0.18332469
12.85657200 0.61702781 -0.18448000
12.97253319 0.60815757 -0.18535789
13.08982766 0.59886254 -0.18595134
13.20848864 0.58913451 -0.18625334
13.32854937 0.57896525 -0.18625685
13.45004309 0.56834654 -0.18595486
13.57300303 0.55727015 -0.18534033
13.69746242 0.54572786 -0.18440626
13.82345450 0.53371145 -0.18314560
13.95101251 0.52121269 -0.18155135
14.08016968 0.50822336 -0.17961648
14.21095925 0.49473523 -0.17733397
14.34341444 0.48074008 -0.17469678
14.47756851 0.46622970 -0.17169791
14.61345468 0.45119584 -0.16833032
14.75110618 0.43563030 -0.16458699
14.89055626 0.41952484 -0.16046090
15.03183815 0.40287125 -0.15594503
15.17498508 0.38566129 -0.15103235
15.32003029 0.36788675 -0.14571585
15.46700701 0.34953941 -0.13998849
15.61594848 0.33061102 -0.13384325
15.76688794 0.31109339 -0.12727311
15.91985862 0.29097827 -0.12027106
16.07489375 0.27025745 -0.11283005
16.23202657 0.24892270 -0.10494308
16.39129032 0.22696580 -0.09660312
16.55271823 0.20437853 -0.08780314
16.71634354 0.18115266 -0.07853612
16.88219948 0.15727996 -0.06879504
17.05031929 0.13275222 -0.05857288
17.22073619 0.10756121 -0.04786261
17.39348344 0.08169871 -0.03665721
17.56859426 0.05515649 -0.02494966
17.74610189 0.02792633 -0.01273293
17.92603956 0.00000000 -0.00000000
17.92603956 0.00000000 -0.00000000
18.19216967 -0.09986135 -0.47362699
18.45013713 -0.19648846 -0.93444454
18.70014956 -0.28996216 -1.38279140
18.94241458 -0.38036327 -1.81900637
19.17713980 -0.46777263 -2.24342821
19.40453285 -0.55227107 -2.65639569
19.62480134 -0.63393942 -3.05824759
19.83815289 -0.71285850 -3.44932268
20.04479512 -0.78910916 -3.82995974
20.24493566 -0.86277221 -4.20049755
20.43878211 -0.93392850 -4.56127486
20.62654209 -1.00265884 -4.91263047
20.80842323 -1.06904408 -5.25490314
20.98463315 -1.13316504 -5.58843164
21.15537945 -1.19510255 -5.91355475
21.32086977 -1.25493744 -6.23061125
21.48131171 -1.31275055 -6.53993991
21.63691290 -1.36862269 -6.84187950
21.78788096 -1.42263472 -7.13676879
21.93442351 -1.47486744 -7.42494656
22.07674815 -1.52540170 -7.70675159
22.21506252 -1.57431833 -7.98252265
22.34957423 -1.62169815 -8.25259850
22.48049090 -1.66762200 -8.51731793
22.60802014 -1.71217070 -8.77701971
22.73236958 -1.75542509 -9.03204262
22.85374684 -1.79746600 -9.28272541
22.97235953 -1.83837426 -9.52940689
23.08841527 -1.87823069 -9.77242580
23.20212168 -1.91711613 -10.01212093
23.31368638 -1.95511141 -10.24883106
23.42331698 -1.99229736 -10.48289495
23.53122112 -2.02875481 -10.71465138
23.63759304 -2.06455921 -10.94441892
23.74252102 -2.09974328 -11.17235565
23.84604275 -2.13431937 -11.39854313
23.94819560 -2.16829970 -11.62306244
24.04901698 -2.20169649 -11.84599468
24.14854426 -2.23452196 -12.06742092
24.24681483 -2.26678832 -12.28742225
24.34386608 -2.29850781 -12.50607976
24.43973539 -2.32969263 -12.72347452
24.53446015 -2.36035502 -12.93968764
24.62807775 -2.39050719 -13.15480019
24.72062558 -2.42016136 -13.36889326
24.81214101 -2.44932975 -13.58204794
24.90266144 -2.47802459 -13.79434530
24.99222424 -2.50625809 -14.00586644
25.08086682 -2.53404247 -14.21669244
25.16862655 -2.56138995 -14.42690438
25.25554082 -2.58831276 -14.63658336
25.34164702 -2.61482312 -14.84581046
25.42698253 -2.64093324 -15.05466675
25.51158474 -2.66665535 -15.26323334
25.59549103 -2.69200166 -15.47159130
25.67873879 -2.71698440 -15.67982172
25.76136542 -2.74161579 -15.88800569
25.84340828 -2.76590804 -16.09622428
25.92490478 -2.78987339 -16.30455859
26.00589230 -2.81352404 -16.51308971
26.08640821 -2.83687222 -16.72189871
26.16648992 -2.85993015 -16.93106668
26.24617480 -2.88271005 -17.14067471
26.32550024 -2.90522414 -17.35080389
26.40450363 -2.92748464 -17.56153529
26.48322236 -2.94950377 -17.77295001
26.56169268 -2.97129337 -17.98512665
26.63993067 -2.99285840 -18.19809940
26.71793494 -3.01419786 -18.41186398
26.79570354 -3.03531058 -18.62641489
26.87323450 -3.05619536 -18.84174658
26.95052585 -3.07685102 -19.05785354
27.02757565 -3.09727637 -19.27473024
27.10438192 -3.11747022 -19.49237115
27.18094270 -3.13743140 -19.71077075
27.25725603 -3.15715870 -19.92992351
27.33331995 -3.17665096 -20.14982390
27.40913250 -3.19590697 -20.37046640
27.48469171 -3.21492556 -20.59184549
27.55999563 -3.23370553 -20.81395563
27.63504229 -3.25224570 -21.03679131
27.70982972 -3.27054489 -21.26034699
27.78435598 -3.28860191 -21.48461714
27.85861909 -3.30641556 -21.70959626
27.93261709 -3.32398467 -21.93527880
28.00634802 -3.34130805 -22.16165924
28.07980993 -3.35838451 -22.38873206
28.15300084 -3.37521287 -22.61649173
28.22591880 -3.39179193 -22.84493272
28.29856184 -3.40812052 -23.07404951
28.37092800 -3.42419744 -23.30383657
28.44301532 -3.44002152 -23.53428838
28.51482185 -3.45559156 -23.76539941
28.58634560 -3.47090637 -23.99716413
28.65758463 -3.48596477 -24.22957702
28.72853698 -3.50076558 -24.46263256
28.79920067 -3.51530761 -24.69632521
28.86957375 -3.52958967 -24.93064945
28.93965426 -3.54361057 -25.16559975
29.00944024 -3.55736913 -25.40117056
29.07892993 -3.57086441 -25.63735416
29.14812193 -3.58409579 -25.87413950
29.21701485 -3.59706271 -26.11151525
29.28560728 -3.60976459 -26.34947007
29.35389785 -3.62220088 -26.58799262
29.42188516 -3.63437099 -26.82707158
29.48956783 -3.64627437 -27.06669560
29.55694445 -3.65791043 -27.30685336
29.62401365 -3.66927862 -27.54753351
29.69077403 -3.68037835 -27.78872472
29.75722421 -3.69120907 -28.03041566
29.82336278 -3.70177019 -28.27259499
29.88918837 -3.71206116 -28.51525137
29.95469958 -3.72208139 -28.75837348
30.01989502 -3.73183033 -29.00194997
30.08477331 -3.74130741 -29.24596952
30.14933305 -3.75051204 -29.49042078
30.21357285 -3.75944366 -29.73529242
30.27749132 -3.76810171 -29.98057311
30.34108707 -3.77648562 -30.22625151
30.40435871 -3.78459480 -30.47231628
30.46730486 -3.79242870 -30.71875610
30.52992412 -3.79998674 -30.96555962
30.59221509 -3.80726836 -31.21271552
30.65417641 -3.81427298 -31.46021245
30.71580666 -3.82100004 -31.70803908
30.77710446 -3.82744896 -31.95618407
30.83806842 -3.83361918 -32.20463610
30.89869716 -3.83951012 -32.45338382
30.95898928 -3.84512122 -32.70241591
31.01894338 -3.85045190 -32.95172102
31.07855809 -3.85550161 -33.20128782
31.13783201 -3.86026975 -33.45110498
31.19676395 -3.86475591 -33.70116065
31.25535326 -3.86896003 -33.95144155
31.31359940 -3.87288211 -34.20193412
31.37150184 -3.87652217 -34.45262482
31.42906004 -3.87988023 -34.70350010
31.48627345 -3.88295629 -34.95454640
31.54314153 -3.88575037 -35.20575018
31.59966375 -3.88826249 -35.45709789
31.65583957 -3.89049265 -35.70857597
31.71166843 -3.89244087 -35.96017089
31.76714982 -3.89410716 -36.21186908
31.82228317 -3.89549154 -36.46365700
31.87706797 -3.89659401 -36.71552110
31.93150365 -3.89741460 -36.96744783
31.98558969 -3.89795331 -37.21942365
32.03932554 -3.89821015 -37.47143499
32.09271067 -3.89818515 -37.72346831
32.14574453 -3.89787830 -37.97551007
32.19842659 -3.89728964 -38.22754671
32.25075629 -3.89641916 -38.47956468
32.30273312 -3.89526688 -38.73155043
32.35435651 -3.89383282 -38.98349042
32.40562594 -3.89211699 -39.23537109
32.45654086 -3.89011939 -39.48717890
32.50710073 -3.88784005 -39.73890029
32.55730502 -3.88527898 -39.99052171
32.60715318 -3.88243618 -40.24202962
32.65664468 -3.87931168 -40.49341047
32.70577896 -3.87590549 -40.74465070
32.75455550 -3.87221761 -40.99573677
32.80297375 -3.86824806 -41.24665512
32.85103318 -3.86399686 -41.49739222
32.89873323 -3.85946402 -41.74793450
32.94607350 -3.85464961 -41.99826866
32.99305423 -3.84955410 -42.24838277
33.03967591 -3.84417806 -42.49826535
33.08593902 -3.83852210 -42.74790496
33.13184405 -3.83258679 -42.99729011
33.17739148 -3.82637272 -43.24640936
33.22258180 -3.81988048 -43.49525123
33.26741549 -3.81311066 -43.74380426
33.31189304 -3.80606383 -43.99205700
33.35601493 -3.79874060 -44.23999797
33.39978164 -3.79114155 -44.48761571
33.44319367 -3.78326726 -44.73489876
33.48625149 -3.77511832 -44.98183565
33.52895559 -3.76669532 -45.22841493
33.57130645 -3.75799884 -45.47462513
33.61330457 -3.74902947 -45.72045478
33.65495041 -3.73978781 -45.96589243
33.69624448 -3.73027443 -46.21092660
33.73718725 -3.72048992 -46.45554584
33.77777921 -3.71043487 -46.69973868
33.81802085 -3.70010987 -46.94349366
33.85791264 -3.68951551 -47.18679932
33.89745508 -3.67865236 -47.42964419
33.93664864 -3.66752103 -47.67201680
33.97549381 -3.65612208 -47.91390570
34.01399109 -3.64445613 -48.15529943
34.05214094 -3.63252374 -48.39618651
34.08994386 -3.62032550 -48.63655548
34.12740033 -3.60786201 -48.87639489
34.16451084 -3.59513385 -49.11569326
34.20127587 -3.58214161 -49.35443914
34.23769591 -3.56888587 -49.59262106
34.27377143 -3.55536722 -49.83022756
34.30950299 -3.54158628 -50.06724746
34.34489170 -3.52754401 -50.30367286
34.37993908 -3.51324158 -50.53949799
34.41464667 -3.49868018 -50.77471713
34.44901598 -3.48386100 -51.00932453
34.48304853 -3.46878522 -51.24331447
34.51674585 -3.45345402 -51.47668120
34.55010946 -3.43786858 -51.70941899
34.58314089 -3.42203009 -51.94152210
34.61584166 -3.40593974 -52.17298481
34.64821329 -3.38959870 -52.40380138
34.68025731 -3.37300816 -52.63396606
34.71197523 -3.35616931 -52.86347314
34.74336859 -3.33908332 -53.09231686
34.77443890 -3.32175139 -53.32049150
34.80518769 -3.30417469 -53.54799133
34.83561648 -3.28635441 -53.77481060
34.86572680 -3.26829173 -54.00094358
34.89552017 -3.24998784 -54.22638454
34.92499811 -3.23144392 -54.45112775
34.95416214 -3.21266115 -54.67516746
34.98301379 -3.19364072 -54.89849795
35.01155459 -3.17438381 -55.12111347
35.03978605 -3.15489160 -55.34300830
35.06770969 -3.13516528 -55.56417670
35.09532705 -3.11520604 -55.78461293
35.12263965 -3.09501505 -56.00431126
35.14964900 -3.07459350 -56.22326595
35.17635663 -3.05394257 -56.44147128
35.20276407 -3.03306346 -56.65892149
35.22887284 -3.01195733 -56.87561087
35.25468446 -2.99062537 -57.09153367
35.28020045 -2.96906878 -57.30668416
35.30542245 -2.94728853 -57.52105790
35.33035513 -2.92527966 -57.73468944
35.35500671 -2.90303033 -57.94765845
35.37938563 -2.88052832 -58.16004711
35.40350031 -2.85776139 -58.37193761
35.42735916 -2.83471733 -58.58341212
35.45097061 -2.81138390 -58.79455282
35.47434309 -2.78774888 -59.00544189
35.49748501 -2.76380004 -59.21616151
35.52040479 -2.73952516 -59.42679386
35.54311086 -2.71491202 -59.63742112
35.56561164 -2.68994838 -59.84812547
35.58791556 -2.66462201 -60.05898909
35.61003103 -2.63892071 -60.27009416
35.63196648 -2.61283223 -60.48152285
35.65373033 -2.58634435 -60.69335736
35.67533100 -2.55944484 -60.90567985
35.69677691 -2.53212149 -61.11857251
35.71807650 -2.50436206 -61.33211752
35.73923817 -2.47615432 -61.54639705
35.76027035 -2.44748606 -61.76149329
35.78118147 -2.41834505 -61.97748841
35.80197994 -2.38871905 -62.19446460
35.82267419 -2.35859585 -62.41250403
35.84327265 -2.32796321 -62.63168889
35.86378372 -2.29680892 -62.85210135
35.88421584 -2.26512074 -63.07382359
35.90457743 -2.23288645 -63.29693780
35.92487691 -2.20009382 -63.52152615
35.94512270 -2.16673063 -63.74767083
35.96532322 -2.13278465 -63.97545400
35.98548690 -2.09824366 -64.20495786
36.00562216 -2.06309543 -64.43626458
36.02573744 -2.02732760 -64.66945682
36.04584350 -1.99090745 -64.90469559
36.06595601 -1.95375949 -65.14230618
36.08609124 -1.91580286 -65.38263456
36.10626548 -1.87695670 -65.62602670
36.12649499 -1.83714015 -65.87282859
36.14679606 -1.79627235 -66.12338620
36.16718497 -1.75427244 -66.37804551
36.18767799 -1.71105955 -66.63715248
36.20829139 -1.66655282 -66.90105309
36.22904147 -1.62067139 -67.17009333
36.24994449 -1.57333440 -67.44461916
36.27101673 -1.52446099 -67.72497656
36.29227447 -1.47397029 -68.01151151
36.31373399 -1.42178145 -68.30456998
36.33541157 -1.36781360 -68.60449794
36.35732348 -1.31198589 -68.91164138
36.37948599 -1.25421744 -69.22634626
36.40191540 -1.19442740 -69.54895857
36.42462797 -1.13253491 -69.87982427
36.44763998 -1.06845911 -70.21928935
36.47096772 -1.00211913 -70.56769977
36.49462745 -0.93343411 -70.92540152
36.51863546 -0.86232319 -71.29274057
36.54300802 -0.78870551 -71.67006289
36.56776141 -0.71250021 -72.05771446
36.59291191 -0.63362642 -72.45604126
36.61847579 -0.55200329 -72.86538926
36.64446934 -0.46754995 -73.28610443
36.67090883 -0.38018555 -73.71853275
36.69781053 -0.28982921 -74.16302020
36.72519074 -0.19640008 -74.61991276
36.75306571 -0.09981730 -75.08955639
36.78145174 -0.00000000 -75.57229707
17.92603956 0.00000000 -0.00000000
17.84020494 0.56385332 -0.14925793
17.75353401 1.11149761 -0.29384674
17.66605266 1.64331765 -0.43387412
17.57778676 2.15969819 -0.56944771
17.48876221 2.66102400 -0.70067520
17.39900488 3.14767985 -0.82766425
17.30854065 3.62005051 -0.95052253
17.21739541 4.07852074 -1.06935772
17.12559505 4.52347531 -1.18427747
17.03316544 4.95529898 -1.29538946
16.94013246 5.37437652 -1.40280136
16.84652201 5.78109270 -1.50662084
16.75235996 6.17583228 -1.60695556
16.65767220 6.55898002 -1.70391320
16.56248460 6.93092070 -1.79760142
16.46682306 7.29203909 -1.88812790
16.37071345 7.64271993 -1.97560030
16.27418166 7.98334801 -2.06012629
16.17725356 8.31430809 -2.14181355
16.07995506 8.63598493 -2.22076973
15.98231201 8.94876330 -2.29710251
15.88435032 9.25302797 -2.37091956
15.78609585 9.54916371 -2.44232855
15.68757451 9.83755527 -2.51143715
15.58881215 10.11858742 -2.57835302
15.48983468 10.39264494 -2.64318383
15.39066797 10.66011258 -2.70603726
15.29133791 10.92137512 -2.76702097
15.19187038 11.17681732 -2.82624263
15.09229125 11.42682394 -2.88380992
14.99262642 11.67177975 -2.93983049
14.89290177 11.91206953 -2.99441203
14.79314318 12.14807802 -3.04766219
14.69337653 12.38019001 -3.09968865
14.59362771 12.60879025 -3.15059908
14.49392199 12.83425934 -3.20049992
14.39426490 13.05684031 -3.24945720
14.29463811 13.27661034 -3.29748824
14.19502190 13.49363674 -3.34460746
14.09539651 13.70798684 -3.39082927
13.99574223 13.91972796 -3.43616810
13.89603931 14.12892742 -3.48063836
13.79626801 14.33565254 -3.52425448
13.69640861 14.53997063 -3.56703087
13.59644137 14.74194902 -3.60898194
13.49634655 14.94165503 -3.65012212
13.39610441 15.13915597 -3.69046583
13.29569522 15.33451917 -3.73002749
13.19509925 15.52781194 -3.76882151
13.09429676 15.71910161 -3.80686231
12.99326801 15.90845550 -3.84416432
12.89199327 16.09594092 -3.88074194
12.79045281 16.28162519 -3.91660960
12.68862688 16.46557564 -3.95178172
12.58649575 16.64785958 -3.98627272
12.48403970 16.82854433 -4.02009701
12.38123897 17.00769722 -4.05326901
12.27807384 17.18538556 -4.08580314
12.17452457 17.36167667 -4.11771383
12.07057142 17.53663787 -4.14901548
11.96619467 17.71033649 -4.17972252
11.86137456 17.88283983 -4.20984937
11.75609138 18.05421523 -4.23941044
11.65032538 18.22453000 -4.26842016
11.54405683 18.39385145 -4.29689294
11.43726599 18.56224692 -4.32484320
11.32993313 18.72978372 -4.35228536
11.22203851 18.89652916 -4.37923383
11.11356239 19.06255058 -4.40570305
11.00448505 19.22791528 -4.43170741
10.89478674 19.39269059 -4.45726136
10.78445065 19.55693615 -4.48237760
10.67347800 19.72066420 -4.50705846
10.56187687 19.88386892 -4.53130226
10.44965537 20.04654447 -4.55510733
10.33682161 20.20868498 -4.57847200
10.22338367 20.37028460 -4.60139460
10.10934966 20.53133748 -4.62387345
9.99472769 20.69183777 -4.64590688
9.87952585 20.85177961 -4.66749321
9.76375225 21.01115715 -4.68863078
9.64741498 21.16996453 -4.70931790
9.53052215 21.32819590 -4.72955291
9.41308187 21.48584541 -4.74933413
9.29510222 21.64290721 -4.76865989
9.17659132 21.79937543 -4.78752852
9.05755727 21.95524423 -4.80593834
8.93800816 22.11050776 -4.82388768
8.81795210 22.26516015 -4.84137487
8.69739718 22.41919556 -4.85839823
8.57635152 22.57260813 -4.87495609
8.45482321 22.72539201 -4.89104678
8.33282036 22.87754134 -4.90666862
8.21035106 23.02905027 -4.92181994
8.08742341 23.17991295 -4.93649907
7.96404553 23.33012353 -4.95070433
7.84022550 23.47967614 -4.96443405
7.71597143 23.62856494 -4.97768656
7.59129143 23.77678407 -4.99046018
7.46619359 23.92432768 -5.00275324
7.34068602 24.07118992 -5.01456408
7.21477681 24.21736493 -5.02589100
7.08847407 24.36284686 -5.03673235
6.96178590 24.50762985 -5.04708644
6.83472040 24.65170805 -5.05695161
6.70728568 24.79507561 -5.06632618
6.57948983 24.93772668 -5.07520849
6.45134163 25.07965611 -5.08359743
6.32285098 25.22086001 -5.09149290
6.19402791 25.36133458 -5.09889490
6.06488243 25.50107605 -5.10580344
5.93542459 25.64008063 -5.11221851
5.80566440 25.77834454 -5.11814012
5.67561189 25.91586399 -5.12356826
5.54527708 26.05263521 -5.12850293
5.41467000 26.18865441 -5.13294413
5.28380068 26.32391780 -5.13689187
5.15267914 26.45842162 -5.14034614
5.02131540 26.59216207 -5.14330694
4.88971950 26.72513537 -5.14577427
4.75790146 26.85733774 -5.14774814
4.62587130 26.98876539 -5.14922854
4.49363905 27.11941455 -5.15021548
4.36121474 27.24928143 -5.15070894
4.22860838 27.37836225 -5.15070894
4.09583002 27.50665323 -5.15021548
3.96288966 27.63415058 -5.14922854
3.82979734 27.76085052 -5.14774814
3.69656309 27.88674927 -5.14577427
3.56319692 28.01184305 -5.14330694
3.42970887 28.13612807 -5.14034614
3.29610895 28.25960055 -5.13689187
3.16240720 28.38225671 -5.13294413
3.02861365 28.50409277 -5.12850293
2.89473831 28.62510494 -5.12356826
2.76079121 28.74528945 -5.11814012
2.62678238 28.86464250 -5.11221851
2.49272184 28.98316032 -5.10580344
2.35861963 29.10083912 -5.09889490
2.22448575 29.21767512 -5.09149290
2.09033025 29.33366455 -5.08359743
1.95616314 29.44880361 -5.07520849
1.82199455 29.56308870 -5.06632618
1.68783547 29.67651805 -5.05695161
1.55369742 29.78909089 -5.04708644
1.41959190 29.90080648 -5.03673235
1.28553043 30.01166406 -5.02589100
1.15152453 30.12166290 -5.01456408
1.01758571 30.23080224 -5.00275324
0.88372548 30.33908133 -4.99046018
0.74995536 30.44649944 -4.97768656
0.61628686 30.55305581 -4.96443405
0.48273150 30.65874969 -4.95070433
0.34930078 30.76358034 -4.93649907
0.21600622 30.86754702 -4.92181994
0.08285934 30.97064896 -4.90666862
-0.05012835 31.07288544 -4.89104678
-0.18294533 31.17425569 -4.87495609
-0.31558010 31.27475898 -4.85839823
-0.44802114 31.37439455 -4.84137487
-0.58025693 31.47316166 -4.82388768
-0.71227596 31.57105956 -4.80593834
-0.84406672 31.66808751 -4.78752852
-0.97561769 31.76424475 -4.76865989
-1.10691736 31.85953055 -4.74933413
-1.23795422 31.95394414 -4.72955291
-1.36871675 32.04748479 -4.70931790
-1.49919343 32.14015176 -4.68863078
-1.62937277 32.23194428 -4.66749321
-1.75924323 32.32286161 -4.64590688
-1.88879330 32.41290302 -4.62387345
-2.01801148 32.50206774 -4.60139460
-2.14688625 32.59035504 -4.57847200
-2.27540610 32.67776416 -4.55510733
-2.40355950 32.76429436 -4.53130226
-2.53133495 32.84994489 -4.50705846
-2.65872094 32.93471501 -4.48237760
-2.78570596 33.01860398 -4.45726136
-2.91228754 33.10161519 -4.43170741
-3.03848686 33.18376291 -4.40570305
-3.16432891 33.26506318 -4.37923383
-3.28983873 33.34553201 -4.35228536
-3.41504131 33.42518544 -4.32484320
-3.53996166 33.50403949 -4.29689294
-3.66462480 33.58211020 -4.26842016
-3.78905573 33.65941358 -4.23941044
-3.91327948 33.73596567 -4.20984937
-4.03732104 33.81178249 -4.17972252
-4.16120543 33.88688007 -4.14901548
-4.28495765 33.96127444 -4.11771383
-4.40860273 34.03498163 -4.08580314
-4.53216566 34.10801765 -4.05326901
-4.65567146 34.18039855 -4.02009701
-4.77914515 34.25214034 -3.98627272
-4.90261172 34.32325906 -3.95178172
-5.02609619 34.39377072 -3.91660960
-5.14962358 34.46369137 -3.88074194
-5.27321889 34.53303703 -3.84416432
-5.39690712 34.60182371 -3.80686231
-5.52071330 34.67006746 -3.76882151
-5.64466244 34.73778430 -3.73002749
-5.76877954 34.80499025 -3.69046583
-5.89308961 34.87170135 -3.65012212
-6.01761766 34.93793362 -3.60898194
-6.14238871 35.00370308 -3.56703087
-6.26742776 35.06902577 -3.52425448
-6.39275983 35.13391771 -3.48063836
-6.51840993 35.19839494 -3.43616810
-6.64440306 35.26247347 -3.39082927
-6.77076424 35.32616933 -3.34460746
-6.89751847 35.38949856 -3.29748824
-7.02469078 35.45247717 -3.24945720
-7.15230616 35.51512120 -3.20049992
-7.28038948 35.57744496 -3.15059908
-7.40896308 35.63943382 -3.09968865
-7.53804721 35.70104916 -3.04766219
-7.66766207 35.76225164 -2.99441203
-7.79782784 35.82300192 -2.93983049
-7.92856471 35.88326065 -2.88380992
-8.05989287 35.94298848 -2.82624263
-8.19183252 36.00214608 -2.76702097
-8.32440384 36.06069409 -2.70603726
-8.45762701 36.11859317 -2.64318383
-8.59152224 36.17580397 -2.57835302
-8.72610971 36.23228715 -2.51143715
-8.86140961 36.28800337 -2.44232855
-8.99744213 36.34291328 -2.37091956
-9.13422745 36.39697754 -2.29710251
-9.27178578 36.45015679 -2.22076973
-9.41013729 36.50241171 -2.14181355
-9.54930218 36.55370293 -2.06012629
-9.68930064 36.60399111 -1.97560030
-9.83015285 36.65323692 -1.88812790
-9.97187901 36.70140100 -1.79760142
-10.11449931 36.74844401 -1.70391320
-10.25803393 36.79432661 -1.60695556
-10.40250307 36.83900945 -1.50662084
-10.54792691 36.88245318 -1.40280136
-10.69432565 36.92461846 -1.29538946
-10.84171947 36.96546595 -1.18427747
-10.99012857 37.00495630 -1.06935772
-11.13957313 37.04305016 -0.95052253
-11.29007334 37.07970820 -0.82766425
-11.44164940 37.11489106 -0.70067520
-11.59432148 37.14855940 -0.56944771
-11.74810979 37.18067387 -0.43387412
-11.90303451 37.21119514 -0.29384674
-12.05911583 37.24008385 -0.14925793
-12.21637394 37.26730066 -0.00000000
LINES 3 703
150 0 1 2 3 4 5 6 7 8 9 10 11 12 13 14 15 16 17 18 19 20 21 22 23 24 25 26 27 28 29 30 31 32 33 34 35 36 37 38 39 40 41 42 43 44 45 46 47 48 49 50 51 52 53 54 55 56 57 58 59 60 61 62 63 64 65 66 67 68 69 70 71 72 73 74 75 76 77 78 79 80 81 82 83 84 85 86 87 88 89 90 91 92 93 94 95 96 97 98 99 100 101 102 103 104 105 106 107 108 109 110 111 112 113 114 115 116 117 118 119 120 121 122 123 124 125 126 127 128 129 130 131 132 133 134 135 136 137 138 139 140 141 142 143 144 145 146 147 148 149
300 150 151 152 153 154 155 156 157 158 159 160 161 162 163 164 165 166 167 168 169 170 171 172 173 174 175 176 177 178 179 180 181 182 183 184 185 186 187 188 189 190 191 192 193 194 195 196 197 198 199 200 201 202 203 204 205 206 207 208 209 210 211 212 213 214 215 216 217 218 219 220 221 222 223 224 225 226 227 228 229 230 231 232 233 234 235 236 237 238 239 240 241 242 243 244 245 246 247 248 249 250 251 252 253 254 255 256 257 258 259 260 261 262 263 264 265 266 267 268 269 270 271 272 273 274 275 276 277 278 279 280 281 282 283 284 285 286 287 288 289 290 291 292 293 294 295 296 297 298 299 300 301 302 303 304 305 306 307 308 309 310 311 312 313 314 315 316 317 318 319 320 321 322 323 324 325 326 327 328 329 330 331 332 333 334 335 336 337 338 339 340 341 342 343 344 345 346 347 348 349 350 351 352 353 354 355 356 357 358 359 360 361 362 363 364 365 366 367 368 369 370 371 372 373 374 375 376 377 378 379 380 381 382 383 384 385 386 387 388 389 390 391 392 393 394 395 396 397 398 399 400 401 402 403 404 405 406 407 408 409 410 411 412 413 414 415 416 417 418 419 420 421 422 423 424 425 426 427 428 429 430 431 432 433 434 435 436 437 438 439 440 441 442 443 444 445 446 447 448 449
250 450 451 452 453 454 455 456 457 458 459 460 461 462 463 464 465 466 467 468 469 470 471 472 473 474 475 476 477 478 479 480 481 482 483 484 485 486 487 488 489 490 491 492 493 494 495 496 497 498 499 500 501 502 503 504 505 506 507 508 509 510 511 512 513 514 515 516 517 518 519 520 521 522 523 524 525 526 527 528 529 530 531 532 533 534 535 536 537 538 539 540 541 542 543 544 545 546 547 548 549 550 551 552 553 554 555 556 557 558 559 560 561 562 563 564 565 566 567 568 569 570 571 572 573 574 575 576 577 578 579 580 581 582 583 584 585 586 587 588 589 590 591 592 593 594 595 596 597 598 599 600 601 602 603 604 605 606 607 608 609 610 611 612 613 614 615 616 617 618 619 620 621 622 623 624 625 626 627 628 629 630 631 632 633 634 635 636 637 638 639 640 641 642 643 644 645 646 647 648 649 650 651 652 653 654 655 656 657 658 659 660 661 662 663 664 665 666 667 668 669 670 671 672 673 674 675 676 677 678 679 680 681 682 683 684 685 686 687 688 689 690 691 692 693 694 695 696 697 698 699
POINT_DATA 700
SCALARS branch_id int 1
LOOKUP_TABLE default
1
1
1
1
1
1
1
1
1
1
1
1
1
1
1
1
1
1
1
1
1
1
1
1
1
1
1
1
1
1
1
1
1
1
1
1
1
1
1
1
1
1
1
1
1
1
1
1
1
1
1
1
1
1
1
1
1
1
1
1
1
1
1
1
1
1
1
1
1
1
1
1
1
1
1
1
1
1
1
1
1
1
1
1
1
1
1
1
1
1
1
1
1
1
1
1
1
1
1
1
1
1
1
1
1
1
1
1
1
1
1
1
1
1
1
1
1
1
1
1
1
1
1
1
1
1
1
1
1
1
1
1
1
1
1
1
1
1
1
1
1
1
1
1
1
1
1
1
1
1
2
2
2
2
2
2
2
2
2
2
2
2
2
2
2
2
2
2
2
2
2
2
2
2
2
2
2
2
2
2
2
2
2
2
2
2
2
2
2
2
2
2
2
2
2
2
2
2
2
2
2
2
2
2
2
2
2
2
2
2
2
2
2
2
2
2
2
2
2
2
2
2
2
2
2
2
2
2
2
2
2
2
2
2
2
2
2
2
2
2
2
2
2
2
2
2
2
2
2
2
2
2
2
2
2
2
2
2
2
2
2
2
2
2
2
2
2
2
2
2
2
2
2
2
2
2
2
2
2
2
2
2
2
2
2
2
2
2
2
2
2
2
2
2
2
2
2
2
2
2
2
2
2
2
2
2
2
2
2
2
2
2
2
2
2
2
2
2
2
2
2
2
2
2
2
2
2
2
2
2
2
2
2
2
2
2
2
2
2
2
2
2
2
2
2
2
2
2
2
2
2
2
2
2
2
2
2
2
2
2
2
2
2
2
2
2
2
2
2
2
2
2
2
2
2
2
2
2
2
2
2
2
2
2
2
2
2
2
2
2
2
2
2
2
2
2
2
2
2
2
2
2
2
2
2
2
2
2
2
2
2
2
2
2
2
2
2
2
2
2
2
2
2
2
2
2
2
2
2
2
2
2
2
2
2
2
2
2
2
2
2
2
2
2
2
2
2
2
2
2
3
3
3
3
3
3
3
3
3
3
3
3
3
3
3
3
3
3
3
3
3
3
3
3
3
3
3
3
3
3
3
3
3
3
3
3
3
3
3
3
3
3
3
3
3
3
3
3
3
3
3
3
3
3
3
3
3
3
3
3
3
3
3
3
3
3
3
3
3
3
3
3
3
3
3
3
3
3
3
3
3
3
3
3
3
3
3
3
3
3
3
3
3
3
3
3
3
3
3
3
3
3
3
3
3
3
3
3
3
3
3
3
3
3
3
3
3
3
3
3
3
3
3
3
3
3
3
3
3
3
3
3
3
3
3
3
3
3
3
3
3
3
3
3
3
3
3
3
3
3
3
3
3
3
3
3
3
3
3
3
3
3
3
3
3
3
3
3
3
3
3
3
3
3
3
3
3
3
3
3
3
3
3
3
3
3
3
3
3
3
3
3
3
3
3
3
3
3
3
3
3
3
3
3
3
3
3
3
3
3
3
3
3
3
3
3
3
3
3
3
3
3
3
3
3
3
3
3
3
3
3
3
3
3
3
3
3
3
3
3
3
3
3
3
3
3
3
3
3
3
SCALARS point_index int 1
LOOKUP_TABLE default
0
1
2
3
4
5
6
7
8
9
10
11
12
13
14
15
16
17
18
19
20
21
22
23
24
25
26
27
28
29
30
31
32
33
34
35
36
37
38
39
40
41
42
43
44
45
46
47
48
49
50
51
52
53
54
55
56
57
58
59
60
61
62
63
64
65
66
67
68
69
70
71
72
73
74
75
76
77
78
79
80
81
82
83
84
85
86
87
88
89
90
91
92
93
94
95
96
97
98
99
100
101
102
103
104
105
106
107
108
109
110
111
112
113
114
115
116
117
118
119
120
121
122
123
124
125
126
127
128
129
130
131
132
133
134
135
136
137
138
139
140
141
142
143
144
145
146
147
148
149
0
1
2
3
4
5
6
7
8
9
10
11
12
13
14
15
16
17
18
19
20
21
22
23
24
25
26
27
28
29
30
31
32
33
34
35
36
37
38
39
40
41
42
43
44
45
46
47
48
49
50
51
52
53
54
55
56
57
58
59
60
61
62
63
64
65
66
67
68
69
70
71
72
73
74
75
76
77
78
79
80
81
82
83
84
85
86
87
88
89
90
91
92
93
94
95
96
97
98
99
100
101
102
103
104
105
106
107
108
109
110
111
112
113
114
115
116
117
118
119
120
121
122
123
124
125
126
127
128
129
130
131
132
133
134
135
136
137
138
139
140
141
142
143
144
145
146
147
148
149
150
151
152
153
154
155
156
157
158
159
160
161
162
163
164
165
166
167
168
169
170
171
172
173
174
175
176
177
178
179
180
181
182
183
184
185
186
187
188
189
190
191
192
193
194
195
196
197
198
199
200
201
202
203
204
205
206
207
208
209
210
211
212
213
214
215
216
217
218
219
220
221
222
223
224
225
226
227
228
229
230
231
232
233
234
235
236
237
238
239
240
241
242
243
244
245
246
247
248
249
250
251
252
253
254
255
256
257
258
259
260
261
262
263
264
265
266
267
268
269
270
271
272
273
274
275
276
277
278
279
280
281
282
283
284
285
286
287
288
289
290
291
292
293
294
295
296
297
298
299
0
1
2
3
4
5
6
7
8
9
10
11
12
13
14
15
16
17
18
19
20
21
22
23
24
25
26
27
28
29
30
31
32
33
34
35
36
37
38
39
40
41
42
43
44
45
46
47
48
49
50
51
52
53
54
55
56
57
58
59
60
61
62
63
64
65
66
67
68
69
70
71
72
73
74
75
76
77
78
79
80
81
82
83
84
85
86
87
88
89
90
91
92
93
94
95
96
97
98
99
100
101
102
103
104
105
106
107
108
109
110
111
112
113
114
115
116
117
118
119
120
121
122
123
124
125
126
127
128
129
130
131
132
133
134
135
136
137
138
139
140
141
142
143
144
145
146
147
148
149
150
151
152
153
154
155
156
157
158
159
160
161
162
163
164
165
166
167
168
169
170
171
172
173
174
175
176
177
178
179
180
181
182
183
184
185
186
187
188
189
190
191
192
193
194
195
196
197
198
199
200
201
202
203
204
205
206
207
208
209
210
211
212
213
214
215
216
217
218
219
220
221
222
223
224
225
226
227
228
229
230
231
232
233
234
235
236
237
238
239
240
241
242
243
244
245
246
247
248
249
