# vtk DataFile Version 3.0
patient_0004_synth_000 anatomical LCA centerlines
ASCII
DATASET POLYDATA
POINTS 700 float
0.00000000 0.00000000 0.00000000
0.17856937 0.02543249 0.01270357
0.35475115 0.05033123 0.02489214
0.52857801 0.07470140 0.03657270
0.70008264 0.09854815 0.04775226
0.86929772 0.12187665 0.05843784
1.03625593 0.14469206 0.06863643
1.20098996 0.16699955 0.07835505
1.36353248 0.18880427 0.08760070
1.52391618 0.21011140 0.09638039
1.68217374 0.23092608 0.10470112
1.83833784 0.25125350 0.11256991
1.99244117 0.27109880 0.11999376
2.14451641 0.29046716 0.12697967
2.29459623 0.30936373 0.13353466
2.44271332 0.32779368 0.13966573
2.58890037 0.34576217 0.14537988
2.73319006 0.36327436 0.15068413
2.87561506 0.38033543 0.15558548
3.01620806 0.39695052 0.16009094
3.15500174 0.41312480 0.16420752
3.29202879 0.42886345 0.16794221
3.42732189 0.44417161 0.17130204
3.56091371 0.45905445 0.17429400
3.69283694 0.47351714 0.17692510
3.82312427 0.48756484 0.17920236
3.95180837 0.50120271 0.18113277
4.07892193 0.51443592 0.18272334
4.20449763 0.52726962 0.18398109
4.32856815 0.53970898 0.18491301
4.45116618 0.55175916 0.18552612
4.57232439 0.56342534 0.18582741
4.69207546 0.57471266 0.18582391
4.81045209 0.58562629 0.18552261
4.92748695 0.59617140 0.18493053
5.04321273 0.60635315 0.18405466
5.15766210 0.61617670 0.18290202
5.27086775 0.62564721 0.18147961
5.38286236 0.63476985 0.17979444
5.49367862 0.64354979 0.17785352
5.60334920 0.65199217 0.17566385
5.71190679 0.66010217 0.17323245
5.81938407 0.66788495 0.17056631
5.92581372 0.67534568 0.16767245
6.03122842 0.68248951 0.16455786
6.13566086 0.68932160 0.16122957
6.23914372 0.69584713 0.15769457
6.34170968 0.70207126 0.15395987
6.44339142 0.70799914 0.15003249
6.54422163 0.71363594 0.14591942
6.64423298 0.71898683 0.14162767
6.74345817 0.72405696 0.13716425
6.84192986 0.72885150 0.13253617
6.93968075 0.73337561 0.12775043
7.03674351 0.73763446 0.12281405
7.13315084 0.74163321 0.11773402
7.22893540 0.74537702 0.11251736
7.32412988 0.74887106 0.10717107
7.41876697 0.75212048 0.10170215
7.51287935 0.75513045 0.09611763
7.60649969 0.75790614 0.09042449
7.69966068 0.76045270 0.08462976
7.79239501 0.76277530 0.07874043
7.88473536 0.76487911 0.07276351
7.97671440 0.76676928 0.06670602
8.06836482 0.76845098 0.06057495
8.15971930 0.76992937 0.05437732
8.25081052 0.77120961 0.04812012
8.34167118 0.77229688 0.04181038
8.43233394 0.77319632 0.03545509
8.52283149 0.77391311 0.02906126
8.61319651 0.77445240 0.02263590
8.70346169 0.77481937 0.01618602
8.79365970 0.77501916 0.00971862
8.88382323 0.77505696 0.00324071
8.97398495 0.77493770 -0.00324071
9.06417715 0.77466152 -0.00971862
9.15443174 0.77422372 -0.01618602
9.24478062 0.77361940 -0.02263590
9.33525570 0.77284365 -0.02906126
9.42588888 0.77189157 -0.03545509
9.51671206 0.77075824 -0.04181038
9.60775715 0.76943878 -0.04812012
9.69905603 0.76792827 -0.05437732
9.79064062 0.76622180 -0.06057495
9.88254281 0.76431448 -0.06670602
9.97479451 0.76220139 -0.07276351
10.06742762 0.75987763 -0.07874043
10.16047404 0.75733830 -0.08462976
10.25396567 0.75457849 -0.09042449
10.34793441 0.75159330 -0.09611763
10.44241216 0.74837781 -0.10170215
10.53743083 0.74492713 -0.10717107
10.63302232 0.74123635 -0.11251736
10.72921852 0.73730057 -0.11773402
10.82605134 0.73311487 -0.12281405
10.92355268 0.72867436 -0.12775043
11.02175445 0.72397413 -0.13253617
11.12068853 0.71900928 -0.13716425
11.22038685 0.71377489 -0.14162767
11.32088128 0.70826607 -0.14591942
11.42220375 0.70247790 -0.15003249
11.52438614 0.69640549 -0.15395987
11.62746037 0.69004393 -0.15769457
11.73145832 0.68338831 -0.16122957
11.83641191 0.67643373 -0.16455786
11.94235303 0.66917529 -0.16767245
12.04931359 0.66160807 -0.17056631
12.15732548 0.65372717 -0.17323245
12.26642061 0.64552769 -0.17566385
12.37663089 0.63700473 -0.17785352
12.48798820 0.62815337 -0.17979444
12.60052445 0.61896871 -0.18147961
12.71427155 0.60944586 -0.18290202
12.82926140 0.59957989 -0.18405466
12.94552589 0.58936591 -0.18493053
13.06309693 0.57879901 -0.18552261
13.18200641 0.56787429 -0.18582391
13.30228625 0.55658684 -0.18582741
13.42396834 0.54493175 -0.18552612
13.54708459 0.53290413 -0.18491301
13.67166688 0.52049906 -0.18398109
13.79774714 0.50771165 -0.18272334
13.92535725 0.49453698 -0.18113277
14.05452912 0.48097015 -0.17920236
14.18529465 0.46700625 -0.17692510
14.31768574 0.45264039 -0.17429400
14.45173430 0.43786765 -0.17130204
14.58747222 0.42268313 -0.16794221
14.72493140 0.40708192 -0.16420752
14.86414375 0.39105913 -0.16009094
15.00514117 0.37460984 -0.15558548
15.14795556 0.35772915 -0.15068413
15.29261883 0.34041215 -0.14537988
15.43916286 0.32265394 -0.13966573
15.58761957 0.30444962 -0.13353466
15.73802085 0.28579427 -0.12697967
15.89039861 0.26668300 -0.11999376
16.04478475 0.24711090 -0.11256991
16.20121116 0.22707306 -0.10470112
16.35970976 0.20656457 -0.09638039
16.52031244 0.18558054 -0.08760070
16.68305110 0.16411606 -0.07835505
16.84795765 0.14216622 -0.06863643
17.01506399 0.11972612 -0.05843784
17.18440201 0.09679085 -0.04775226
17.35600362 0.07335551 -0.03657270
17.52990072 0.04941519 -0.02489214
17.70612521 0.02496499 -0.01270357
17.88470900 0.00000000 -0.00000000
17.88470900 0.00000000 -0.00000000
18.15427226 -0.10935053 -0.49803265
18.41559947 -0.21512026 -0.98272625
18.66890080 -0.31739801 -1.45443535
18.91438644 -0.41627261 -1.91351451
19.15226656 -0.51183286 -2.36031826
19.38275133 -0.60416759 -2.79520116
19.60605094 -0.69336562 -3.21851776
19.82237557 -0.77951578 -3.63062259
20.03193538 -0.86270687 -4.03187023
20.23494056 -0.94302772 -4.42261520
20.43160129 -1.02056715 -4.80321206
20.62212773 -1.09541399 -5.17401536
20.80673008 -1.16765704 -5.53537965
20.98561851 -1.23738513 -5.88765947
21.15900319 -1.30468708 -6.23120938
21.32709430 -1.36965172 -6.56638391
21.49010202 -1.43236785 -6.89353763
21.64823653 -1.49292430 -7.21302508
21.80170800 -1.55140989 -7.52520080
21.95072661 -1.60791344 -7.83041935
22.09550255 -1.66252377 -8.12903527
22.23624598 -1.71532971 -8.42140312
22.37316708 -1.76642006 -8.70787743
22.50647604 -1.81588365 -8.98881277
22.63638302 -1.86380930 -9.26456367
22.76309821 -1.91028583 -9.53548469
22.88683179 -1.95540206 -9.80193038
23.00779392 -1.99924681 -10.06425528
23.12619480 -2.04190889 -10.32281394
23.24224459 -2.08347714 -10.57796091
23.35615347 -2.12404037 -10.83005074
23.46813163 -2.16368740 -11.07943798
23.57838923 -2.20250704 -11.32647717
23.68712294 -2.24058221 -11.57150177
23.79442200 -2.27794881 -11.81467767
23.90032447 -2.31462032 -12.05609086
24.00486806 -2.35061012 -12.29582683
24.10809051 -2.38593154 -12.53397108
24.21002953 -2.42059795 -12.77060910
24.31072286 -2.45462271 -13.00582640
24.41020823 -2.48801916 -13.23970848
24.50852335 -2.52080067 -13.47234082
24.60570596 -2.55298059 -13.70380892
24.70179377 -2.58457227 -13.93419829
24.79682453 -2.61558907 -14.16359442
24.89083595 -2.64604436 -14.39208280
24.98386576 -2.67595147 -14.61974893
25.07595168 -2.70532377 -14.84667831
25.16713145 -2.73417462 -15.07295644
25.25744278 -2.76251737 -15.29866881
25.34692341 -2.79036537 -15.52390092
25.43561107 -2.81773198 -15.74873826
25.52354347 -2.84463056 -15.97326634
25.61075834 -2.87107446 -16.19757065
25.69729341 -2.89707704 -16.42173668
25.78318641 -2.92265165 -16.64584994
25.86847506 -2.94781165 -16.86999592
25.95319709 -2.97257040 -17.09426011
26.03739023 -2.99694124 -17.31872802
26.12109220 -3.02093755 -17.54348513
26.20434072 -3.04457266 -17.76861696
26.28717353 -3.06785994 -17.99420899
26.36962835 -3.09081274 -18.22034672
26.45174291 -3.11344443 -18.44711565
26.53355492 -3.13576834 -18.67460127
26.61510213 -3.15779785 -18.90288908
26.69642109 -3.17954591 -19.13206191
26.77752736 -3.20101847 -19.36215458
26.85841839 -3.22221539 -19.59316041
26.93909100 -3.24313636 -19.82507133
27.01954202 -3.26378103 -20.05787929
27.09976828 -3.28414907 -20.29157624
27.17976660 -3.30424017 -20.52615412
27.25953383 -3.32405398 -20.76160487
27.33906679 -3.34359017 -20.99792043
27.41836230 -3.36284842 -21.23509275
27.49741720 -3.38182840 -21.47311377
27.57622833 -3.40052977 -21.71197544
27.65479249 -3.41895221 -21.95166970
27.73310654 -3.43709538 -22.19218849
27.81116729 -3.45495896 -22.43352376
27.88897158 -3.47254261 -22.67566744
27.96651623 -3.48984601 -22.91861149
28.04379808 -3.50686882 -23.16234784
28.12081396 -3.52361071 -23.40686845
28.19756069 -3.54007135 -23.65216525
28.27403510 -3.55625042 -23.89823018
28.35023403 -3.57214759 -24.14505519
28.42615431 -3.58776251 -24.39263223
28.50179275 -3.60309487 -24.64095323
28.57714620 -3.61814432 -24.89001015
28.65221149 -3.63291055 -25.13979492
28.72698543 -3.64739323 -25.39029948
28.80146487 -3.66159201 -25.64151579
28.87564663 -3.67550657 -25.89343578
28.94952754 -3.68913659 -26.14605140
29.02310444 -3.70248172 -26.39935459
29.09637414 -3.71554165 -26.65333729
29.16933348 -3.72831603 -26.90799146
29.24197930 -3.74080456 -27.16330898
29.31430860 -3.75300721 -27.41927937
29.38631864 -3.76492448 -27.67588841
29.45800673 -3.77655690 -27.93312156
29.52937016 -3.78790501 -28.19096428
29.60040622 -3.79896933 -28.44940205
29.67111221 -3.80975041 -28.70842031
29.74148542 -3.82024876 -28.96800454
29.81152315 -3.83046494 -29.22814020
29.88122270 -3.84039946 -29.48881275
29.95058135 -3.85005286 -29.75000765
30.01959640 -3.85942567 -30.01171038
30.08826515 -3.86851844 -30.27390638
30.15658489 -3.87733167 -30.53658113
30.22455292 -3.88586592 -30.79972009
30.29216653 -3.89412172 -31.06330873
30.35942301 -3.90209959 -31.32733249
30.42631967 -3.90980007 -31.59177686
30.49285379 -3.91722369 -31.85662729
30.55902267 -3.92437098 -32.12186924
30.62482360 -3.93124248 -32.38748818
30.69025388 -3.93783872 -32.65346957
30.75531081 -3.94416023 -32.91979888
30.81999168 -3.95020755 -33.18646157
30.88429377 -3.95598120 -33.45344310
30.94821440 -3.96148172 -33.72072894
31.01175085 -3.96670965 -33.98830454
31.07490042 -3.97166550 -34.25615538
31.13766040 -3.97634983 -34.52426691
31.20002809 -3.98076316 -34.79262460
31.26200077 -3.98490602 -35.06121391
31.32357576 -3.98877894 -35.33002031
31.38475033 -3.99238246 -35.59902926
31.44552180 -3.99571712 -35.86822622
31.50588782 -3.99878345 -36.13759643
31.56584715 -4.00158204 -36.40712450
31.62539876 -4.00411350 -36.67679490
31.68454158 -4.00637841 -36.94659212
31.74327456 -4.00837737 -37.21650065
31.80159667 -4.01011098 -37.48650497
31.85950684 -4.01157982 -37.75658956
31.91700404 -4.01278451 -38.02673892
31.97408721 -4.01372562 -38.29693752
32.03075530 -4.01440376 -38.56716985
32.08700726 -4.01481952 -38.83742040
32.14284204 -4.01497350 -39.10767364
32.19825860 -4.01486629 -39.37791407
32.25325589 -4.01449848 -39.64812617
32.30783285 -4.01387068 -39.91829443
32.36198844 -4.01298347 -40.18840332
32.41572161 -4.01183745 -40.45843734
32.46903130 -4.01043322 -40.72838097
32.52191647 -4.00877138 -40.99821869
32.57437608 -4.00685251 -41.26793499
32.62640907 -4.00467721 -41.53751436
32.67801438 -4.00224608 -41.80694127
32.72919098 -3.99955971 -42.07620021
32.77993782 -3.99661870 -42.34527567
32.83025383 -3.99342364 -42.61415214
32.88013799 -3.98997513 -42.88281409
32.92958923 -3.98627376 -43.15124602
32.97860650 -3.98232013 -43.41943240
33.02718877 -3.97811483 -43.68735772
33.07533497 -3.97365846 -43.95500647
33.12304406 -3.96895161 -44.22236314
33.17031499 -3.96399489 -44.48941220
33.21714672 -3.95878887 -44.75613814
33.26353844 -3.95333413 -45.02252595
33.30949085 -3.94763099 -45.28856349
33.35500513 -3.94167972 -45.55423957
33.40008247 -3.93548057 -45.81954304
33.44472405 -3.92903382 -46.08446274
33.48893107 -3.92233971 -46.34898749
33.53270471 -3.91539852 -46.61310614
33.57604616 -3.90821050 -46.87680751
33.61895662 -3.90077591 -47.14008044
33.66143726 -3.89309501 -47.40291377
33.70348927 -3.88516806 -47.66529632
33.74511385 -3.87699534 -47.92721695
33.78631219 -3.86857708 -48.18866447
33.82708547 -3.85991357 -48.44962773
33.86743487 -3.85100505 -48.71009556
33.90736159 -3.84185179 -48.97005680
33.94686682 -3.83245404 -49.22950027
33.98595175 -3.82281208 -49.48841482
34.02461756 -3.81292616 -49.74678928
34.06286544 -3.80279654 -50.00461248
34.10069657 -3.79242348 -50.26187326
34.13811216 -3.78180725 -50.51856046
34.17511338 -3.77094810 -50.77466290
34.21170143 -3.75984629 -51.03016943
34.24787749 -3.74850209 -51.28506888
34.28364275 -3.73691576 -51.53935007
34.31899840 -3.72508755 -51.79300186
34.35394563 -3.71301774 -52.04601307
34.38848563 -3.70070657 -52.29837254
34.42261958 -3.68815431 -52.55006909
34.45634867 -3.67536122 -52.80109158
34.48967410 -3.66232756 -53.05142883
34.52259704 -3.64905360 -53.30106967
34.55511878 -3.63553958 -53.55000332
34.58724166 -3.62178575 -53.79822330
34.61896871 -3.60779229 -54.04572593
34.65030297 -3.59355943 -54.29250757
34.68124746 -3.57908736 -54.53856459
34.71180524 -3.56437630 -54.78389336
34.74197933 -3.54942644 -55.02849023
34.77177278 -3.53423799 -55.27235157
34.80118862 -3.51881117 -55.51547375
34.83022988 -3.50314618 -55.75785313
34.85889962 -3.48724321 -55.99948607
34.88720086 -3.47110249 -56.24036894
34.91513665 -3.45472421 -56.48049810
34.94271001 -3.43810858 -56.71986992
34.96992400 -3.42125580 -56.95848075
34.99678164 -3.40416609 -57.19632697
35.02328597 -3.38683965 -57.43340494
35.04944003 -3.36927669 -57.66971103
35.07524687 -3.35147741 -57.90524159
35.10070951 -3.33344201 -58.13999299
35.12583099 -3.31517071 -58.37396160
35.15061435 -3.29666371 -58.60714377
35.17506264 -3.27792121 -58.83953588
35.19917888 -3.25894343 -59.07113429
35.22296611 -3.23973056 -59.30193536
35.24642738 -3.22028282 -59.53193546
35.26956571 -3.20060041 -59.76113094
35.29238416 -3.18068354 -59.98951819
35.31488575 -3.16053240 -60.21709355
35.33707352 -3.14014722 -60.44385339
35.35895051 -3.11952819 -60.66979408
35.38051976 -3.09867553 -60.89491198
35.40178430 -3.07758943 -61.11920346
35.42274726 -3.05626990 -61.34266623
35.44341412 -3.03471081 -61.56533897
35.46379313 -3.01289896 -61.78730770
35.48389269 -2.99082072 -62.00866109
35.50372120 -2.96846248 -62.22948781
35.52328705 -2.94581064 -62.44987654
35.54259864 -2.92285159 -62.66991593
35.56166437 -2.89957171 -62.88969465
35.58049263 -2.87595739 -63.10930138
35.59909183 -2.85199502 -63.32882478
35.61747036 -2.82767100 -63.54835351
35.63563662 -2.80297171 -63.76797625
35.65359900 -2.77788353 -63.98778167
35.67136591 -2.75239287 -64.20785842
35.68894574 -2.72648610 -64.42829518
35.70634688 -2.70014962 -64.64918063
35.72357775 -2.67336982 -64.87060341
35.74064673 -2.64613308 -65.09265221
35.75756222 -2.61842579 -65.31541569
35.77433262 -2.59023436 -65.53898251
35.79096632 -2.56154515 -65.76344135
35.80747173 -2.53234457 -65.98888088
35.82385725 -2.50261899 -66.21538975
35.84013126 -2.47235482 -66.44305664
35.85630217 -2.44153844 -66.67197023
35.87237837 -2.41015624 -66.90221916
35.88836827 -2.37819461 -67.13389212
35.90428025 -2.34563993 -67.36707777
35.92012273 -2.31247860 -67.60186477
35.93590409 -2.27869701 -67.83834180
35.95163273 -2.24428154 -68.07659753
35.96731705 -2.20921859 -68.31672061
35.98296545 -2.17349454 -68.55879973
35.99858634 -2.13709564 -68.80292406
36.01419079 -2.09998539 -69.04926849
36.02979544 -2.06207954 -69.29818751
36.04541763 -2.02328785 -69.55005826
36.06107468 -1.98352007 -69.80525787
36.07678395 -1.94268597 -70.06416346
36.09256277 -1.90069528 -70.32715216
36.10842847 -1.85745776 -70.59460111
36.12439840 -1.81288318 -70.86688743
36.14048989 -1.76688127 -71.14438826
36.15672028 -1.71936180 -71.42748072
36.17310691 -1.67023453 -71.71654195
36.18966712 -1.61940919 -72.01194906
36.20641824 -1.56679555 -72.31407920
36.22337761 -1.51230337 -72.62330949
36.24056257 -1.45584238 -72.94001706
36.25799045 -1.39732236 -73.26457904
36.27567860 -1.33665305 -73.59737256
36.29364436 -1.27374420 -73.93877475
36.31190505 -1.20850558 -74.28916274
36.33047803 -1.14084693 -74.64891366
36.34938062 -1.07067800 -75.01840464
36.36863016 -0.99790856 -75.39801281
36.38824400 -0.92244835 -75.78811529
36.40823946 -0.84420713 -76.18908922
36.42863390 -0.76309465 -76.60131173
36.44944463 -0.67902067 -77.02515995
36.47068902 -0.59189493 -77.46101100
36.49238438 -0.50162721 -77.90924201
36.51454806 -0.40812723 -78.37023013
36.53719740 -0.31130477 -78.84435246
36.56034974 -0.21106958 -79.33198615
36.58402240 -0.10733140 -79.83350833
36.60823274 -0.00000000 -80.34929612
17.88470900 0.00000000 -0.00000000
17.80599441 0.57087833 -0.14959918
17.72596417 1.12520630 -0.29451858
17.64465658 1.66337628 -0.43486610
17.56210994 2.18578062 -0.57074966
17.47836252 2.69281167 -0.70227718
17.39345263 3.18486180 -0.82955657
17.30741856 3.66232336 -0.95269575
17.22029860 4.12558871 -1.07180263
17.13213104 4.57505020 -1.18698513
17.04295418 5.01110019 -1.29835116
16.95280631 5.43413104 -1.40600864
16.86172572 5.84453511 -1.51006549
16.76975070 6.24270475 -1.61062961
16.67691955 6.62903231 -1.70780893
16.58327056 7.00391016 -1.80171135
16.48884202 7.36773066 -1.89244481
16.39367223 7.72088615 -1.98011720
16.29779947 8.06376901 -2.06483645
16.20126204 8.39677157 -2.14671046
16.10409823 8.72028621 -2.22584717
16.00634634 9.03470527 -2.30235447
15.90804466 9.34042111 -2.37634029
15.80923147 9.63782610 -2.44791255
15.70994508 9.92731259 -2.51717915
15.61022378 10.20927292 -2.58424801
15.51010585 10.48409948 -2.64922705
15.40962959 10.75218460 -2.71222418
15.30883330 11.01392064 -2.77334732
15.20775526 11.26969997 -2.83270439
15.10643377 11.51991494 -2.89040329
15.00490712 11.76495790 -2.94655195
14.90321360 12.00522121 -3.00125828
14.80139151 12.24109724 -3.05463019
14.69947914 12.47297833 -3.10677560
14.59751478 12.70125685 -3.15780243
14.49553599 12.92632091 -3.20781736
14.39355625 13.14841854 -3.25688657
14.29155999 13.36762898 -3.30502742
14.18952990 13.58402140 -3.35225437
14.08744870 13.79766496 -3.39858187
13.98529909 14.00862885 -3.44402435
13.88306377 14.21698223 -3.48859629
13.78072544 14.42279427 -3.53231213
13.67826682 14.62613416 -3.57518631
13.57567059 14.82707106 -3.61723330
13.47291948 15.02567414 -3.65846755
13.36999617 15.22201259 -3.69890350
13.26688338 15.41615556 -3.73855560
13.16356381 15.60817224 -3.77743832
13.06002016 15.79813180 -3.81556610
12.95623514 15.98610340 -3.85295339
12.85219145 16.17215623 -3.88961464
12.74787179 16.35635946 -3.92556431
12.64325886 16.53878225 -3.96081684
12.53833538 16.71949379 -3.99538669
12.43308404 16.89856324 -4.02928832
12.32748756 17.07605977 -4.06253616
12.22152862 17.25205257 -4.09514468
12.11518994 17.42661080 -4.12712833
12.00845422 17.59980363 -4.15850155
11.90130417 17.77170024 -4.18927879
11.79372248 17.94236981 -4.21947452
11.68569187 18.11188149 -4.24910318
11.57719503 18.28030448 -4.27817922
11.46821466 18.44770793 -4.30671710
11.35873349 18.61416103 -4.33473126
11.24873420 18.77973294 -4.36223616
11.13819949 18.94449284 -4.38924625
11.02711209 19.10850991 -4.41577599
10.91545468 19.27185330 -4.44183981
10.80320997 19.43459221 -4.46745218
10.69036354 19.59678815 -4.49262585
10.57691867 19.75845547 -4.51736313
10.46288540 19.91959056 -4.54166236
10.34827376 20.08018975 -4.56552186
10.23309381 20.24024938 -4.58893995
10.11735560 20.39976579 -4.61191496
10.00106917 20.55873531 -4.63444520
9.88424456 20.71715429 -4.65652901
9.76689184 20.87501906 -4.67816469
9.64902103 21.03232596 -4.69935059
9.53064220 21.18907134 -4.72008501
9.41176538 21.34525153 -4.74036628
9.29240063 21.50086286 -4.76019273
9.17255799 21.65590168 -4.77956268
9.05224751 21.81036433 -4.79847445
8.93147923 21.96424714 -4.81692636
8.81026321 22.11754646 -4.83491674
8.68860948 22.27025861 -4.85244391
8.56652811 22.42237995 -4.86950619
8.44402912 22.57390680 -4.88610190
8.32112258 22.72483552 -4.90222938
8.19781852 22.87516243 -4.91788694
8.07412700 23.02488387 -4.93307290
7.95005806 23.17399619 -4.94778559
7.82562176 23.32249572 -4.96202333
7.70082812 23.47037880 -4.97578444
7.57568721 23.61764178 -4.98906725
7.45020907 23.76428098 -5.00187007
7.32440375 23.91029274 -5.01419124
7.19828129 24.05567342 -5.02602908
7.07185174 24.20041933 -5.03738190
6.94512516 24.34452683 -5.04824804
6.81811157 24.48799225 -5.05862580
6.69082104 24.63081193 -5.06851353
6.56326361 24.77298221 -5.07790953
6.43544932 24.91449943 -5.08681214
6.30738793 25.05536009 -5.09522026
6.17908865 25.19556096 -5.10313379
6.05056065 25.33509886 -5.11055272
5.92181312 25.47397058 -5.11747705
5.79285521 25.61217294 -5.12390679
5.66369611 25.74970273 -5.12984193
5.53434499 25.88655677 -5.13528248
5.40481101 26.02273186 -5.14022843
5.27510335 26.15822481 -5.14467979
5.14523118 26.29303242 -5.14863655
5.01520368 26.42715150 -5.15209872
4.88503001 26.56057886 -5.15506629
4.75471934 26.69331130 -5.15753927
4.62428086 26.82534562 -5.15951765
4.49372372 26.95667864 -5.16100143
4.36305711 27.08730716 -5.16199063
4.23229019 27.21722798 -5.16248522
4.10143213 27.34643791 -5.16248522
3.97049212 27.47493376 -5.16199063
3.83947931 27.60271233 -5.16100143
3.70840289 27.72977043 -5.15951765
3.57727202 27.85610487 -5.15753927
3.44609587 27.98171244 -5.15506629
3.31488362 28.10658997 -5.15209872
3.18364444 28.23073424 -5.14863655
3.05238750 28.35414207 -5.14467979
2.92112198 28.47681027 -5.14022843
2.78985704 28.59873564 -5.13528248
2.65860185 28.71991499 -5.12984193
2.52736560 28.84034511 -5.12390679
2.39615744 28.96002283 -5.11747705
2.26498656 29.07894494 -5.11055272
2.13386213 29.19710825 -5.10313379
2.00279330 29.31450956 -5.09522026
1.87178927 29.43114569 -5.08681214
1.74085917 29.54701349 -5.07790953
1.61001185 29.66211028 -5.06851353
1.47925601 29.77643368 -5.05862580
1.34860033 29.88998129 -5.04824804
1.21805351 30.00275071 -5.03738190
1.08762423 30.11473957 -5.02602908
0.95732118 30.22594545 -5.01419124
0.82715305 30.33636598 -5.00187007
0.69712853 30.44599876 -4.98906725
0.56725631 30.55484139 -4.97578444
0.43754508 30.66289149 -4.96202333
0.30800352 30.77014665 -4.94778559
0.17864032 30.87660449 -4.93307290
0.04946418 30.98226262 -4.91788694
-0.07951621 31.08711864 -4.90222938
-0.20829218 31.19117016 -4.88610190
-0.33685502 31.29441479 -4.86950619
-0.46519606 31.39685013 -4.85244391
-0.59330660 31.49847380 -4.83491674
-0.72117795 31.59928339 -4.81692636
-0.84880142 31.69927652 -4.79847445
-0.97616833 31.79845080 -4.77956268
-1.10326998 31.89680383 -4.76019273
-1.23009770 31.99433321 -4.74036628
-1.35664278 32.09103657 -4.72008501
-1.48289654 32.18691149 -4.69935059
-1.60885029 32.28195560 -4.67816469
-1.73449534 32.37616650 -4.65652901
-1.85982300 32.46954179 -4.63444520
-1.98482459 32.56207909 -4.61191496
-2.10949141 32.65377600 -4.58893995
-2.23381478 32.74463012 -4.56552186
-2.35778601 32.83463907 -4.54166236
-2.48139640 32.92380046 -4.51736313
-2.60463728 33.01211188 -4.49262585
-2.72749996 33.09957097 -4.46745218
-2.84998457 33.18617950 -4.44183981
-2.97211433 33.27195029 -4.41577599
-3.09391619 33.35689789 -4.38924625
-3.21541710 33.44103686 -4.36223616
-3.33664402 33.52438178 -4.33473126
-3.45762389 33.60694722 -4.30671710
-3.57838368 33.68874774 -4.27817922
-3.69895032 33.76979790 -4.24910318
-3.81935078 33.85011228 -4.21947452
-3.93961202 33.92970544 -4.18927879
-4.05976097 34.00859195 -4.15850155
-4.17982460 34.08678638 -4.12712833
-4.29982985 34.16430329 -4.09514468
-4.41980369 34.24115725 -4.06253616
-4.53977305 34.31736282 -4.02928832
-4.65976491 34.39293458 -3.99538669
-4.77980620 34.46788710 -3.96081684
-4.89992388 34.54223493 -3.92556431
-5.02014491 34.61599264 -3.88961464
-5.14049624 34.68917481 -3.85295339
-5.26100481 34.76179600 -3.81556610
-5.38169759 34.83387078 -3.77743832
-5.50260153 34.90541371 -3.73855560
-5.62374357 34.97643936 -3.69890350
-5.74515068 35.04696230 -3.65846755
-5.86684979 35.11699709 -3.61723330
-5.98886788 35.18655831 -3.57518631
-6.11123189 35.25566052 -3.53231213
-6.23396877 35.32431828 -3.48859629
-6.35710547 35.39254617 -3.44402435
-6.48066896 35.46035874 -3.39858187
-6.60468617 35.52777058 -3.35225437
-6.72918407 35.59479624 -3.30502742
-6.85418961 35.66145029 -3.25688657
-6.97972974 35.72774730 -3.20781736
-7.10583148 35.79369992 -3.15780243
-7.23252296 35.85928848 -3.10677560
-7.35983325 35.92446656 -3.05463019
-7.48779145 35.98918689 -3.00125828
-7.61642664 36.05340221 -2.94655195
-7.74576791 36.11706528 -2.89040329
-7.87584436 36.18012882 -2.83270439
-8.00668508 36.24254559 -2.77334732
-8.13831917 36.30426833 -2.71222418
-8.27077570 36.36524978 -2.64922705
-8.40408378 36.42544268 -2.58424801
-8.53827250 36.48479978 -2.51717915
-8.67337095 36.54327382 -2.44791255
-8.80940821 36.60081755 -2.37634029
-8.94641339 36.65738371 -2.30235447
-9.08441558 36.71292503 -2.22584717
-9.22344386 36.76739427 -2.14671046
-9.36352732 36.82074417 -2.06483645
-9.50469507 36.87292747 -1.98011720
-9.64697619 36.92389691 -1.89244481
-9.79039978 36.97360525 -1.80171135
-9.93499492 37.02200521 -1.70780893
-10.08079070 37.06904954 -1.61062961
-10.22781623 37.11469100 -1.51006549
-10.37610059 37.15888231 -1.40600864
-10.52567287 37.20157623 -1.29835116
-10.67656216 37.24272549 -1.18698513
-10.82879757 37.28228285 -1.07180263
-10.98240817 37.32020104 -0.95269575
-11.13742306 37.35643280 -0.82955657
-11.29387134 37.39093089 -0.70227718
-11.45178209 37.42364804 -0.57074966
-11.61118440 37.45453699 -0.43486610
-11.77210738 37.48355050 -0.29451858
-11.93458010 37.51064130 -0.14959918
-12.09863167 37.53576214 -0.00000000
LINES 3 703
150 0 1 2 3 4 5 6 7 8 9 10 11 12 13 14 15 16 17 18 19 20 21 22 23 24 25 26 27 28 29 30 31 32 33 34 35 36 37 38 39 40 41 42 43 44 45 46 47 48 49 50 51 52 53 54 55 56 57 58 59 60 61 62 63 64 65 66 67 68 69 70 71 72 73 74 75 76 77 78 79 80 81 82 83 84 85 86 87 88 89 90 91 92 93 94 95 96 97 98 99 100 101 102 103 104 105 106 107 108 109 110 111 112 113 114 115 116 117 118 119 120 121 122 123 124 125 126 127 128 129 130 131 132 133 134 135 136 137 138 139 140 141 142 143 144 145 146 147 148 149
300 150 151 152 153 154 155 156 157 158 159 160 161 162 163 164 165 166 167 168 169 170 171 172 173 174 175 176 177 178 179 180 181 182 183 184 185 186 187 188 189 190 191 192 193 194 195 196 197 198 199 200 201 202 203 204 205 206 207 208 209 210 211 212 213 214 215 216 217 218 219 220 221 222 223 224 225 226 227 228 229 230 231 232 233 234 235 236 237 238 239 240 241 242 243 244 245 246 247 248 249 250 251 252 253 254 255 256 257 258 259 260 261 262 263 264 265 266 267 268 269 270 271 272 273 274 275 276 277 278 279 280 281 282 283 284 285 286 287 288 289 290 291 292 293 294 295 296 297 298 299 300 301 302 303 304 305 306 307 308 309 310 311 312 313 314 315 316 317 318 319 320 321 322 323 324 325 326 327 328 329 330 331 332 333 334 335 336 337 338 339 340 341 342 343 344 345 346 347 348 349 350 351 352 353 354 355 356 357 358 359 360 361 362 363 364 365 366 367 368 369 370 371 372 373 374 375 376 377 378 379 380 381 382 383 384 385 386 387 388 389 390 391 392 393 394 395 396 397 398 399 400 401 402 403 404 405 406 407 408 409 410 411 412 413 414 415 416 417 418 419 420 421 422 423 424 425 426 427 428 429 430 431 432 433 434 435 436 437 438 439 440 441 442 443 444 445 446 447 448 449
250 450 451 452 453 454 455 456 457 458 459 460 461 462 463 464 465 466 467 468 469 470 471 472 473 474 475 476 477 478 479 480 481 482 483 484 485 486 487 488 489 490 491 492 493 494 495 496 497 498 499 500 501 502 503 504 505 506 507 508 509 510 511 512 513 514 515 516 517 518 519 520 521 522 523 524 525 526 527 528 529 530 531 532 533 534 535 536 537 538 539 540 541 542 543 544 545 546 547 548 549 550 551 552 553 554 555 556 557 558 559 560 561 562 563 564 565 566 567 568 569 570 571 572 573 574 575 576 577 578 579 580 581 582 583 584 585 586 587 588 589 590 591 592 593 594 595 596 597 598 599 600 601 602 603 604 605 606 607 608 609 610 611 612 613 614 615 616 617 618 619 620 621 622 623 624 625 626 627 628 629 630 631 632 633 634 635 636 637 638 639 640 641 642 643 644 645 646 647 648 649 650 651 652 653 654 655 656 657 658 659 660 661 662 663 664 665 666 667 668 669 670 671 672 673 674 675 676 677 678 679 680 681 682 683 684 685 686 687 688 689 690 691 692 693 694 695 696 697 698 699
POINT_DATA 700
SCALARS branch_id int 1
LOOKUP_TABLE default
1
1
1
1
1
1
1
1
1
1
1
1
1
1
1
1
1
1
1
1
1
1
1
1
1
1
1
1
1
1
1
1
1
1
1
1
1
1
1
1
1
1
1
1
1
1
1
1
1
1
1
1
1
1
1
1
1
1
1
1
1
1
1
1
1
1
1
1
1
1
1
1
1
1
1
1
1
1
1
1
1
1
1
1
1
1
1
1
1
1
1
1
1
1
1
1
1
1
1
1
1
1
1
1
1
1
1
1
1
1
1
1
1
1
1
1
1
1
1
1
1
1
1
1
1
1
1
1
1
1
1
1
1
1
1
1
1
1
1
1
1
1
1
1
1
1
1
1
1
1
2
2
2
2
2
2
2
2
2
2
2
2
2
2
2
2
2
2
2
2
2
2
2
2
2
2
2
2
2
2
2
2
2
2
2
2
2
2
2
2
2
2
2
2
2
2
2
2
2
2
2
2
2
2
2
2
2
2
2
2
2
2
2
2
2
2
2
2
2
2
2
2
2
2
2
2
2
2
2
2
2
2
2
2
2
2
2
2
2
2
2
2
2
2
2
2
2
2
2
2
2
2
2
2
2
2
2
2
2
2
2
2
2
2
2
2
2
2
2
2
2
2
2
2
2
2
2
2
2
2
2
2
2
2
2
2
2
2
2
2
2
2
2
2
2
2
2
2
2
2
2
2
2
2
2
2
2
2
2
2
2
2
2
2
2
2
2
2
2
2
2
2
2
2
2
2
2
2
2
2
2
2
2
2
2
2
2
2
2
2
2
2
2
2
2
2
2
2
2
2
2
2
2
2
2
2
2
2
2
2
2
2
2
2
2
2
2
2
2
2
2
2
2
2
2
2
2
2
2
2
2
2
2
2
2
2
2
2
2
2
2
2
2
2
2
2
2
2
2
2
2
2
2
2
2
2
2
2
2
2
2
2
2
2
2
2
2
2
2
2
2
2
2
2
2
2
2
2
2
2
2
2
2
2
2
2
2
2
2
2
2
2
2
2
2
2
2
2
2
2
3
3
3
3
3
3
3
3
3
3
3
3
3
3
3
3
3
3
3
3
3
3
3
3
3
3
3
3
3
3
3
3
3
3
3
3
3
3
3
3
3
3
3
3
3
3
3
3
3
3
3
3
3
3
3
3
3
3
3
3
3
3
3
3
3
3
3
3
3
3
3
3
3
3
3
3
3
3
3
3
3
3
3
3
3
3
3
3
3
3
3
3
3
3
3
3
3
3
3
3
3
3
3
3
3
3
3
3
3
3
3
3
3
3
3
3
3
3
3
3
3
3
3
3
3
3
3
3
3
3
3
3
3
3
3
3
3
3
3
3
3
3
3
3
3
3
3
3
3
3
3
3
3
3
3
3
3
3
3
3
3
3
3
3
3
3
3
3
3
3
3
3
3
3
3
3
3
3
3
3
3
3
3
3
3
3
3
3
3
3
3
3
3
3
3
3
3
3
3
3
3
3
3
3
3
3
3
3
3
3
3
3
3
3
3
3
3
3
3
3
3
3
3
3
3
3
3
3
3
3
3
3
3
3
3
3
3
3
3
3
3
3
3
3
3
3
3
3
3
3
SCALARS point_index int 1
LOOKUP_TABLE default
0
1
2
3
4
5
6
7
8
9
10
11
12
13
14
15
16
17
18
19
20
21
22
23
24
25
26
27
28
29
30
31
32
33
34
35
36
37
38
39
40
41
42
43
44
45
46
47
48
49
50
51
52
53
54
55
56
57
58
59
60
61
62
63
64
65
66
67
68
69
70
71
72
73
74
75
76
77
78
79
80
81
82
83
84
85
86
87
88
89
90
91
92
93
94
95
96
97
98
99
100
101
102
103
104
105
106
107
108
109
110
111
112
113
114
115
116
117
118
119
120
121
122
123
124
125
126
127
128
129
130
131
132
133
134
135
136
137
138
139
140
141
142
143
144
145
146
147
148
149
0
1
2
3
4
5
6
7
8
9
10
11
12
13
14
15
16
17
18
19
20
21
22
23
24
25
26
27
28
29
30
31
32
33
34
35
36
37
38
39
40
41
42
43
44
45
46
47
48
49
50
51
52
53
54
55
56
57
58
59
60
61
62
63
64
65
66
67
68
69
70
71
72
73
74
75
76
77
78
79
80
81
82
83
84
85
86
87
88
89
90
91
92
93
94
95
96
97
98
99
100
101
102
103
104
105
106
107
108
109
110
111
112
113
114
115
116
117
118
119
120
121
122
123
124
125
126
127
128
129
130
131
132
133
134
135
136
137
138
139
140
141
142
143
144
145
146
147
148
149
150
151
152
153
154
155
156
157
158
159
160
161
162
163
164
165
166
167
168
169
170
171
172
173
174
175
176
177
178
179
180
181
182
183
184
185
186
187
188
189
190
191
192
193
194
195
196
197
198
199
200
201
202
203
204
205
206
207
208
209
210
211
212
213
214
215
216
217
218
219
220
221
222
223
224
225
226
227
228
229
230
231
232
233
234
235
236
237
238
239
240
241
242
243
244
245
246
247
248
249
250
251
252
253
254
255
256
257
258
259
260
261
262
263
264
265
266
267
268
269
270
271
272
273
274
275
276
277
278
279
280
281
282
283
284
285
286
287
288
289
290
291
292
293
294
295
296
297
298
299
0
1
2
3
4
5
6
7
8
9
10
11
12
13
14
15
16
17
18
19
20
21
22
23
24
25
26
27
28
29
30
31
32
33
34
35
36
37
38
39
40
41
42
43
44
45
46
47
48
49
50
51
52
53
54
55
56
57
58
59
60
61
62
63
64
65
66
67
68
69
70
71
72
73
74
75
76
77
78
79
80
81
82
83
84
85
86
87
88
89
90
91
92
93
94
95
96
97
98
99
100
101
102
103
104
105
106
107
108
109
110
111
112
113
114
115
116
117
118
119
120
121
122
123
124
125
126
127
128
129
130
131
132
133
134
135
136
137
138
139
140
141
142
143
144
145
146
147
148
149
150
151
152
153
154
155
156
157
158
159
160
161
162
163
164
165
166
167
168
169
170
171
172
173
174
175
176
177
178
179
180
181
182
183
184
185
186
187
188
189
190
191
192
193
194
195
196
197
198
199
200
201
202
203
204
205
206
207
208
209
210
211
212
213
214
215
216
217
218
219
220
221
222
223
224
225
226
227
228
229
230
231
232
233
234
235
236
237
238
239
240
241
242
243
244
245
246
247
248
249
