# vtk DataFile Version 3.0
patient_0001 anatomical LCA centerlines
ASCII
DATASET POLYDATA
POINTS 700 float
0.00000000 0.00000000 0.00000000
0.27766180 0.03911210 0.01972271
0.55162189 0.07739108 0.03864585
0.82193064 0.11484530 0.05678030
1.08863840 0.15148310 0.07413693
1.35179554 0.18731282 0.09072664
1.61145243 0.22234281 0.10656029
1.86765942 0.25658141 0.12164876
2.12046688 0.29003696 0.13600293
2.36992518 0.32271782 0.14963368
2.61608468 0.35463232 0.16255189
2.85899573 0.38578881 0.17476844
3.09870871 0.41619563 0.18629420
3.33527398 0.44586114 0.19714006
3.56874190 0.47479366 0.20731689
3.79916284 0.50300156 0.21683558
4.02658715 0.53049316 0.22570699
4.25106520 0.55727683 0.23394201
4.47264736 0.58336089 0.24155151
4.69138399 0.60875370 0.24854638
4.90732544 0.63346360 0.25493750
5.12052210 0.65749893 0.26073574
5.33102431 0.68086805 0.26595197
5.53888244 0.70357928 0.27059709
5.74414686 0.72564099 0.27468197
5.94686792 0.74706150 0.27821748
6.14709600 0.76784917 0.28121450
6.34488145 0.78801235 0.28368392
6.54027465 0.80755937 0.28563661
6.73332594 0.82649858 0.28708345
6.92408570 0.84483833 0.28803532
7.11260429 0.86258695 0.28850309
7.29893207 0.87975280 0.28849765
7.48311940 0.89634421 0.28802988
7.66521666 0.91236954 0.28711065
7.84527420 0.92783713 0.28575083
8.02334238 0.94275532 0.28396132
8.19947157 0.95713245 0.28175299
8.37371214 0.97097688 0.27913671
8.54611444 0.98429694 0.27612337
8.71672884 0.99710098 0.27272384
8.88560570 1.00939734 0.26894900
9.05279539 1.02119437 0.26480973
9.21834827 1.03250042 0.26031692
9.38231470 1.04332382 0.25548142
9.54474505 1.05367292 0.25031414
9.70568968 1.06355608 0.24482594
9.86519895 1.07298162 0.23902770
10.02332323 1.08195789 0.23293031
10.18011288 1.09049325 0.22654463
10.33561826 1.09859603 0.21988155
10.48988974 1.10627458 0.21295195
10.64297768 1.11353725 0.20576671
10.79493244 1.12039237 0.19833670
10.94580439 1.12684829 0.19067280
11.09564389 1.13291336 0.18278589
11.24450130 1.13859593 0.17468685
11.39242699 1.14390432 0.16638656
11.53947132 1.14884690 0.15789590
11.68568466 1.15343201 0.14922574
11.83111736 1.15766798 0.14038696
11.97581979 1.16156316 0.13139045
12.11984232 1.16512591 0.12224707
12.26323530 1.16836455 0.11296772
12.40604911 1.17128745 0.10356326
12.54833410 1.17390293 0.09404458
12.69014063 1.17621935 0.08442255
12.83151908 1.17824506 0.07470806
12.97251981 1.17998838 0.06491197
13.11319317 1.18145768 0.05504518
13.25358953 1.18266129 0.04511855
13.39375926 1.18360756 0.03514297
13.53375271 1.18430483 0.02512932
13.67362026 1.18476145 0.01508847
13.81341226 1.18498576 0.00503130
13.95317908 1.18498576 -0.00503130
14.09297108 1.18476145 -0.01508847
14.23283863 1.18430483 -0.02512932
14.37283208 1.18360756 -0.03514297
14.51300181 1.18266129 -0.04511855
14.65339817 1.18145768 -0.05504518
14.79407154 1.17998838 -0.06491197
14.93507226 1.17824506 -0.07470806
15.07645071 1.17621935 -0.08442255
15.21825724 1.17390293 -0.09404458
15.36054223 1.17128745 -0.10356326
15.50335604 1.16836455 -0.11296772
15.64674902 1.16512591 -0.12224707
15.79077155 1.16156316 -0.13139045
15.93547398 1.15766798 -0.14038696
16.08090669 1.15343201 -0.14922574
16.22712002 1.14884690 -0.15789590
16.37416435 1.14390432 -0.16638656
16.52209004 1.13859593 -0.17468685
16.67094746 1.13291336 -0.18278589
16.82078696 1.12684829 -0.19067280
16.97165890 1.12039237 -0.19833670
17.12361367 1.11353725 -0.20576671
17.27670160 1.10627458 -0.21295195
17.43097308 1.09859603 -0.21988155
17.58647846 1.09049325 -0.22654463
17.74326811 1.08195789 -0.23293031
17.90139239 1.07298162 -0.23902770
18.06090166 1.06355608 -0.24482594
18.22184629 1.05367292 -0.25031414
18.38427664 1.04332382 -0.25548142
18.54824307 1.03250042 -0.26031692
18.71379595 1.02119437 -0.26480973
18.88098564 1.00939734 -0.26894900
19.04986250 0.99710098 -0.27272384
19.22047690 0.98429694 -0.27612337
19.39287920 0.97097688 -0.27913671
19.56711977 0.95713245 -0.28175299
19.74324896 0.94275532 -0.28396132
19.92131715 0.92783713 -0.28575083
20.10137468 0.91236954 -0.28711065
20.28347194 0.89634421 -0.28802988
20.46765927 0.87975280 -0.28849765
20.65398705 0.86258695 -0.28850309
20.84250564 0.84483833 -0.28803532
21.03326540 0.82649858 -0.28708345
21.22631670 0.80755937 -0.28563661
21.42170989 0.78801235 -0.28368392
21.61949534 0.76784917 -0.28121450
21.81972342 0.74706150 -0.27821748
22.02244448 0.72564099 -0.27468197
22.22770890 0.70357928 -0.27059709
22.43556703 0.68086805 -0.26595197
22.64606925 0.65749893 -0.26073574
22.85926590 0.63346360 -0.25493750
23.07520736 0.60875370 -0.24854638
23.29394398 0.58336089 -0.24155151
23.51552614 0.55727683 -0.23394201
23.74000419 0.53049316 -0.22570699
23.96742850 0.50300156 -0.21683558
24.19784944 0.47479366 -0.20731689
24.43131736 0.44586114 -0.19714006
24.66788263 0.41619563 -0.18629420
24.90759561 0.38578881 -0.17476844
25.15050667 0.35463232 -0.16255189
25.39666616 0.32271782 -0.14963368
25.64612446 0.29003696 -0.13600293
25.89893192 0.25658141 -0.12164876
26.15513892 0.22234281 -0.10656029
26.41479580 0.18731282 -0.09072664
26.67795294 0.15148310 -0.07413693
26.94466071 0.11484530 -0.05678030
27.21496945 0.07739108 -0.03864585
27.48892954 0.03911210 -0.01972271
27.76659134 0.00000000 -0.00000000
27.76659134 0.00000000 -0.00000000
28.10313797 -0.13503424 -0.65688842
28.42925771 -0.26571149 -1.29596406
28.74521502 -0.39214068 -1.91769761
29.05127438 -0.51443074 -2.52255974
29.34770027 -0.63269062 -3.11102114
29.63475716 -0.74702924 -3.68355249
29.91270953 -0.85755554 -4.24062446
30.18182185 -0.96437847 -4.78270774
30.44235860 -1.06760695 -5.31027302
30.69458425 -1.16734991 -5.82379096
30.93876328 -1.26371631 -6.32373225
31.17516016 -1.35681506 -6.81056757
31.40403937 -1.44675511 -7.28476760
31.62566538 -1.53364539 -7.74680302
31.84030267 -1.61759485 -8.19714452
32.04821571 -1.69871240 -8.63626276
32.24966898 -1.77710700 -9.06462844
32.44492695 -1.85288757 -9.48271223
32.63425410 -1.92616305 -9.89098482
32.81791490 -1.99704237 -10.28991688
32.99617383 -2.06563448 -10.67997910
33.16929536 -2.13204831 -11.06164215
33.33754397 -2.19639279 -11.43537671
33.50118413 -2.25877686 -11.80165347
33.66048032 -2.31930945 -12.16094311
33.81569701 -2.37809950 -12.51371631
33.96709868 -2.43525595 -12.86044374
34.11494980 -2.49088773 -13.20159610
34.25951485 -2.54510378 -13.53764405
34.40105830 -2.59801303 -13.86905828
34.53984463 -2.64972442 -14.19630947
34.67613831 -2.70034689 -14.51986830
34.81020382 -2.74998936 -14.84020545
34.94228854 -2.79875353 -15.15776347
35.07250413 -2.84668350 -15.47276157
35.20089751 -2.89379593 -15.78531242
35.32751521 -2.94010730 -16.09552803
35.45240377 -2.98563408 -16.40352045
35.57560970 -3.03039277 -16.70940168
35.69717955 -3.07439984 -17.01328375
35.81715984 -3.11767178 -17.31527869
35.93559709 -3.16022507 -17.61549852
36.05253784 -3.20207619 -17.91405526
36.16802862 -3.24324162 -18.21106093
36.28211595 -3.28373785 -18.50662756
36.39484638 -3.32358136 -18.80086717
36.50626641 -3.36278862 -19.09389178
36.61642259 -3.40137614 -19.38581343
36.72536144 -3.43936037 -19.67674412
36.83312949 -3.47675781 -19.96679588
36.93977328 -3.51358495 -20.25608074
37.04533932 -3.54985825 -20.54471072
37.14987416 -3.58559421 -20.83279784
37.25342431 -3.62080930 -21.12045413
37.35603632 -3.65552002 -21.40779161
37.45775670 -3.68974283 -21.69492230
37.55863198 -3.72349423 -21.98195822
37.65870870 -3.75679069 -22.26901141
37.75803339 -3.78964871 -22.55619387
37.85665257 -3.82208475 -22.84361764
37.95461278 -3.85411530 -23.13139474
38.05196053 -3.88575685 -23.41963719
38.14874237 -3.91702588 -23.70845701
38.24500482 -3.94793886 -23.99796623
38.34079441 -3.97851229 -24.28827686
38.43615767 -4.00876264 -24.57950095
38.53113973 -4.03870588 -24.87174708
38.62576074 -4.06834856 -25.16506246
38.72001920 -4.09768911 -25.45944119
38.81391292 -4.12672572 -25.75487561
38.90743968 -4.15545653 -26.05135808
39.00059730 -4.18387972 -26.34888093
39.09338357 -4.21199345 -26.64743652
39.18579628 -4.23979589 -26.94701719
39.27783325 -4.26728520 -27.24761528
39.36949226 -4.29445955 -27.54922315
39.46077112 -4.32131710 -27.85183313
39.55166762 -4.34785603 -28.15543758
39.64217957 -4.37407449 -28.46002884
39.73230476 -4.39997066 -28.76559926
39.82204099 -4.42554269 -29.07214118
39.91138607 -4.45078876 -29.37964695
40.00033778 -4.47570703 -29.68810892
40.08889393 -4.50029566 -29.99751943
40.17705232 -4.52455283 -30.30787083
40.26481075 -4.54847669 -30.61915547
40.35216702 -4.57206542 -30.93136568
40.43911891 -4.59531717 -31.24449382
40.52566425 -4.61823012 -31.55853224
40.61180081 -4.64080244 -31.87347328
40.69752641 -4.66303227 -32.18930928
40.78283883 -4.68491780 -32.50603259
40.86773589 -4.70645719 -32.82363556
40.95221538 -4.72764860 -33.14211054
41.03627509 -4.74849020 -33.46144987
41.11991283 -4.76898016 -33.78164590
41.20312640 -4.78911664 -34.10269097
41.28591359 -4.80889781 -34.42457742
41.36827220 -4.82832183 -34.74729762
41.45020005 -4.84738687 -35.07084385
41.53169531 -4.86609143 -35.39520550
41.61275681 -4.88443452 -35.72036747
41.69338338 -4.90241517 -36.04631425
41.77357389 -4.92003243 -36.37303035
41.85332718 -4.93728535 -36.70050026
41.93264211 -4.95417296 -37.02870848
42.01151753 -4.97069432 -37.35763953
42.08995229 -4.98684846 -37.68727788
42.16794525 -5.00263444 -38.01760806
42.24549526 -5.01805128 -38.34861455
42.32260118 -5.03309805 -38.68028186
42.39926185 -5.04777379 -39.01259449
42.47547613 -5.06207753 -39.34553693
42.55124287 -5.07600832 -39.67909370
42.62656093 -5.08956521 -40.01324928
42.70142915 -5.10274724 -40.34798818
42.77584640 -5.11555345 -40.68329490
42.84981152 -5.12798289 -41.01915395
42.92332337 -5.14003460 -41.35554981
42.99638080 -5.15170764 -41.69246700
43.06898266 -5.16300103 -42.02989000
43.14112781 -5.17391383 -42.36780333
43.21281510 -5.18444508 -42.70619148
43.28404338 -5.19459382 -43.04503896
43.35481151 -5.20435910 -43.38433025
43.42511834 -5.21373996 -43.72404988
43.49496272 -5.22273545 -44.06418232
43.56434350 -5.23134461 -44.40471209
43.63325954 -5.23956648 -44.74562369
43.70170969 -5.24740011 -45.08690161
43.76969280 -5.25484455 -45.42853035
43.83720774 -5.26189883 -45.77049443
43.90425334 -5.26856201 -46.11277833
43.97082872 -5.27483334 -46.45536589
44.03693376 -5.28071271 -46.79823902
44.10256845 -5.28620012 -47.14137931
44.16773278 -5.29129558 -47.48476833
44.23242677 -5.29599907 -47.82838766
44.29665041 -5.30031061 -48.17221886
44.36040370 -5.30423019 -48.51624352
44.42368664 -5.30775781 -48.86044322
44.48649923 -5.31089348 -49.20479952
44.54884147 -5.31363719 -49.54929400
44.61071336 -5.31598893 -49.89390824
44.67211490 -5.31794872 -50.23862381
44.73304609 -5.31951656 -50.58342230
44.79350693 -5.32069243 -50.92828527
44.85349742 -5.32147635 -51.27319430
44.91301756 -5.32186830 -51.61813097
44.97206735 -5.32186830 -51.96307685
45.03064679 -5.32147635 -52.30801351
45.08875588 -5.32069243 -52.65292254
45.14639463 -5.31951656 -52.99778551
45.20356302 -5.31794872 -53.34258400
45.26026106 -5.31598893 -53.68729957
45.31648876 -5.31363719 -54.03191382
45.37224610 -5.31089348 -54.37640830
45.42753310 -5.30775781 -54.72076460
45.48234974 -5.30423019 -55.06496429
45.53669603 -5.30031061 -55.40898895
45.59057198 -5.29599907 -55.75282015
45.64397758 -5.29129558 -56.09643948
45.69691282 -5.28620012 -56.43982850
45.74937772 -5.28071271 -56.78296879
45.80137226 -5.27483334 -57.12584193
45.85289646 -5.26856201 -57.46842949
45.90395044 -5.26189883 -57.81071338
45.95453509 -5.25484455 -58.15267746
46.00465156 -5.24740011 -58.49430621
46.05430099 -5.23956648 -58.83558413
46.10348454 -5.23134461 -59.17649572
46.15220334 -5.22273545 -59.51702549
46.20045854 -5.21373996 -59.85715794
46.24825130 -5.20435910 -60.19687756
46.29558276 -5.19459382 -60.53616886
46.34245406 -5.18444508 -60.87501633
46.38886635 -5.17391383 -61.21340448
46.43482079 -5.16300103 -61.55131781
46.48031851 -5.15170764 -61.88874082
46.52536066 -5.14003460 -62.22565800
46.56994839 -5.12798289 -62.56205387
46.61408285 -5.11555345 -62.89791291
46.65776519 -5.10274724 -63.23321963
46.70099655 -5.08956521 -63.56795853
46.74377807 -5.07600832 -63.90211412
46.78611091 -5.06207753 -64.23567088
46.82799622 -5.04777379 -64.56861333
46.86943513 -5.03309805 -64.90092595
46.91042880 -5.01805128 -65.23259326
46.95097837 -5.00263444 -65.56359975
46.99108499 -4.98684846 -65.89392993
47.03074981 -4.97069432 -66.22356829
47.06997398 -4.95417296 -66.55249933
47.10875863 -4.93728535 -66.88070755
47.14710492 -4.92003243 -67.20817747
47.18501400 -4.90241517 -67.53489356
47.22248701 -4.88443452 -67.86084034
47.25952510 -4.86609143 -68.18600231
47.29612942 -4.84738687 -68.51036397
47.33230116 -4.82832183 -68.83391019
47.36804213 -4.80889781 -69.15663039
47.40335452 -4.78911664 -69.47851685
47.43824054 -4.76898016 -69.79956192
47.47270238 -4.74849020 -70.11975794
47.50674225 -4.72764860 -70.43909727
47.54036234 -4.70645719 -70.75757225
47.57356487 -4.68491780 -71.07517522
47.60635203 -4.66303227 -71.39189854
47.63872601 -4.64080244 -71.70773454
47.67068903 -4.61823012 -72.02267557
47.70224328 -4.59531717 -72.33671399
47.73339097 -4.57206542 -72.64984213
47.76413429 -4.54847669 -72.96205235
47.79447544 -4.52455283 -73.27333698
47.82441664 -4.50029566 -73.58368838
47.85396007 -4.47570703 -73.89309889
47.88310794 -4.45078876 -74.20156086
47.91186245 -4.42554269 -74.50906663
47.94022580 -4.39997066 -74.81560855
47.96820019 -4.37407449 -75.12117897
47.99578783 -4.34785603 -75.42577023
48.02299091 -4.32131710 -75.72937468
48.04981163 -4.29445955 -76.03198467
48.07625220 -4.26728520 -76.33359253
48.10231482 -4.23979589 -76.63419063
48.12800169 -4.21199345 -76.93377129
48.15331500 -4.18387972 -77.23232688
48.17825697 -4.15545653 -77.52984974
48.20282978 -4.12672572 -77.82633220
48.22703565 -4.09768911 -78.12176663
48.25087677 -4.06834856 -78.41614536
48.27435535 -4.03870588 -78.70946074
48.29747365 -4.00876264 -79.00170687
48.32023607 -3.97851229 -79.29293095
48.34264943 -3.94793886 -79.58324159
48.36472071 -3.91702588 -79.87275081
48.38645689 -3.88575685 -80.16157063
48.40786493 -3.85411530 -80.44981308
48.42895180 -3.82208475 -80.73759017
48.44972448 -3.78964871 -81.02501394
48.47018994 -3.75679069 -81.31219641
48.49035515 -3.72349423 -81.59924959
48.51022708 -3.68974283 -81.88628551
48.52981270 -3.65552002 -82.17341620
48.54911899 -3.62080930 -82.46075368
48.56815292 -3.58559421 -82.74840997
48.58692145 -3.54985825 -83.03649709
48.60543157 -3.51358495 -83.32512707
48.62369024 -3.47675781 -83.61441193
48.64170443 -3.43936037 -83.90446370
48.65948111 -3.40137614 -84.19539439
48.67702727 -3.36278862 -84.48731603
48.69434986 -3.32358136 -84.78034064
48.71145586 -3.28373785 -85.07458025
48.72835225 -3.24324162 -85.37014688
48.74504599 -3.20207619 -85.66715256
48.76154405 -3.16022507 -85.96570929
48.77785342 -3.11767178 -86.26592912
48.79398105 -3.07439984 -86.56792406
48.80993392 -3.03039277 -86.87180613
48.82571901 -2.98563408 -87.17768737
48.84134327 -2.94010730 -87.48567978
48.85681370 -2.89379593 -87.79589540
48.87213725 -2.84668350 -88.10844624
48.88732090 -2.79875353 -88.42344434
48.90237162 -2.74998936 -88.74100237
48.91729519 -2.70034689 -89.06133952
48.93209496 -2.64972442 -89.38489835
48.94677395 -2.59801303 -89.71214954
48.96133520 -2.54510378 -90.04356377
48.97578174 -2.49088773 -90.37961172
48.99011658 -2.43525595 -90.72076407
49.00434277 -2.37809950 -91.06749150
49.01846334 -2.31930945 -91.42026470
49.03248130 -2.25877686 -91.77955434
49.04639970 -2.19639279 -92.14583110
49.06022155 -2.13204831 -92.51956567
49.07394990 -2.06563448 -92.90122872
49.08758777 -1.99704237 -93.29129093
49.10113819 -1.92616305 -93.69022299
49.11460418 -1.85288757 -94.09849558
49.12798879 -1.77710700 -94.51657937
49.14129503 -1.69871240 -94.94494505
49.15452594 -1.61759485 -95.38406330
49.16768454 -1.53364539 -95.83440479
49.18077387 -1.44675511 -96.29644021
49.19379696 -1.35681506 -96.77064024
49.20675683 -1.26371631 -97.25747557
49.21965652 -1.16734991 -97.75741686
49.23249905 -1.06760695 -98.27093480
49.24528745 -0.96437847 -98.79850007
49.25802475 -0.85755554 -99.34058335
49.27071399 -0.74702924 -99.89765533
49.28335819 -0.63269062 -100.47018667
49.29596038 -0.51443074 -101.05864807
49.30852359 -0.39214068 -101.66351021
49.32105085 -0.26571149 -102.28524376
49.33354519 -0.13503424 -102.92431940
49.34600964 -0.00000000 -103.58120781
27.76659134 0.00000000 -0.00000000
27.64154245 1.11194633 -0.29047415
27.51345921 2.19187275 -0.57186163
27.38242430 3.24053758 -0.84437199
27.24852038 4.25869918 -1.10821475
27.11183011 5.24711589 -1.36359946
26.97243614 6.20654605 -1.61073566
26.83042115 7.13774801 -1.84983287
26.68586780 8.04148011 -2.08110065
26.53885874 8.91850068 -2.30474851
26.38947664 9.76956809 -2.52098601
26.23780415 10.59544066 -2.73002268
26.08392396 11.39687674 -2.93206806
25.92791870 12.17463468 -3.12733168
25.76987106 12.92947282 -3.31602308
25.60986368 13.66214950 -3.49835180
25.44797923 14.37342306 -3.67452737
25.28430038 15.06405185 -3.84475934
25.11890978 15.73479422 -4.00925724
24.95189009 16.38640850 -4.16823060
24.78332399 17.01965303 -4.32188897
24.61329412 17.63528617 -4.47044189
24.44188316 18.23406625 -4.61409888
24.26917377 18.81675163 -4.75306948
24.09524859 19.38410063 -4.88756324
23.92019031 19.93687160 -5.01778970
23.74408158 20.47582290 -5.14395838
23.56700506 21.00171286 -5.26627882
23.38904342 21.51529982 -5.38496057
23.21027931 22.01734212 -5.50021315
23.03079540 22.50859812 -5.61224612
22.85067435 22.98982616 -5.72126900
22.66999883 23.46178457 -5.82749132
22.48885149 23.92523170 -5.93112264
22.30731499 24.38092589 -6.03237249
22.12547201 24.82962550 -6.13145039
21.94340369 25.27208067 -6.22856352
21.76114141 25.70877134 -6.32384036
21.57865658 26.13985173 -6.41731463
21.39591702 26.56545671 -6.50901438
21.21289057 26.98572111 -6.59896767
21.02954504 27.40077978 -6.68720256
20.84584827 27.81076758 -6.77374712
20.66176808 28.21581935 -6.85862941
20.47727230 28.61606994 -6.94187748
20.29232876 29.01165419 -7.02351939
20.10690529 29.40270696 -7.10358321
19.92096971 29.78936309 -7.18209699
19.73448985 30.17175743 -7.25908880
19.54743353 30.55002483 -7.33458670
19.35976860 30.92430014 -7.40861875
19.17146287 31.29471821 -7.48121300
18.98248417 31.66141388 -7.55239752
18.79280033 32.02452200 -7.62220037
18.60237917 32.38417742 -7.69064960
18.41118853 32.74051499 -7.75777329
18.21919623 33.09366955 -7.82359949
18.02637010 33.44377596 -7.88815625
17.83267797 33.79096907 -7.95147165
17.63808766 34.13538371 -8.01357374
17.44256700 34.47715474 -8.07449058
17.24608383 34.81641701 -8.13425023
17.04860596 35.15330536 -8.19288075
16.85010122 35.48795465 -8.25041021
16.65053745 35.82049972 -8.30686666
16.44988246 36.15107542 -8.36227816
16.24810409 36.47981659 -8.41667278
16.04517017 36.80685809 -8.47007857
15.84104852 37.13233477 -8.52252359
15.63570697 37.45638147 -8.57403591
15.42911334 37.77913303 -8.62464359
15.22123548 38.10072432 -8.67437468
15.01204654 38.42127521 -8.72325396
14.80155269 38.74081330 -8.77128592
14.58977268 39.05933098 -8.81846731
14.37672527 39.37682058 -8.86479489
14.16242923 39.69327445 -8.91026539
13.94690331 40.00868491 -8.95487557
13.73016629 40.32304429 -8.99862215
13.51223693 40.63634494 -9.04150189
13.29313399 40.94857919 -9.08351153
13.07287623 41.25973936 -9.12464781
12.85148243 41.56981780 -9.16490748
12.62897135 41.87880684 -9.20428728
12.40536175 42.18669880 -9.24278395
12.18067240 42.49348603 -9.28039424
11.95492205 42.79916086 -9.31711490
11.72812949 43.10371562 -9.35294266
11.50031346 43.40714265 -9.38787426
11.27149274 43.70943428 -9.42190647
11.04168609 44.01058284 -9.45503600
10.81091227 44.31058066 -9.48725962
10.57919005 44.60942009 -9.51857406
10.34653820 44.90709345 -9.54897607
10.11297547 45.20359309 -9.57846239
9.87852064 45.49891132 -9.60702976
9.64319247 45.79304049 -9.63467493
9.40700972 46.08597293 -9.66139465
9.16999115 46.37770097 -9.68718565
8.93215554 46.66821695 -9.71204467
8.69352165 46.95751320 -9.73596848
8.45410823 47.24558205 -9.75895380
8.21393407 47.53241585 -9.78099738
7.97301791 47.81800691 -9.80209596
7.73137853 48.10234759 -9.82224629
7.48903469 48.38543020 -9.84144511
7.24600515 48.66724708 -9.85968917
7.00230869 48.94779058 -9.87697522
6.75796471 49.22705351 -9.89330112
6.51299375 49.50502955 -9.90866668
6.26741645 49.78171243 -9.92307188
6.02125345 50.05709593 -9.93651674
5.77452539 50.33117380 -9.94900125
5.52725291 50.60393978 -9.96052542
5.27945667 50.87538763 -9.97108924
5.03115730 51.14551112 -9.98069271
4.78237544 51.41430398 -9.98933583
4.53313175 51.68175998 -9.99701861
4.28344686 51.94787287 -10.00374104
4.03334141 52.21263640 -10.00950312
3.78283606 52.47604434 -10.01430486
3.53195143 52.73809043 -10.01814624
3.28070818 52.99876842 -10.02102729
3.02912696 53.25807208 -10.02294798
2.77722839 53.51599515 -10.02390833
2.52503313 53.77253140 -10.02390833
2.27256181 54.02767457 -10.02294798
2.01983509 54.28141841 -10.02102729
1.76687360 54.53375670 -10.01814624
1.51369799 54.78468317 -10.01430486
1.26032890 55.03419158 -10.00950312
1.00678698 55.28227569 -10.00374104
0.75309286 55.52892925 -9.99701861
0.49926720 55.77414602 -9.98933583
0.24533062 56.01791974 -9.98069271
-0.00869621 56.26024418 -9.97108924
-0.26279267 56.50111309 -9.96052542
-0.51693810 56.74052022 -9.94900125
-0.77111186 56.97845933 -9.93651674
-1.02529332 57.21492417 -9.92307188
-1.27946182 57.44990850 -9.90866668
-1.53359672 57.68340606 -9.89330112
-1.78767739 57.91541062 -9.87697522
-2.04168318 58.14591603 -9.85968917
-2.29559362 58.37491714 -9.84144511
-2.54938829 58.60240937 -9.82224629
-2.80304677 58.82838813 -9.80209596
-3.05654866 59.05284885 -9.78099738
-3.30987355 59.27578696 -9.75895380
-3.56300102 59.49719786 -9.73596848
-3.81591066 59.71707699 -9.71204467
-4.06858207 59.93541977 -9.68718565
-4.32099483 60.15222161 -9.66139465
-4.57312854 60.36747795 -9.63467493
-4.82496277 60.58118419 -9.60702976
-5.07647712 60.79333577 -9.57846239
-5.32765117 61.00392810 -9.54897607
-5.57846453 61.21295661 -9.51857406
-5.82889677 61.42041671 -9.48725962
-6.07892749 61.62630384 -9.45503600
-6.32853627 61.83061340 -9.42190647
-6.57770270 62.03334083 -9.38787426
-6.82640637 62.23448155 -9.35294266
-7.07462688 62.43403096 -9.31711490
-7.32234380 62.63198451 -9.28039424
-7.56953674 62.82833761 -9.24278395
-7.81618527 63.02308568 -9.20428728
-8.06226899 63.21622414 -9.16490748
-8.30776748 63.40774841 -9.12464781
-8.55266034 63.59765393 -9.08351153
-8.79692716 63.78593610 -9.04150189
-9.04054751 63.97259035 -8.99862215
-9.28350100 64.15761210 -8.95487557
-9.52576721 64.34099677 -8.91026539
-9.76732573 64.52273979 -8.86479489
-10.00815615 64.70283658 -8.81846731
-10.24823806 64.88128255 -8.77128592
-10.48755104 65.05807313 -8.72325396
-10.72607472 65.23320377 -8.67437468
-10.96380611 65.40667837 -8.62464359
-11.20078780 65.57852313 -8.57403591
-11.43706978 65.74876783 -8.52252359
-11.67270205 65.91744228 -8.47007857
-11.90773460 66.08457625 -8.41667278
-12.14221742 66.25019955 -8.36227816
-12.37620051 66.41434197 -8.30686666
-12.60973384 66.57703329 -8.25041021
-12.84286742 66.73830331 -8.19288075
-13.07565124 66.89818182 -8.13425023
-13.30813529 67.05669861 -8.07449058
-13.54036956 67.21388348 -8.01357374
-13.77240403 67.36976621 -7.95147165
-14.00428872 67.52437661 -7.88815625
-14.23607359 67.67774445 -7.82359949
-14.46780865 67.82989954 -7.75777329
-14.69954389 67.98087166 -7.69064960
-14.93132930 68.13069060 -7.62220037
-15.16321487 68.27938617 -7.55239752
-15.39525060 68.42698814 -7.48121300
-15.62748647 68.57352632 -7.40861875
-15.85997247 68.71903049 -7.33458670
-16.09275860 68.86353045 -7.25908880
-16.32589485 69.00705599 -7.18209699
-16.55943121 69.14963689 -7.10358321
-16.79341768 69.29130296 -7.02351939
-17.02790423 69.43208398 -6.94187748
-17.26294088 69.57200975 -6.85862941
-17.49857759 69.71111006 -6.77374712
-17.73486438 69.84941469 -6.68720256
-17.97185123 69.98695345 -6.59896767
-18.20958813 70.12375612 -6.50901438
-18.44812508 70.25985249 -6.41731463
-18.68751205 70.39527237 -6.32384036
-18.92779906 70.53004553 -6.22856352
-19.16903618 70.66419806 -6.13145039
-19.41127507 70.79769370 -6.03237249
-19.65456871 70.93044444 -5.93112264
-19.89897011 71.06236073 -5.82749132
-20.14453227 71.19335298 -5.72126900
-20.39130822 71.32333166 -5.61224612
-20.63935097 71.45220718 -5.50021315
-20.88871352 71.57988998 -5.38496057
-21.13944888 71.70629051 -5.26627882
-21.39161007 71.83131919 -5.14395838
-21.64525010 71.95488646 -5.01778970
-21.90042198 72.07690276 -4.88756324
-22.15717873 72.19727852 -4.75306948
-22.41557335 72.31592417 -4.61409888
-22.67565885 72.43275017 -4.47044189
-22.93748825 72.54766693 -4.32188897
-23.20111456 72.66058490 -4.16823060
-23.46659079 72.77141450 -4.00925724
-23.73396995 72.88006619 -3.84475934
-24.00330506 72.98645039 -3.67452737
-24.27464912 73.09047753 -3.49835180
-24.54805514 73.19205806 -3.31602308
-24.82357615 73.29110241 -3.12733168
-25.10126514 73.38752101 -2.93206806
-25.38117514 73.48122431 -2.73002268
-25.66335914 73.57212273 -2.52098601
-25.94787017 73.66012672 -2.30474851
-26.23476124 73.74514670 -2.08110065
-26.52408535 73.82709311 -1.84983287
-26.81589553 73.90587640 -1.61073566
-27.11024477 73.98140699 -1.36359946
-27.40718609 74.05359532 -1.10821475
-27.70677251 74.12235183 -0.84437199
-28.00905703 74.18758695 -0.57186163
-28.31409267 74.24921112 -0.29047415
-28.62193244 74.30713477 -0.00000000
LINES 3 703
150 0 1 2 3 4 5 6 7 8 9 10 11 12 13 14 15 16 17 18 19 20 21 22 23 24 25 26 27 28 29 30 31 32 33 34 35 36 37 38 39 40 41 42 43 44 45 46 47 48 49 50 51 52 53 54 55 56 57 58 59 60 61 62 63 64 65 66 67 68 69 70 71 72 73 74 75 76 77 78 79 80 81 82 83 84 85 86 87 88 89 90 91 92 93 94 95 96 97 98 99 100 101 102 103 104 105 106 107 108 109 110 111 112 113 114 115 116 117 118 119 120 121 122 123 124 125 126 127 128 129 130 131 132 133 134 135 136 137 138 139 140 141 142 143 144 145 146 147 148 149
300 150 151 152 153 154 155 156 157 158 159 160 161 162 163 164 165 166 167 168 169 170 171 172 173 174 175 176 177 178 179 180 181 182 183 184 185 186 187 188 189 190 191 192 193 194 195 196 197 198 199 200 201 202 203 204 205 206 207 208 209 210 211 212 213 214 215 216 217 218 219 220 221 222 223 224 225 226 227 228 229 230 231 232 233 234 235 236 237 238 239 240 241 242 243 244 245 246 247 248 249 250 251 252 253 254 255 256 257 258 259 260 261 262 263 264 265 266 267 268 269 270 271 272 273 274 275 276 277 278 279 280 281 282 283 284 285 286 287 288 289 290 291 292 293 294 295 296 297 298 299 300 301 302 303 304 305 306 307 308 309 310 311 312 313 314 315 316 317 318 319 320 321 322 323 324 325 326 327 328 329 330 331 332 333 334 335 336 337 338 339 340 341 342 343 344 345 346 347 348 349 350 351 352 353 354 355 356 357 358 359 360 361 362 363 364 365 366 367 368 369 370 371 372 373 374 375 376 377 378 379 380 381 382 383 384 385 386 387 388 389 390 391 392 393 394 395 396 397 398 399 400 401 402 403 404 405 406 407 408 409 410 411 412 413 414 415 416 417 418 419 420 421 422 423 424 425 426 427 428 429 430 431 432 433 434 435 436 437 438 439 440 441 442 443 444 445 446 447 448 449
250 450 451 452 453 454 455 456 457 458 459 460 461 462 463 464 465 466 467 468 469 470 471 472 473 474 475 476 477 478 479 480 481 482 483 484 485 486 487 488 489 490 491 492 493 494 495 496 497 498 499 500 501 502 503 504 505 506 507 508 509 510 511 512 513 514 515 516 517 518 519 520 521 522 523 524 525 526 527 528 529 530 531 532 533 534 535 536 537 538 539 540 541 542 543 544 545 546 547 548 549 550 551 552 553 554 555 556 557 558 559 560 561 562 563 564 565 566 567 568 569 570 571 572 573 574 575 576 577 578 579 580 581 582 583 584 585 586 587 588 589 590 591 592 593 594 595 596 597 598 599 600 601 602 603 604 605 606 607 608 609 610 611 612 613 614 615 616 617 618 619 620 621 622 623 624 625 626 627 628 629 630 631 632 633 634 635 636 637 638 639 640 641 642 643 644 645 646 647 648 649 650 651 652 653 654 655 656 657 658 659 660 661 662 663 664 665 666 667 668 669 670 671 672 673 674 675 676 677 678 679 680 681 682 683 684 685 686 687 688 689 690 691 692 693 694 695 696 697 698 699
POINT_DATA 700
SCALARS branch_id int 1
LOOKUP_TABLE default
1
1
1
1
1
1
1
1
1
1
1
1
1
1
1
1
1
1
1
1
1
1
1
1
1
1
1
1
1
1
1
1
1
1
1
1
1
1
1
1
1
1
1
1
1
1
1
1
1
1
1
1
1
1
1
1
1
1
1
1
1
1
1
1
1
1
1
1
1
1
1
1
1
1
1
1
1
1
1
1
1
1
1
1
1
1
1
1
1
1
1
1
1
1
1
1
1
1
1
1
1
1
1
1
1
1
1
1
1
1
1
1
1
1
1
1
1
1
1
1
1
1
1
1
1
1
1
1
1
1
1
1
1
1
1
1
1
1
1
1
1
1
1
1
1
1
1
1
1
1
2
2
2
2
2
2
2
2
2
2
2
2
2
2
2
2
2
2
2
2
2
2
2
2
2
2
2
2
2
2
2
2
2
2
2
2
2
2
2
2
2
2
2
2
2
2
2
2
2
2
2
2
2
2
2
2
2
2
2
2
2
2
2
2
2
2
2
2
2
2
2
2
2
2
2
2
2
2
2
2
2
2
2
2
2
2
2
2
2
2
2
2
2
2
2
2
2
2
2
2
2
2
2
2
2
2
2
2
2
2
2
2
2
2
2
2
2
2
2
2
2
2
2
2
2
2
2
2
2
2
2
2
2
2
2
2
2
2
2
2
2
2
2
2
2
2
2
2
2
2
2
2
2
2
2
2
2
2
2
2
2
2
2
2
2
2
2
2
2
2
2
2
2
2
2
2
2
2
2
2
2
2
2
2
2
2
2
2
2
2
2
2
2
2
2
2
2
2
2
2
2
2
2
2
2
2
2
2
2
2
2
2
2
2
2
2
2
2
2
2
2
2
2
2
2
2
2
2
2
2
2
2
2
2
2
2
2
2
2
2
2
2
2
2
2
2
2
2
2
2
2
2
2
2
2
2
2
2
2
2
2
2
2
2
2
2
2
2
2
2
2
2
2
2
2
2
2
2
2
2
2
2
2
2
2
2
2
2
2
2
2
2
2
2
2
2
2
2
2
2
3
3
3
3
3
3
3
3
3
3
3
3
3
3
3
3
3
3
3
3
3
3
3
3
3
3
3
3
3
3
3
3
3
3
3
3
3
3
3
3
3
3
3
3
3
3
3
3
3
3
3
3
3
3
3
3
3
3
3
3
3
3
3
3
3
3
3
3
3
3
3
3
3
3
3
3
3
3
3
3
3
3
3
3
3
3
3
3
3
3
3
3
3
3
3
3
3
3
3
3
3
3
3
3
3
3
3
3
3
3
3
3
3
3
3
3
3
3
3
3
3
3
3
3
3
3
3
3
3
3
3
3
3
3
3
3
3
3
3
3
3
3
3
3
3
3
3
3
3
3
3
3
3
3
3
3
3
3
3
3
3
3
3
3
3
3
3
3
3
3
3
3
3
3
3
3
3
3
3
3
3
3
3
3
3
3
3
3
3
3
3
3
3
3
3
3
3
3
3
3
3
3
3
3
3
3
3
3
3
3
3
3
3
3
3
3
3
3
3
3
3
3
3
3
3
3
3
3
3
3
3
3
3
3
3
3
3
3
3
3
3
3
3
3
3
3
3
3
3
3
SCALARS point_index int 1
LOOKUP_TABLE default
0
1
2
3
4
5
6
7
8
9
10
11
12
13
14
15
16
17
18
19
20
21
22
23
24
25
26
27
28
29
30
31
32
33
34
35
36
37
38
39
40
41
42
43
44
45
46
47
48
49
50
51
52
53
54
55
56
57
58
59
60
61
62
63
64
65
66
67
68
69
70
71
72
73
74
75
76
77
78
79
80
81
82
83
84
85
86
87
88
89
90
91
92
93
94
95
96
97
98
99
100
101
102
103
104
105
106
107
108
109
110
111
112
113
114
115
116
117
118
119
120
121
122
123
124
125
126
127
128
129
130
131
132
133
134
135
136
137
138
139
140
141
142
143
144
145
146
147
148
149
0
1
2
3
4
5
6
7
8
9
10
11
12
13
14
15
16
17
18
19
20
21
22
23
24
25
26
27
28
29
30
31
32
33
34
35
36
37
38
39
40
41
42
43
44
45
46
47
48
49
50
51
52
53
54
55
56
57
58
59
60
61
62
63
64
65
66
67
68
69
70
71
72
73
74
75
76
77
78
79
80
81
82
83
84
85
86
87
88
89
90
91
92
93
94
95
96
97
98
99
100
101
102
103
104
105
106
107
108
109
110
111
112
113
114
115
116
117
118
119
120
121
122
123
124
125
126
127
128
129
130
131
132
133
134
135
136
137
138
139
140
141
142
143
144
145
146
147
148
149
150
151
152
153
154
155
156
157
158
159
160
161
162
163
164
165
166
167
168
169
170
171
172
173
174
175
176
177
178
179
180
181
182
183
184
185
186
187
188
189
190
191
192
193
194
195
196
197
198
199
200
201
202
203
204
205
206
207
208
209
210
211
212
213
214
215
216
217
218
219
220
221
222
223
224
225
226
227
228
229
230
231
232
233
234
235
236
237
238
239
240
241
242
243
244
245
246
247
248
249
250
251
252
253
254
255
256
257
258
259
260
261
262
263
264
265
266
267
268
269
270
271
272
273
274
275
276
277
278
279
280
281
282
283
284
285
286
287
288
289
290
291
292
293
294
295
296
297
298
299
0
1
2
3
4
5
6
7
8
9
10
11
12
13
14
15
16
17
18
19
20
21
22
23
24
25
26
27
28
29
30
31
32
33
34
35
36
37
38
39
40
41
42
43
44
45
46
47
48
49
50
51
52
53
54
55
56
57
58
59
60
61
62
63
64
65
66
67
68
69
70
71
72
73
74
75
76
77
78
79
80
81
82
83
84
85
86
87
88
89
90
91
92
93
94
95
96
97
98
99
100
101
102
103
104
105
106
107
108
109
110
111
112
113
114
115
116
117
118
119
120
121
122
123
124
125
126
127
128
129
130
131
132
133
134
135
136
137
138
139
140
141
142
143
144
145
146
147
148
149
150
151
152
153
154
155
156
157
158
159
160
161
162
163
164
165
166
167
168
169
170
171
172
173
174
175
176
177
178
179
180
181
182
183
184
185
186
187
188
189
190
191
192
193
194
195
196
197
198
199
200
201
202
203
204
205
206
207
208
209
210
211
212
213
214
215
216
217
218
219
220
221
222
223
224
225
226
227
228
229
230
231
232
233
234
235
236
237
238
239
240
241
242
243
244
245
246
247
248
249
