# vtk DataFile Version 3.0
patient_0001 anatomical LCA control points
ASCII
DATASET POLYDATA
POINTS 27 float
0.00000000 0.00000000 0.00000000
6.94164784 0.98169725 0.49979864
13.88329567 1.38832957 0.00000000
20.82494351 0.98169725 -0.49979864
27.76659134 0.00000000 -0.00000000
27.76659134 0.00000000 -0.00000000
31.55224405 -1.51990617 -7.37479843
35.19013624 -2.91667859 -15.39781424
38.54447810 -4.07715905 -24.51146040
41.50245134 -4.90733233 -34.81188242
43.98334912 -5.33994273 -46.01843287
45.94511442 -5.33994273 -57.56277495
47.38774723 -4.90733233 -68.76932540
48.35330460 -4.07715905 -79.06974741
48.92249334 -2.91667859 -88.18339357
49.20813174 -1.51990617 -96.20640939
49.34600964 -0.00000000 -103.58120781
27.76659134 0.00000000 -0.00000000
26.30218471 13.37733618 -3.49889261
22.05869744 26.30693940 -6.57576713
15.47001750 38.35876792 -8.85950708
7.20982411 49.13746339 -10.07465973
-1.87729470 58.29797259 -10.07465973
-10.86219939 65.55918149 -8.85950708
-18.82620164 70.71502284 -6.57576713
-24.95499835 73.64261852 -3.49889261
-28.62193244 74.30713477 -0.00000000
LINES 3 30
5 0 1 2 3 4
12 5 6 7 8 9 10 11 12 13 14 15 16
10 17 18 19 20 21 22 23 24 25 26
POINT_DATA 27
SCALARS branch_id int 1
LOOKUP_TABLE default
1
1
1
1
1
2
2
2
2
2
2
2
2
2
2
2
2
3
3
3
3
3
3
3
3
3
3
SCALARS point_index int 1
LOOKUP_TABLE default
0
1
2
3
4
0
1
2
3
4
5
6
7
8
9
10
11
0
1
2
3
4
5
6
7
8
9
